<?xml version="1.0" encoding="UTF-8"?>
<svg version="1.1" xmlns="http://www.w3.org/2000/svg" width="412" height="350">
<path d="M0 0 C4.7800458 0.1086374 6.74765297 1.64080475 10.2097168 4.73583984 C17.57090322 9.93374292 28.38503215 9.59064948 37 10 C48.29850782 10.53686214 59.50808739 11.2765619 69 18 C70.9375 20.75 70.9375 20.75 72 23 C72.99 21.515 72.99 21.515 74 20 C74.66 20 75.32 20 76 20 C76.33 19.01 76.66 18.02 77 17 C88.360392 8.97389496 101.23412118 9.91702463 114.38671875 10.6953125 C120.00813429 11.01990867 125.6197628 11.19054873 131.25 11.25 C132.09425537 11.2711084 132.93851074 11.2922168 133.80834961 11.31396484 C143.79288123 11.37150114 150.60268477 7.94925504 158.5625 2.125 C161 1 161 1 163.75 1.5 C166 3 166 3 167.0625 5.25 C166.92167439 11.44632683 161.5714319 15.62184551 157.390625 19.6796875 C156.93171875 20.11539062 156.4728125 20.55109375 156 21 C157.175625 21.35964844 157.175625 21.35964844 158.375 21.7265625 C161 23 161 23 162.1875 24.9609375 C162.5896875 26.15589844 162.5896875 26.15589844 163 27.375 C163.47373047 28.70144531 163.47373047 28.70144531 163.95703125 30.0546875 C164.30121094 31.02664062 164.64539063 31.99859375 165 33 C165.8828577 35.17198621 166.77872487 37.33872964 167.6875 39.5 C168.10386719 40.5003125 168.52023438 41.500625 168.94921875 42.53125 C169.59108726 44.03928307 170.26703903 45.53407806 171 47 C173.48045261 40.79886847 175.22140535 34.55497859 176.83984375 28.07421875 C178.09846799 24.7390764 178.78187433 23.50255957 182 22 C185.39538363 22.03188154 186.62975585 22.62904521 189.03515625 25.0390625 C190.03869141 26.31910156 190.03869141 26.31910156 191.0625 27.625 C202.03507956 40.36265455 217.80279841 44.65583389 234 46 C249.36142511 46.84947973 267.20211899 45.09466438 280 36 C282.625 34.5625 282.625 34.5625 285 34 C287.3125 35.0625 287.3125 35.0625 289 37 C289.78046718 41.23682185 288.26830557 43.50302892 286 47 C286 47.66 286 48.32 286 49 C300.31852315 57.13764222 314.14505461 57.10475432 330 54 C331.36104647 53.60638726 332.71723641 53.19457209 334.0625 52.75 C337 52 337 52 339.4375 52.875 C339.953125 53.24625 340.46875 53.6175 341 54 C341.375 56.75 341.375 56.75 341 60 C338.4375 62.125 338.4375 62.125 335 64 C333.7706212 64.72880895 332.5414527 65.45797276 331.3125 66.1875 C328 68 328 68 325 69 C325 69.66 325 70.32 325 71 C303.12636657 88.65107115 275.22417234 101.85121496 250 114 C248.66536713 114.66406123 247.33137449 115.32942996 246 116 C247.50240234 115.58427734 247.50240234 115.58427734 249.03515625 115.16015625 C250.37754409 114.79405048 251.71999543 114.42817749 253.0625 114.0625 C253.71927734 113.88009766 254.37605469 113.69769531 255.05273438 113.50976562 C270.28616897 109.38248039 284.57019457 110.16007121 298.8515625 117.04296875 C301.06183531 118.02754482 303.23370254 118.66472869 305.5625 119.3125 C317.48280941 123.34769973 323.49649207 135.41135887 329 146 C336.42880952 162.22213404 339.06007514 188.31648079 333 205.125 C332.05778741 207.11178254 331.05601192 209.07129363 330 211 C329.44183594 212.09699219 328.88367188 213.19398438 328.30859375 214.32421875 C321.71828363 226.61053804 312.94175288 237.48332794 304.20703125 248.30078125 C302.80463464 250.10011928 302.80463464 250.10011928 302 253 C301.01 253 300.02 253 299 253 C298.731875 253.5775 298.46375 254.155 298.1875 254.75 C296.97070811 257.05550043 295.69666121 259.02056192 294 261 C293.34 261 292.68 261 292 261 C291.690625 261.79664063 291.690625 261.79664063 291.375 262.609375 C289.42038808 266.00773436 286.77876283 268.51055928 284 271.25 C283.4534375 271.80429687 282.906875 272.35859375 282.34375 272.9296875 C278.2533867 277 278.2533867 277 276 277 C276 277.66 276 278.32 276 279 C274.30096977 280.51740976 272.53927277 281.965128 270.75 283.375 C267.94686688 285.59229313 265.26298803 287.7305752 262.765625 290.2890625 C261 292 261 292 259 292 C259 292.66 259 293.32 259 294 C256.99622308 295.75406612 254.98753089 297.38544857 252.875 299 C252.24118408 299.48911865 251.60736816 299.9782373 250.9543457 300.48217773 C248.977253 301.99856015 246.99075454 303.50160924 245 305 C244.41814941 305.43973145 243.83629883 305.87946289 243.23681641 306.33251953 C193.65927209 343.53362504 131.78393519 353.35263433 71.125 346.3125 C53.9409675 343.57593276 35.59100357 338.3258363 22 327 C22 326.34 22 325.68 22 325 C21.34 325 20.68 325 20 325 C19.731875 326.0725 19.46375 327.145 19.1875 328.25 C18.13882569 331.56160307 17.37247839 333.52866834 15 336 C14.34 336 13.68 336 13 336 C12.67 336.99 12.34 337.98 12 339 C5.72884589 343.7173637 -1.21561555 345.47995821 -8.875 346.3125 C-11 346 -11 346 -12.8125 344.8125 C-14.43636137 342.33397476 -14.29972308 340.93813046 -14 338 C-12.609375 335.38671875 -12.609375 335.38671875 -10.75 332.6875 C-4.44892481 323.46477243 -1.76130795 314.78789676 0.5625 304 C5.08624749 283.25549403 5.08624749 283.25549403 8.75 278.9375 C12.27802038 277.46749151 14.3464329 277.94727728 18 279 C20.60315876 280.74219185 22.93735135 282.63641781 25 285 C25 285.66 25 286.32 25 287 C25.66 287 26.32 287 27 287 C28.2375 288.5159375 28.2375 288.5159375 29.5 290.0625 C34.96210222 296.60646788 41.76589436 300.50871661 49.5 303.875 C52.59375 305.328125 52.59375 305.328125 55 307 C55.82923127 309.37160143 55.98490406 311.4525579 56.203125 313.9453125 C56.85572975 316.27405516 56.85572975 316.27405516 59.546875 317.4296875 C89.65996213 327.4918654 127.49522649 320.07950933 157 311 C158.11455566 310.66307129 159.22911133 310.32614258 160.37744141 309.97900391 C178.9619852 304.30795305 178.9619852 304.30795305 196.04638672 295.25048828 C198.44797201 293.71325761 200.8947417 292.2625031 203.34765625 290.80859375 C215.27219378 283.71536238 226.87958296 276.30556671 238 268 C238.90105469 267.32710938 239.80210937 266.65421875 240.73046875 265.9609375 C243.11080042 263.90426539 244.84058133 261.79003197 246.6875 259.25 C248.44921875 256.828125 248.44921875 256.828125 250 255 C250.66 255 251.32 255 252 255 C266.26080757 239.19929302 279.34975379 209.92865062 278.4375 188.71875 C277.33644994 181.87651034 274.11394769 177.46042409 268.5625 173.4375 C264.82466124 171.23913354 262.36472719 169.9088182 258 171 C255.55028086 172.44983378 253.24712195 174.00211449 250.953125 175.6875 C249 177 249 177 247 177 C247 177.66 247 178.32 247 179 C246.34 179 245.68 179 245 179 C245 179.66 245 180.32 245 181 C244.34 181 243.68 181 243 181 C242.731875 181.598125 242.46375 182.19625 242.1875 182.8125 C240.99427577 185.01054464 239.75321129 186.24678871 238 188 C236.97862543 189.65365406 235.98387706 191.32376502 235 193 C233.02445291 196.01642674 231.01172995 199.00762175 229 202 C228.34 202.99 227.68 203.98 227 205 C227.65226562 205.51046875 228.30453125 206.0209375 228.9765625 206.546875 C236.63904934 212.9209791 241.88040885 219.35146902 243.5703125 229.38671875 C244.22125935 242.02357818 238.97297484 252.39230417 231.02734375 261.9140625 C228.81233596 264.19308786 226.59644817 266.16450765 224 268 C219.70731707 267.70731707 219.70731707 267.70731707 218 266 C218.0059542 264.33282321 218.05559408 262.66574209 218.125 261 C218.16017835 255.60364114 217.67673447 250.7752943 215 246 C212.74303573 244.41387499 212.74303573 244.41387499 210 244 C208.3603125 243.443125 208.3603125 243.443125 206.6875 242.875 C205.800625 242.58625 204.91375 242.2975 204 242 C203.814375 243.216875 203.62875 244.43375 203.4375 245.6875 C200.23562008 259.82913633 190.52255919 271.62989527 178.6015625 279.47265625 C165.78026704 286.99987325 150.44144207 292.42231198 135.515625 288.859375 C127.61654203 286.16093051 119.60891299 281.98065207 115.625 274.375 C115 272 115 272 116 269 C118.4796978 267.7601511 120.62894736 267.87678175 123.35888672 267.81030273 C130.53093466 267.60830777 135.88599688 266.82414085 142.1796875 263.05859375 C144 262 144 262 146 262 C146 261.34 146 260.68 146 260 C147.65002828 258.64613064 149.3174387 257.31321858 151 256 C151.33 255.34 151.66 254.68 152 254 C151.21496094 254.20496094 150.42992187 254.40992188 149.62109375 254.62109375 C148.57050781 254.89050781 147.51992187 255.15992188 146.4375 255.4375 C145.40496094 255.70433594 144.37242187 255.97117187 143.30859375 256.24609375 C120.21195253 261.50896477 100.10388193 256.29824501 79 247 C79.44617676 247.79664063 79.44617676 247.79664063 79.90136719 248.609375 C80.27938477 249.31578125 80.65740234 250.0221875 81.046875 250.75 C81.42682617 251.44609375 81.80677734 252.1421875 82.19824219 252.859375 C83.52996319 256.41495653 82.42257709 258.58581497 81 262 C79 262.8125 79 262.8125 76 263 C73.09986641 261.65982736 70.44713255 260.05850604 68 258 C68 257.34 68 256.68 68 256 C67.12214844 255.66935547 67.12214844 255.66935547 66.2265625 255.33203125 C63.30243313 253.58268368 62.1518667 251.57980064 60.375 248.6875 C59.48941406 247.27017578 59.48941406 247.27017578 58.5859375 245.82421875 C54.55045809 238.63788472 54.85162656 232.92193186 55.078125 224.8359375 C55.17055518 219.44417683 54.79740728 215.0973347 53 210 C43.98356543 219.76055425 43.98356543 219.76055425 38 231.4375 C36.370087 235.82676779 36.370087 235.82676779 33.0625 237.375 C29.12860036 236.893298 27.68119569 235.90462866 25 233 C20.41265212 221.86846355 22.74983558 209.84014061 27 199 C27.27714844 198.26265625 27.55429688 197.5253125 27.83984375 196.765625 C33.05254721 184.75478753 44.50544645 176.54360805 56 171 C57.65977126 170.63387399 59.32465952 170.2865714 61 170 C62.08742694 167.78566059 62.08742694 167.78566059 63 165 C64.57010474 162.58483888 66.27735827 160.31196653 68 158 C67.35160156 158.16008545 66.70320312 158.3201709 66.03515625 158.48510742 C62.16720779 159.14127725 58.34944228 159.20153917 54.4375 159.23828125 C53.60976074 159.246353 52.78202148 159.25442474 51.92919922 159.26274109 C50.17759263 159.27654129 48.42595961 159.28728153 46.67431641 159.29516602 C44.90567997 159.3066297 43.13707658 159.32699148 41.36865234 159.35668945 C28.71795363 159.56875867 16.68971879 159.61004284 6.125 151.625 C-1.0747271 144.58467645 -5.98604867 134.05289582 -6.375 124 C-6.24003433 113.85058143 -1.3957127 106.14267786 4.625 98.3203125 C8.36073019 93.28673811 11.39397732 87.76543328 14.52368164 82.34375 C17.51697899 77.22765762 20.76318299 72.53256844 24.48217773 67.91455078 C26.14744384 65.86791557 26.14744384 65.86791557 28 63 C28.66 63 29.32 63 30 63 C30.33 62.01 30.66 61.02 31 60 C27.75360231 60 25.74934708 60.69558908 22.6875 61.75 C-1.13226107 69.19367533 -27.67232479 71.66504745 -51 61 C-57.79033647 56.72157747 -63.40155568 51.7623019 -66 44 C-66.64611397 37.2955187 -67.04387237 30.69137593 -63 25 C-62.566875 24.38125 -62.13375 23.7625 -61.6875 23.125 C-59.06646306 21.37764204 -57.06222655 21.61722168 -54 22 C-51.8044225 23.54503602 -50.94740822 25.09323089 -49.625 27.4375 C-45.67366701 33.66844817 -38.63357749 36.8223632 -31.6484375 38.59765625 C-15.45895308 41.0571207 0.02537016 36.83756757 15 31 C14.41992188 30.68289062 13.83984375 30.36578125 13.2421875 30.0390625 C4.34854845 24.72636063 -0.16768462 16.82980043 -3 7 C-2.77128348 3.49301338 -2.49159518 2.49159518 0 0 Z M150 25 C147.9600281 26.36323743 147.9600281 26.36323743 146 28 C146 28.66 146 29.32 146 30 C144.67741528 30.68774405 143.34013497 31.34711373 142 32 C140.98478271 32.51344971 139.96956543 33.02689941 138.92358398 33.5559082 C134.54401443 35.41426705 130.48402904 35.38202783 125.78515625 35.29296875 C124.92941513 35.28872391 124.07367401 35.28447906 123.19200134 35.28010559 C120.4818358 35.26342789 117.77243752 35.22579705 115.0625 35.1875 C113.2155056 35.17243902 111.36849944 35.1587531 109.52148438 35.14648438 C105.01403116 35.11356026 100.50714528 35.06185469 96 35 C98.73366635 36.38487659 101.47265158 37.59993705 104.3125 38.75 C112.53823467 42.45225374 116.62254767 47.54692164 121.23828125 55.19140625 C122.91490191 57.86433365 124.71540068 60.29013198 126.6875 62.75 C129.55783037 66.33791296 131.84357291 69.94591708 134 74 C136.6057878 71.3942122 137.23461444 68.95970121 138.4609375 65.48046875 C138.6927774 64.82605301 138.92461731 64.17163727 139.16348267 63.49739075 C139.65531679 62.10541574 140.14436733 60.71245456 140.63085938 59.31860352 C141.35959743 57.23161058 142.096924 55.14782642 142.8359375 53.06445312 C144.25293002 49.05267157 145.6388786 45.03107152 147 41 C147.21499146 40.3633844 147.42998291 39.7267688 147.65148926 39.07086182 C148.25075818 37.27638109 148.83283521 35.47618652 149.4140625 33.67578125 C149.74615723 32.65009033 150.07825195 31.62439941 150.42041016 30.56762695 C151.25478084 27.90208102 151.25478084 27.90208102 150 25 Z M217.80639648 126.27148438 C213.85951199 128.1502317 209.88360843 129.92291409 205.85913086 131.62890625 C190.03567401 138.36373794 174.6865028 146.91771192 166.5625 162.8125 C165.74970181 165.15331448 165.74970181 165.15331448 167 168 C183.26675837 161.01086047 197.04130602 150.99190482 210.703125 139.8515625 C213.86762602 137.30058719 217.12182573 134.87130612 220.3828125 132.4453125 C220.91648437 131.96835938 221.45015625 131.49140625 222 131 C222 130.34 222 129.68 222 129 C222.72316406 128.73058594 223.44632812 128.46117187 224.19140625 128.18359375 C226.96634291 127.01418373 229.38188518 125.64916133 231.9375 124.0625 C235.55911068 121.84839123 239.16544372 119.81636876 243 118 C235.68000857 115.56000286 224.59095084 123.03814452 217.80639648 126.27148438 Z " fill="#030302" transform="translate(69,2)"/>
<path d="M0 0 C0.67071533 0.11577393 1.34143066 0.23154785 2.0324707 0.35083008 C6.84595124 1.41111888 9.32612695 3.37346471 12.5 7.0625 C12.995 7.5575 12.995 7.5575 13.5 8.0625 C14.07613026 15.08685735 13.89703898 20.83459521 10.5 27.0625 C9.365625 26.876875 8.23125 26.69125 7.0625 26.5 C5.886875 26.355625 4.71125 26.21125 3.5 26.0625 C3.005 26.5575 3.005 26.5575 2.5 27.0625 C0.48163988 27.22254618 -1.5401542 27.3399816 -3.5625 27.4375 C-12.14906326 28.0575363 -18.2193639 29.7818639 -24.5 36.0625 C-29.53927187 42.50156961 -29.72895162 50.17954481 -30.5 58.0625 C-19.46240678 62.04301135 -8.44523463 59.71091154 2.5 56.0625 C2.59796875 57.16207031 2.6959375 58.26164062 2.796875 59.39453125 C4.16961188 75.61068315 4.16961188 75.61068315 12.5 89.0625 C18.49825922 93.68615815 24.06795278 93.92044147 31.5 93.0625 C35.89389346 91.49325234 38.29056907 89.35352664 41.5 86.0625 C41.4685791 86.93032104 41.4685791 86.93032104 41.43652344 87.81567383 C40.72121811 103.42989497 40.72121811 103.42989497 45.5 118.0625 C46.0775 119.196875 46.655 120.33125 47.25 121.5 C50.77623031 125.51598451 54.79806088 127.68406802 60.13037109 128.4309082 C63.03458981 128.56356378 65.90602511 128.55923782 68.8125 128.5 C69.78123047 128.50708984 70.74996094 128.51417969 71.74804688 128.52148438 C91.44043656 128.35070314 108.12092004 118.40225534 123.5 107.0625 C124.56089844 106.29679687 125.62179687 105.53109375 126.71484375 104.7421875 C132.03606601 100.84042401 137.11970667 96.73004423 142.125 92.4375 C159.98018873 77.20260799 179.22612869 68.02369636 203.15625 69.74755859 C210.21488518 70.6960627 217.52484083 73.5659942 222.9765625 78.140625 C225.45954208 80.30374604 225.45954208 80.30374604 228.984375 80.875 C233.74120272 82.4817507 235.18153466 84.91532826 237.75 89.0625 C238.17023438 89.68511719 238.59046875 90.30773437 239.0234375 90.94921875 C247.95293279 104.79274447 250.36734461 126.94532178 248.5 143.0625 C244.80528397 159.07293611 234.6446887 172.51385664 224.5 185.0625 C223.35337891 186.49916016 223.35337891 186.49916016 222.18359375 187.96484375 C214.14809958 197.92885652 205.50638864 207.22274359 196.4375 216.25 C195.59123047 217.10013672 194.74496094 217.95027344 193.87304688 218.82617188 C188.91078262 223.78078422 183.83225599 228.51050354 178.5 233.0625 C177.48991148 233.95071657 176.48072767 234.83996355 175.47265625 235.73046875 C149.23713529 258.44444327 119.33820458 274.72277781 85.3125 282.1875 C84.22130859 282.43886719 83.13011719 282.69023437 82.00585938 282.94921875 C65.81571509 286.54284752 50.02940439 287.41255198 33.4909668 287.37817383 C30.33411819 287.37502159 27.17821759 287.39854284 24.02148438 287.42382812 C0.20534297 287.49921328 -30.17349765 286.39419755 -48.6796875 269.015625 C-51.74181986 265.63584406 -54.35437964 262.10131479 -56.5 258.0625 C-58.93717258 258.33284634 -58.93717258 258.33284634 -61.5 259.0625 C-63.60479172 262.21968758 -64.35978609 264.73784934 -65.375 268.375 C-66.86141706 273.30047055 -68.06475182 277.21085811 -71.5 281.0625 C-74.25 282.4375 -74.25 282.4375 -76.5 283.0625 C-75.58519679 280.24185678 -74.64511349 277.44041258 -73.58203125 274.671875 C-70.87460919 267.57656203 -69.08543886 260.48131988 -67.5 253.0625 C-66.98610275 250.66516933 -66.46545461 248.26927414 -65.9375 245.875 C-65.70933594 244.80894531 -65.48117188 243.74289062 -65.24609375 242.64453125 C-64.5 240.0625 -64.5 240.0625 -62.5 238.0625 C-62.10731934 238.4656543 -61.71463867 238.86880859 -61.31005859 239.28417969 C-59.5038111 241.13235887 -57.68950998 242.97243354 -55.875 244.8125 C-55.25753906 245.44671875 -54.64007813 246.0809375 -54.00390625 246.734375 C-50.39432268 250.38195419 -46.88528867 253.39084721 -42.5 256.0625 C-43.015625 256.454375 -43.53125 256.84625 -44.0625 257.25 C-45.79857021 259.00694163 -45.79857021 259.00694163 -45.25 261.5625 C-44.39596971 265.45294345 -44.39596971 265.45294345 -41.75 268.0625 C-41.0075 268.3925 -40.265 268.7225 -39.5 269.0625 C-38.778125 269.5471875 -38.05625 270.031875 -37.3125 270.53125 C-33.95870371 272.35720576 -31.00786343 272.91299274 -27.25 273.5625 C-22.15442717 274.48840438 -17.28862864 275.59927726 -12.4296875 277.4140625 C13.90400133 286.26303486 55.03571335 278.25197095 79.5 268.0625 C81.70621313 267.20287191 83.91434749 266.34814638 86.125 265.5 C87.12789062 265.10683594 88.13078125 264.71367187 89.1640625 264.30859375 C93.24275856 262.78505272 97.36404126 261.42111435 101.5 260.0625 C138.58982071 247.77649689 177.50491938 224.34770835 195.80664062 188.50341797 C198.68151405 182.47410666 201.14747407 176.31113905 203.5 170.0625 C203.81759277 169.24604004 204.13518555 168.42958008 204.46240234 167.58837891 C209.36163219 154.80069022 213.33981785 139.48696963 207.5 126.3125 C203.22332026 119.39753051 196.34459525 113.46761655 188.5 111.0625 C182.64796889 109.9712942 177.9307443 110.28658405 172.875 113.5625 C162.07849001 122.06151267 151.89859776 131.74852644 143.4765625 142.609375 C140.76356032 145.97650023 137.71787156 148.93050096 134.62109375 151.94140625 C132.61376203 153.94873797 130.77077096 156.02166287 128.9375 158.1875 C125.49525914 162.19272418 121.76298543 165.92651072 117.5 169.0625 C116.84 169.0625 116.18 169.0625 115.5 169.0625 C115.17 167.7425 114.84 166.4225 114.5 165.0625 C112.52 164.7325 110.54 164.4025 108.5 164.0625 C107.18762295 167.99963115 107.67673027 170.50867433 109.3984375 174.2578125 C110.6164802 176.25332926 112.02936778 177.67008467 113.6875 179.3125 C116.96424232 183.02559243 117.43107937 186.07527082 117.1484375 190.9609375 C114.66704116 202.82978505 107.26414076 213.06798009 97.3125 219.75 C87.79713709 225.48546702 78.65195174 229.18991405 67.5 229.25 C66.30375 229.26417969 65.1075 229.27835938 63.875 229.29296875 C60.62304792 229.07090258 58.41729469 228.46037037 55.5 227.0625 C58.37747826 225.14418116 60.76748751 224.21939921 64 223.0625 C71.63523399 219.91748867 78.43966213 214.99795819 82.8515625 207.8828125 C84.98511472 202.75829921 85.60531556 197.75591264 83.48046875 192.578125 C81.74494908 189.03368 79.93102032 185.68673632 77.6875 182.4375 C75.96824139 178.99898279 75.68193225 175.77302156 76.5 172.0625 C77.625 170.390625 77.625 170.390625 79 168.875 C81.73128789 166.33071621 81.73128789 166.33071621 81.875 163.25 C81.72173484 161.0917466 81.72173484 161.0917466 80.5 160.0625 C78.09509594 159.66084 78.09509594 159.66084 75.5 160.0625 C73.64112577 161.67367572 73.64112577 161.67367572 72.25 163.875 C71.49976563 164.93654297 71.49976563 164.93654297 70.734375 166.01953125 C68.02192659 170.50880505 67.89132361 174.96883969 68.5 180.0625 C69.35135422 182.52368766 70.36341722 184.78933445 71.52734375 187.1171875 C72.5 189.0625 72.5 189.0625 73.5 192.0625 C56.21336046 199.63919733 38.3192201 200.36930262 20.5 194.0625 C16.05435136 192.29620789 11.75423831 190.24789639 7.5 188.0625 C7.87511719 187.65 8.25023437 187.2375 8.63671875 186.8125 C15.59044318 178.96547595 20.75671861 171.67410821 20.66796875 160.953125 C20.70283157 159.05141238 20.70283157 159.05141238 19.5 158.0625 C17.83382885 158.02186168 16.16611905 158.019779 14.5 158.0625 C14.29246094 158.89652344 14.08492188 159.73054687 13.87109375 160.58984375 C11.11979685 170.63956005 7.28243968 177.08734454 -0.8125 183.625 C-4.96271918 187.04471639 -5.76176616 189.8025839 -6.5 195.0625 C-10.91097749 190.9422173 -13.67147061 185.8964308 -14.125 179.8125 C-13.60683515 170.11780281 -7.42943083 162.30932573 -0.74609375 155.8046875 C1.58961036 153.99299353 3.71377596 153.01246039 6.5 152.0625 C6.54254356 150.06295254 6.54080783 148.06208364 6.5 146.0625 C5.463652 144.81840977 5.463652 144.81840977 3.21875 144.8046875 C-2.24099631 145.32242206 -6.55797517 149.95100603 -10.15625 153.86328125 C-11.2916324 155.24620342 -12.3991006 156.65197264 -13.5 158.0625 C-13.83 158.0625 -14.16 158.0625 -14.5 158.0625 C-14.5 152.7825 -14.5 147.5025 -14.5 142.0625 C-15.94375 142.145 -17.3875 142.2275 -18.875 142.3125 C-19.68710938 142.35890625 -20.49921875 142.4053125 -21.3359375 142.453125 C-23.66484721 142.84317328 -23.66484721 142.84317328 -24.66015625 144.9765625 C-24.93730469 145.66492188 -25.21445313 146.35328125 -25.5 147.0625 C-26.61129347 148.20746903 -27.72868216 149.34727157 -28.87890625 150.453125 C-34.68292407 156.21518607 -39.83635857 162.35851544 -44.5 169.0625 C-44.83 169.0625 -45.16 169.0625 -45.5 169.0625 C-45.92459208 158.94948862 -42.30016539 148.91037201 -35.734375 141.16796875 C-28.36665336 134.22530798 -20.84865182 128.86724242 -10.5 129.0625 C-10.12875 128.0725 -10.12875 128.0725 -9.75 127.0625 C-7.41087053 121.44858926 -4.78939427 116.39599103 -1.25 111.4375 C1.2229912 107.85228412 2.18599466 105.52146528 1.5 101.0625 C-4.60229131 98.93201362 -10.2265632 98.75222065 -16.65625 98.71875 C-17.71734985 98.7041272 -18.77844971 98.68950439 -19.8717041 98.67443848 C-23.24776494 98.62813325 -26.62376891 98.5938194 -30 98.5625 C-34.44813026 98.5212372 -38.89585562 98.46754553 -43.34375 98.40625 C-44.35747681 98.4009729 -45.37120361 98.3956958 -46.41564941 98.39025879 C-55.04664662 98.26939071 -61.11735999 97.44514001 -67.5 91.0625 C-69.6171875 87.7578125 -69.6171875 87.7578125 -71.375 84.1875 C-71.97054687 83.01445312 -72.56609375 81.84140625 -73.1796875 80.6328125 C-75.63076239 74.00475792 -74.56768111 68.98142386 -71.88671875 62.70703125 C-69.89418818 58.90719126 -67.31864815 55.66072598 -64.71484375 52.26171875 C-61.62166821 47.79379852 -59.21114206 43.03773436 -56.8215332 38.16381836 C-53.19742368 30.95189951 -48.16883141 25.73133141 -42.5 20.0625 C-41.96117187 19.39347656 -41.42234375 18.72445312 -40.8671875 18.03515625 C-30.94277684 5.88917249 -15.90229584 -2.77185977 0 0 Z " fill="#A498A9" transform="translate(146.5,52.9375)"/>
<path d="M0 0 C0.76630737 0.59832642 0.76630737 0.59832642 1.5480957 1.20874023 C22.73762903 17.63537164 46.4175496 21.75642795 72.73046875 18.48828125 C73.80941406 18.32714844 74.88835937 18.16601562 76 18 C72.48470453 21.73091768 68.97744239 24.53769116 64.625 27.3125 C63.54476562 28.00988281 62.46453125 28.70726563 61.3515625 29.42578125 C50.70301502 35.87348879 39.70695487 41.16142475 28.1920166 45.84338379 C-14.6070668 63.14174085 -14.6070668 63.14174085 -43 98 C-43.45375 98.928125 -43.9075 99.85625 -44.375 100.8125 C-48.86564321 111.07682735 -49.80559165 121.95283836 -51 133 C-56.83489888 127.69988727 -58.61816059 122.2959466 -59.1796875 114.5078125 C-59.18622452 112.67090987 -59.10381011 110.83397859 -59 109 C-58.39414063 108.74734375 -57.78828125 108.4946875 -57.1640625 108.234375 C-54.68233908 106.81880713 -53.85736499 105.66907416 -52.375 103.25 C-49.79503768 99.19206931 -47.06853915 95.2692843 -44.25 91.375 C-27.94717987 68.62737992 -14.83058149 44.66489312 -6 18 C-5.45618981 16.38005362 -4.9118867 14.76027267 -4.3671875 13.140625 C-2.8992564 8.76440047 -1.44623662 4.38343881 0 0 Z " fill="#AAE51F" transform="translate(254,38)"/>
<path d="M0 0 C0.54011719 0.2784375 1.08023438 0.556875 1.63671875 0.84375 C13.04781547 6.4266998 23.33471123 9.27626921 36 10 C32.40003864 14.09915601 28.08493982 16.57471542 23.4375 19.3125 C22.57415039 19.82522461 21.71080078 20.33794922 20.82128906 20.86621094 C5.93508867 29.64095894 -9.16454017 38.15303219 -24.5625 46 C-25.20477539 46.33225586 -25.84705078 46.66451172 -26.50878906 47.00683594 C-27.97522215 47.73635973 -29.48438005 48.37909169 -31 49 C-31.66 48.67 -32.32 48.34 -33 48 C-32.27554687 47.49210937 -31.55109375 46.98421875 -30.8046875 46.4609375 C-22.82300458 40.87204179 -22.82300458 40.87204179 -16 34 C-15.41231617 31.28528995 -15.41231617 31.28528995 -16 29 C-16.33 28.67 -16.66 28.34 -17 28 C-21.00133725 28.33344477 -24.2962143 29.07423267 -28.02734375 30.53515625 C-33.55423018 32.41445623 -38.77903258 32.33677547 -44.5625 32.1875 C-45.57119141 32.17396484 -46.57988281 32.16042969 -47.61914062 32.14648438 C-50.08000621 32.11149576 -52.53970335 32.06241158 -55 32 C-52.86259661 29.86259661 -51.61489729 29.35702806 -48.80859375 28.37109375 C-47.95426758 28.06292725 -47.09994141 27.75476074 -46.21972656 27.43725586 C-45.3015918 27.10733643 -44.38345703 26.77741699 -43.4375 26.4375 C-26.9311508 20.31623046 -12.24851217 12.876641 0 0 Z " fill="#A9E31F" transform="translate(347,58)"/>
<path d="M0 0 C1.19689487 1.90637954 2.33427739 3.85042453 3.4375 5.8125 C5.85679328 10.13047283 5.85679328 10.13047283 8.703125 14.1640625 C10.74508598 17.05479039 10.31146795 19.57385257 10 23 C9.34 23.99 8.68 24.98 8 26 C8 26.99 8 27.98 8 29 C8.37769531 28.32453125 8.75539062 27.6490625 9.14453125 26.953125 C13.10874194 20.52868988 16.24919124 17.75720915 23.546875 15.71875 C26.22219372 15.0673614 26.22219372 15.0673614 29 13 C31.1875 13.375 31.1875 13.375 33 14 C30.56494843 16.12781917 28.12654203 18.2517568 25.6875 20.375 C24.99720703 20.97828125 24.30691406 21.5815625 23.59570312 22.203125 C22.92861328 22.78320312 22.26152344 23.36328125 21.57421875 23.9609375 C20.96151123 24.49509277 20.34880371 25.02924805 19.7175293 25.57958984 C17.37395809 27.51774156 15.60912107 28.90628907 12.5625 29.375 C9.37299697 30.15292757 8.20508142 31.642844 6 34 C5.34 34 4.68 34 4 34 C4 34.99 4 35.98 4 37 C4.83273438 36.24460938 5.66546875 35.48921875 6.5234375 34.7109375 C9.95578252 31.85501683 13.48292794 30.21746994 17.625 28.625 C18.27984375 28.35300781 18.9346875 28.08101562 19.609375 27.80078125 C23.04701553 26.44381788 25.4935472 25.48706351 29 27 C18.62724551 39.36751497 18.62724551 39.36751497 12.625 40.8125 C11.325625 40.9053125 11.325625 40.9053125 10 41 C10 40.34 10 39.68 10 39 C8.35 39 6.7 39 5 39 C5.95764655 41.56275853 6.9160936 44.12521289 7.875 46.6875 C8.14441406 47.40873047 8.41382813 48.12996094 8.69140625 48.87304688 C9.08779297 49.93168945 9.08779297 49.93168945 9.4921875 51.01171875 C9.87842285 52.0469165 9.87842285 52.0469165 10.27246094 53.10302734 C10.87490965 54.6738416 11.52864869 56.22487555 12.1953125 57.76953125 C13 60 13 60 13 64 C8.70879691 62.44594281 6.42589095 59.19182811 3.75 55.6875 C3.29109375 55.11837891 2.8321875 54.54925781 2.359375 53.96289062 C0.3028114 51.29731489 -0.95214239 49.47038996 -1.296875 46.08203125 C-1.14992187 45.05142578 -1.14992187 45.05142578 -1 44 C-4.16115776 45.36983503 -4.9927092 45.9890638 -7 49 C-7.66 49 -8.32 49 -9 49 C-9.33 49.99 -9.66 50.98 -10 52 C-10.60978871 44.92645092 -10.60978871 44.92645092 -8.88671875 42.30859375 C-8.20029297 41.56802734 -8.20029297 41.56802734 -7.5 40.8125 C-4.76871211 38.26821621 -4.76871211 38.26821621 -4.625 35.1875 C-4.77826516 33.0292466 -4.77826516 33.0292466 -6 32 C-7.51566447 31.70159433 -9.03794783 31.43654898 -10.5625 31.1875 C-15.64608916 30.21606701 -19.52946666 28.60103758 -24 26 C-24.33 25.34 -24.66 24.68 -25 24 C-23.06215735 24.14120714 -21.12473045 24.28812873 -19.1875 24.4375 C-18.10855469 24.51871094 -17.02960938 24.59992188 -15.91796875 24.68359375 C-13 25 -13 25 -10 26 C-10.33 25.34 -10.66 24.68 -11 24 C-11.22010789 22.33571667 -11.39096902 20.66475933 -11.53515625 18.9921875 C-11.62216797 18.00605469 -11.70917969 17.01992187 -11.79882812 16.00390625 C-11.88583984 14.97136719 -11.97285156 13.93882812 -12.0625 12.875 C-12.15337891 11.83472656 -12.24425781 10.79445312 -12.33789062 9.72265625 C-12.56222181 7.14875113 -12.78157779 4.57441329 -13 2 C-16.63 2 -20.26 2 -24 2 C-24 1.67 -24 1.34 -24 1 C-22.74703125 0.93941406 -21.4940625 0.87882813 -20.203125 0.81640625 C-18.55207276 0.73197744 -16.90103165 0.64733061 -15.25 0.5625 C-14.425 0.52318359 -13.6 0.48386719 -12.75 0.44335938 C-11.95078125 0.40146484 -11.1515625 0.35957031 -10.328125 0.31640625 C-9.5949707 0.27974854 -8.86181641 0.24309082 -8.10644531 0.20532227 C-5.97165223 0.0564432 -5.97165223 0.0564432 -3.85449219 -0.58227539 C-2 -1 -2 -1 0 0 Z " fill="#A7AD86" transform="translate(233,181)"/>
<path d="M0 0 C0.66 0 1.32 0 2 0 C6.49279974 7.48799956 8.35078253 13.23043683 8 22 C7.34 22 6.68 22 6 22 C6 23.32 6 24.64 6 26 C14.25 26 22.5 26 31 26 C27.75452136 29.24547864 24.91302279 30.39577953 20.6875 31.8125 C20.03587891 32.05419922 19.38425781 32.29589844 18.71289062 32.54492188 C14.1140088 34.10550339 11.41052785 33.98986605 7 32 C7.81127079 34.12546959 8.62405398 36.25036195 9.4375 38.375 C9.88996094 39.55835938 10.34242188 40.74171875 10.80859375 41.9609375 C11.89271912 44.86036193 11.89271912 44.86036193 13 47 C13.23029956 49.37123246 13.41119942 51.74741943 13.5625 54.125 C13.64628906 55.40632813 13.73007813 56.68765625 13.81640625 58.0078125 C13.90728516 59.48894531 13.90728516 59.48894531 14 61 C13.34 61 12.68 61 12 61 C11.87882812 60.07058594 11.75765625 59.14117187 11.6328125 58.18359375 C10.38814199 48.96381236 10.38814199 48.96381236 8 40 C7.34 40 6.68 40 6 40 C6 42.64 6 45.28 6 48 C3.97649676 44.96474514 3.67875982 43.80573798 3.375 40.3125 C3.30023438 39.50425781 3.22546875 38.69601563 3.1484375 37.86328125 C3.09945312 37.24839844 3.05046875 36.63351563 3 36 C2.34 36 1.68 36 1 36 C0.773125 36.53625 0.54625 37.0725 0.3125 37.625 C-2.13916602 42.06134804 -5.49564996 46.52987256 -10 49 C-12.0625 48.75 -12.0625 48.75 -14 48 C-14.99 47.67 -15.98 47.34 -17 47 C-16.42365861 42.24518354 -14.44931479 39.02951788 -12 35 C-12.66386719 34.93941406 -13.32773438 34.87882812 -14.01171875 34.81640625 C-22.78207381 33.98418278 -22.78207381 33.98418278 -27 33 C-27 32.34 -27 31.68 -27 31 C-28.73636719 31.01740234 -28.73636719 31.01740234 -30.5078125 31.03515625 C-32.04687338 31.04454077 -33.58593601 31.05364026 -35.125 31.0625 C-35.88554687 31.07087891 -36.64609375 31.07925781 -37.4296875 31.08789062 C-41.7389644 31.10646509 -45.75516474 30.86117265 -50 30 C-46.32251725 25.20853525 -39.62589038 25.11128045 -34.00878906 24.25048828 C-26.79276665 23.350678 -19.11828964 23.41815786 -12 25 C-11.34 25.66 -10.68 26.32 -10 27 C-6.40320934 26.67673447 -6.40320934 26.67673447 -3 26 C-7.02347588 22.53028623 -7.02347588 22.53028623 -12 21 C-12 21.66 -12 22.32 -12 23 C-16.12498538 23.02892385 -20.24994485 23.04677267 -24.375 23.0625 C-26.1384375 23.07506836 -26.1384375 23.07506836 -27.9375 23.08789062 C-29.61972656 23.09272461 -29.61972656 23.09272461 -31.3359375 23.09765625 C-32.89127197 23.10551147 -32.89127197 23.10551147 -34.47802734 23.11352539 C-37 23 -37 23 -39 22 C-39 21.01 -39 20.02 -39 19 C-35.29572856 18.12753597 -31.58611734 17.28032605 -27.875 16.4375 C-26.82828125 16.19064453 -25.7815625 15.94378906 -24.703125 15.68945312 C-14.65277814 13.43130557 -14.65277814 13.43130557 -10 15 C-8.62131719 16.62935241 -7.28725907 18.29749607 -6 20 C-4.35636866 20.72159424 -2.68949614 21.39351421 -1 22 C0.8125 23.625 0.8125 23.625 2 25 C1.51104248 24.1642041 1.51104248 24.1642041 1.01220703 23.31152344 C-0.14262179 20.6743022 -0.23027983 18.882946 -0.1953125 16.015625 C-0.18886719 15.08105469 -0.18242187 14.14648438 -0.17578125 13.18359375 C-0.15902344 12.21550781 -0.14226562 11.24742187 -0.125 10.25 C-0.11597656 9.26644531 -0.10695312 8.28289062 -0.09765625 7.26953125 C-0.07412785 4.84610593 -0.04125368 2.42317778 0 0 Z " fill="#A8AE87" transform="translate(180,163)"/>
<path d="M0 0 C0.94875 0.886875 1.8975 1.77375 2.875 2.6875 C12.11491665 10.59941244 22.55227416 13.38477904 34.5 13.3125 C35.96312622 13.30404053 35.96312622 13.30404053 37.45581055 13.29541016 C52.92469489 13.03787165 66.48363692 8.33066578 80.8046875 2.9453125 C93.55841377 -1.44531458 104.9200785 1.26277588 117 6 C117 6.99 117 7.98 117 9 C113.23762513 10.88865247 110.04977675 11.16173252 105.87304688 11.17504883 C97.50961955 11.21893101 90.36992278 12.48631289 82.5 15.3125 C59.56491906 23.50135065 34.35487635 27.85494621 11.234375 17.796875 C6.90243234 15.58898164 3.37727806 13.3583431 1 9 C0.41380009 6.00330561 0.13282826 3.04840858 0 0 Z " fill="#A8E21F" transform="translate(12,37)"/>
<path d="M0 0 C7.64877532 0.71707269 13.40782004 6.08106168 18.65234375 11.25390625 C21.70850763 15.21363162 21.44829859 20.18106769 21 25 C20.21774719 27.7440782 19.07660573 30.25564242 17.859375 32.83203125 C17.53592102 33.54928879 17.21246704 34.26654633 16.87921143 35.00553894 C15.8500653 37.2811761 14.80114456 39.54695212 13.75 41.8125 C12.38443784 44.7953778 11.02669736 47.78176176 9.671875 50.76953125 C9.34646729 51.4855249 9.02105957 52.20151855 8.68579102 52.93920898 C2.99395724 64.5209767 2.99395724 64.5209767 2 77 C4.55190044 81.22045072 7.8881515 83.38336914 12 86 C12 86.33 12 86.66 12 87 C7.21450429 87.41254273 4.92152425 87.5216175 0.6875 85.125 C-3.03366967 81.58584406 -3.94254342 76.86886485 -5 72 C-5.27070313 70.81470703 -5.27070313 70.81470703 -5.546875 69.60546875 C-8.13116022 54.74582875 -3.71916967 42.10017745 2.375 28.75 C5.0654056 22.254753 5.22160474 14.41543882 3.3515625 7.65625 C2.51384672 5.6117054 2.51384672 5.6117054 1 3 C0.67 2.01 0.34 1.02 0 0 Z " fill="#A9E220" transform="translate(164,51)"/>
<path d="M0 0 C7.19878621 7.45588572 8.56901923 16.72792766 8.3996582 26.65576172 C7.98717312 37.02912614 5.68156894 44.9059224 -0.37890625 53.4296875 C-2.13123675 56.2080814 -3.07928552 58.85766103 -4 62 C-4.33 62 -4.66 62 -5 62 C-5.28875 61.05125 -5.5775 60.1025 -5.875 59.125 C-6.76825109 55.94788422 -6.76825109 55.94788422 -9 54 C-10.134375 53.54625 -11.26875 53.0925 -12.4375 52.625 C-16.00188964 50.99913806 -17.13012426 50.30709307 -19 47 C-18.5016169 38.31162713 -12.46053556 28.57977734 -8.9375 20.6875 C-7.97834359 18.52414722 -7.02084688 16.3600674 -6.06385803 14.195755 C-5.47226935 12.85940452 -4.879129 11.52373946 -4.28416443 10.18888855 C-2.78487901 6.81836452 -1.34320966 3.43582331 0 0 Z " fill="#A396A7" transform="translate(193,77)"/>
<path d="M0 0 C0.66 0 1.32 0 2 0 C2.48919922 1.22976562 2.48919922 1.22976562 2.98828125 2.484375 C3.64376953 4.10085937 3.64376953 4.10085937 4.3125 5.75 C4.74175781 6.81734375 5.17101562 7.8846875 5.61328125 8.984375 C6.86165079 11.69913918 7.99692018 13.79609727 10 16 C10.99 16.33 11.98 16.66 13 17 C10.69297111 24.44505595 7.71005078 31.43058432 4.4375 38.5 C3.91027344 39.63969238 3.38304687 40.77938477 2.83984375 41.95361328 C-0.35174922 48.75013354 -3.69641387 55.39970077 -7.5 61.875 C-7.89646729 62.55111328 -8.29293457 63.22722656 -8.70141602 63.92382812 C-10.81545795 67.40461014 -13.08071052 70.1823507 -16 73 C-17.39875296 53.17213877 -15.45755025 39.18346591 -7.265625 20.93701172 C-5.35585966 16.50520674 -3.84588278 11.96769032 -2.375 7.375 C-2.1279834 6.61614502 -1.8809668 5.85729004 -1.62646484 5.07543945 C-1.07837805 3.38553869 -0.53811758 1.69310165 0 0 Z " fill="#A295A7" transform="translate(225,42)"/>
<path d="M0 0 C1.67540664 0.64438717 3.34183216 1.31246699 5 2 C9.93943984 3.00714216 14.85435147 3.302958 19.875 3.5625 C20.65875 3.60568359 21.4425 3.64886719 22.25 3.69335938 C24.16650649 3.79853351 26.08323333 3.89967925 28 4 C24.46756848 7.0395341 20.50517002 8.59415122 16.1875 10.1875 C15.3836084 10.48575684 14.5797168 10.78401367 13.75146484 11.09130859 C4.42243077 14.40925208 -5.17887319 16.75669646 -14.79614258 19.07104492 C-32.09628319 23.31234832 -47.08903992 29.4476777 -60 42 C-60 35.61317638 -53.76198412 29.59560906 -49.625 25 C-38.99863186 14.86313826 -24.12317556 8.88850309 -10.9284668 2.89453125 C-9.57099546 2.26485977 -8.23093422 1.59695539 -6.90551758 0.90234375 C-4.41512478 -0.27696333 -2.73417905 -0.26674918 0 0 Z " fill="#A295A7" transform="translate(281,95)"/>
<path d="M0 0 C-2.73925807 2.73925807 -6.01401497 3.68585125 -9.5625 5.0625 C-22.60485085 10.2928515 -36.78965777 16.30905237 -46.6015625 26.6953125 C-48 28 -48 28 -50 28 C-50.2578125 28.556875 -50.515625 29.11375 -50.78125 29.6875 C-52.1555995 32.29524008 -53.80599388 34.58819467 -55.5 37 C-59.27132894 42.80988512 -60.41568522 48.16709451 -61 55 C-65.13125892 55.41312589 -68.08253899 55.39864047 -71.5 53 C-74 50 -74 50 -74.3125 46.4375 C-71.45470472 33.26679133 -61.05678873 23.37329398 -50.25 16.25 C-39.06662572 9.20817255 -26.70535427 5.90065956 -14.04418945 2.55273438 C-12.06810029 2.01841384 -10.10703571 1.44522102 -8.14453125 0.86328125 C-5.2456921 0.06745087 -2.98155112 -0.18070007 0 0 Z " fill="#A7E11F" transform="translate(287,118)"/>
<path d="M0 0 C5.76752349 -0.34605141 10.0181105 -0.32125966 15 3 C16.9375 4.9375 16.9375 4.9375 18 7 C17.6875 9.25 17.6875 9.25 17 11 C15.35 11.33 13.7 11.66 12 12 C12.495 14.97 12.495 14.97 13 18 C11.68 16.68 10.36 15.36 9 14 C8.01 14.33 7.02 14.66 6 15 C5.67 15.99 5.34 16.98 5 18 C5 17.34 5 16.68 5 16 C4.34 16.165 3.68 16.33 3 16.5 C-0.73099794 17.12183299 -4.21873378 17.06408926 -8 17 C-8.33 18.65 -8.66 20.3 -9 22 C-10.32 21.67 -11.64 21.34 -13 21 C-13 20.34 -13 19.68 -13 19 C-14.97536745 19.34786708 -14.97536745 19.34786708 -17 20 C-17.33 20.66 -17.66 21.32 -18 22 C-17.34 22 -16.68 22 -16 22 C-16 22.66 -16 23.32 -16 24 C-15.01 24.33 -14.02 24.66 -13 25 C-14.625 26.125 -14.625 26.125 -17 27 C-19.86670678 26.25465624 -22.35583266 25.32208367 -25 24 C-25 24.66 -25 25.32 -25 26 C-23.35 26.33 -21.7 26.66 -20 27 C-20.33 27.66 -20.66 28.32 -21 29 C-21.66 29 -22.32 29 -23 29 C-23 29.66 -23 30.32 -23 31 C-28.75 31.125 -28.75 31.125 -31 30 C-31 31.65 -31 33.3 -31 35 C-31.99 35.495 -31.99 35.495 -33 36 C-33 34.02 -33 32.04 -33 30 C-33.66 29.67 -34.32 29.34 -35 29 C-35 26.03 -35 23.06 -35 20 C-33.35 20.33 -31.7 20.66 -30 21 C-29.67 20.01 -29.34 19.02 -29 18 C-30.32 17.67 -31.64 17.34 -33 17 C-33 16.34 -33 15.68 -33 15 C-30.03 15.495 -30.03 15.495 -27 16 C-26.67 14.35 -26.34 12.7 -26 11 C-24.68 11 -23.36 11 -22 11 C-22.33 10.34 -22.66 9.68 -23 9 C-20.36 8.67 -17.72 8.34 -15 8 C-14.67 7.01 -14.34 6.02 -14 5 C-13.34 5 -12.68 5 -12 5 C-12 5.66 -12 6.32 -12 7 C-10.68 7 -9.36 7 -8 7 C-8 6.34 -8 5.68 -8 5 C-5.36 5 -2.72 5 0 5 C0 3.35 0 1.7 0 0 Z " fill="#A8AB8C" transform="translate(142,54)"/>
<path d="M0 0 C6.34061289 4.2724833 10.91562513 9.48517921 12.41015625 17.0859375 C12.88448144 23.82378769 10.32722205 30.2265668 7 36 C5.515 36.495 5.515 36.495 4 37 C3.56300781 35.98679687 3.56300781 35.98679687 3.1171875 34.953125 C0.00703922 28.18512937 -2.66967857 25.10964377 -9.4375 21.8125 C-12.13332404 20.86252256 -12.13332404 20.86252256 -15.625 20.625 C-19 20 -19 20 -21 18.1875 C-22 16 -22 16 -21.8515625 14.14453125 C-19.25197993 7.59787606 -7.35199475 -2.78145809 0 0 Z " fill="#A396A8" transform="translate(291,215)"/>
<path d="M0 0 C7.47582836 7.74282223 8.38516035 17.03158133 8.29199219 27.24902344 C8.21236408 30.40084854 8.00235148 32.99294557 7 36 C5.35 36 3.7 36 2 36 C1.67 37.98 1.34 39.96 1 42 C0.34 42 -0.32 42 -1 42 C-1.33 39.03 -1.66 36.06 -2 33 C-2.66 33 -3.32 33 -4 33 C-4 32.01 -4 31.02 -4 30 C-4.66 30 -5.32 30 -6 30 C-5.67 27.36 -5.34 24.72 -5 22 C-6.32 21.67 -7.64 21.34 -9 21 C-8.51789063 19.90300781 -8.03578125 18.80601563 -7.5390625 17.67578125 C-6.9009994 16.22137271 -6.26298092 14.76694459 -5.625 13.3125 C-5.30789062 12.59126953 -4.99078125 11.87003906 -4.6640625 11.12695312 C-3.04797199 7.44024665 -1.46463702 3.75035844 0 0 Z " fill="#A7AA8D" transform="translate(193,77)"/>
<path d="M0 0 C5.29012124 4.40843437 10.18808428 9.07559794 15 14 C14.17578125 16.453125 14.17578125 16.453125 13 19 C10.1875 19.75 10.1875 19.75 7 20 C4.31006947 20.30378052 4.31006947 20.30378052 2 21 C-0.10479172 24.15718758 -0.85978609 26.67534934 -1.875 30.3125 C-3.36141706 35.23797055 -4.56475182 39.14835811 -8 43 C-10.75 44.375 -10.75 44.375 -13 45 C-12.08519679 42.17935678 -11.14511349 39.37791258 -10.08203125 36.609375 C-7.37410372 29.51273734 -5.59383386 22.41778894 -4 15 C-3.46307381 12.60309983 -2.9215364 10.20722714 -2.375 7.8125 C-2.13523437 6.74644531 -1.89546875 5.68039062 -1.6484375 4.58203125 C-1 2 -1 2 0 0 Z " fill="#A6A19A" transform="translate(83,291)"/>
<path d="M0 0 C0.99 0.00193359 1.98 0.00386719 3 0.00585938 C4.02351563 0.01810547 5.04703125 0.03035156 6.1015625 0.04296875 C7.11734375 0.04361328 8.133125 0.04425781 9.1796875 0.04492188 C14.46962785 0.07583711 19.49271607 0.40827013 24.7265625 1.23046875 C27.70277882 1.47620825 30.68194508 1.63709115 33.6640625 1.79296875 C34.44330078 1.83615234 35.22253906 1.87933594 36.02539062 1.92382812 C37.92563367 2.02874952 39.82607919 2.12999325 41.7265625 2.23046875 C37.9765625 6.10546875 37.9765625 6.10546875 35.7265625 7.23046875 C32.84180209 7.26890722 29.98061418 7.24854262 27.09765625 7.1875 C25.32227706 7.16509026 23.54688559 7.14363724 21.77148438 7.12304688 C18.97581645 7.08612342 16.18077831 7.04332566 13.38549805 6.98364258 C10.68529508 6.92868333 7.98578283 6.89992059 5.28515625 6.875 C4.46293076 6.8512178 3.64070526 6.82743561 2.79356384 6.80293274 C-3.20535365 6.77625363 -8.13410239 8.04974757 -13.2734375 11.23046875 C-15.7377209 14.24921591 -17.04894597 16.55699415 -18.2734375 20.23046875 C-18.9334375 20.23046875 -19.5934375 20.23046875 -20.2734375 20.23046875 C-19.78245499 13.1112224 -18.24239528 8.97104516 -12.8359375 3.98046875 C-8.61165758 1.09559466 -5.10744664 -0.02350476 0 0 Z " fill="#A5DE1E" transform="translate(166.2734375,21.76953125)"/>
<path d="M0 0 C5.39077672 0.50120937 10.77996975 1.01643786 16.16821289 1.54418945 C17.99792921 1.72146691 19.82800876 1.89503886 21.65844727 2.06469727 C24.30331032 2.3105131 26.94654064 2.57003084 29.58984375 2.83203125 C30.39646957 2.90404251 31.2030954 2.97605377 32.03416443 3.05024719 C38.2338396 3.68486465 45.25016509 4.58347841 50.0625 8.8125 C51.26624116 11.62122936 51.06196388 13.97203186 51 17 C49.68902344 16.49339844 49.68902344 16.49339844 48.3515625 15.9765625 C40.2877322 13.0519448 32.83023033 11.30895485 24.25634766 10.72119141 C19.21391346 10.33296154 15.57144945 9.18082431 11 7 C8.94031193 6.2224332 6.87211887 5.48073008 4.796875 4.74609375 C3 4 3 4 0 2 C0 1.34 0 0.68 0 0 Z " fill="#A3DB1E" transform="translate(82,19)"/>
<path d="M0 0 C0.33 0.99 0.66 1.98 1 3 C-0.00390625 4.69921875 -0.00390625 4.69921875 -1.5625 6.6875 C-10.56313306 19.74888378 -12.42539761 34.56975006 -14 50 C-19.83489888 44.69988727 -21.61816059 39.2959466 -22.1796875 31.5078125 C-22.18622452 29.67090987 -22.10381011 27.83397859 -22 26 C-21.39414063 25.74734375 -20.78828125 25.4946875 -20.1640625 25.234375 C-17.68233908 23.81880713 -16.85736499 22.66907416 -15.375 20.25 C-12.61177534 15.91386285 -9.72545289 11.69195413 -6.75 7.5 C-6.09523682 6.56462402 -6.09523682 6.56462402 -5.42724609 5.61035156 C-2.23432476 1.11716238 -2.23432476 1.11716238 0 0 Z " fill="#A4DD1E" transform="translate(217,121)"/>
<path d="M0 0 C1 3 1 3 1 5 C1.66 4.67 2.32 4.34 3 4 C2.25 10.625 2.25 10.625 0 14 C-0.66 14 -1.32 14 -2 14 C-2 14.66 -2 15.32 -2 16 C-1.236875 16.2475 -0.47375 16.495 0.3125 16.75 C3.2364045 18.10995558 4.30004356 19.31585826 6 22 C4.5410574 21.52269162 3.08286504 21.04308958 1.625 20.5625 C0.81289063 20.29566406 0.00078125 20.02882812 -0.8359375 19.75390625 C-3 19 -3 19 -5 18 C-5.33 18.99 -5.66 19.98 -6 21 C-6.33 20.01 -6.66 19.02 -7 18 C-7.66 18.33 -8.32 18.66 -9 19 C-12.5 19.1875 -12.5 19.1875 -16 19 C-16.66 18.34 -17.32 17.68 -18 17 C-16.02 15.68 -14.04 14.36 -12 13 C-15.16548033 9.11098131 -18.40365256 5.49359465 -22 2 C-19.03 2.495 -19.03 2.495 -16 3 C-15.67 2.34 -15.34 1.68 -15 1 C-11.7 2.65 -8.4 4.3 -5 6 C-3.35 4.02 -1.7 2.04 0 0 Z " fill="#A8AB8C" transform="translate(294,158)"/>
<path d="M0 0 C0.66 0 1.32 0 2 0 C4 2 4 2 4.125 5 C4.08375 5.99 4.0425 6.98 4 8 C4 8.66 4 9.32 4 10 C5.9600281 11.63676257 5.9600281 11.63676257 8 13 C6.98679688 12.96519531 6.98679688 12.96519531 5.953125 12.9296875 C5.06109375 12.91164062 4.1690625 12.89359375 3.25 12.875 C1.92742187 12.84019531 1.92742187 12.84019531 0.578125 12.8046875 C-2.01231672 12.83741925 -2.01231672 12.83741925 -4.140625 14.0703125 C-4.75421875 14.37710938 -5.3678125 14.68390625 -6 15 C-6.99 14.67 -7.98 14.34 -9 14 C-9 17.3 -9 20.6 -9 24 C-11 24 -11 24 -12.5 22.9375 C-14.61802743 20.20171456 -15.1842997 17.32554738 -16 14 C-17.65 14 -19.3 14 -21 14 C-20.375 11.5625 -20.375 11.5625 -19 9 C-15.875 8.1875 -15.875 8.1875 -13 8 C-13 5.69 -13 3.38 -13 1 C-12.505 1.495 -12.01 1.99 -11.5 2.5 C-7.88369842 4.66978095 -5.17768384 4.20888419 -1 4 C-0.67 2.68 -0.34 1.36 0 0 Z " fill="#A8A990" transform="translate(142,118)"/>
<path d="M0 0 C2.01473912 2.23859903 2.96851602 3.45371047 3.14453125 6.5078125 C3.03496094 7.37148437 2.92539062 8.23515625 2.8125 9.125 C2.71582031 9.99382812 2.61914062 10.86265625 2.51953125 11.7578125 C2 14 2 14 0 16 C0.94875 16.12375 1.8975 16.2475 2.875 16.375 C6 17 6 17 8 19 C6.02 19.33 4.04 19.66 2 20 C2.66 20.66 3.32 21.32 4 22 C1.03 22 -1.94 22 -5 22 C-5.33 21.34 -5.66 20.68 -6 20 C-7.32 22.31 -8.64 24.62 -10 27 C-10.33 27 -10.66 27 -11 27 C-11.125 20.25 -11.125 20.25 -10 18 C-10.99 17.67 -11.98 17.34 -13 17 C-12.34 16.34 -11.68 15.68 -11 15 C-11.495 13.948125 -11.495 13.948125 -12 12.875 C-13.09044562 9.73996884 -13.15322643 7.29436818 -13 4 C-10.69 5.98 -8.38 7.96 -6 10 C-5.34 8.68 -4.68 7.36 -4 6 C-2.68457624 3.98817543 -1.3540932 1.98600337 0 0 Z " fill="#A8AB8C" transform="translate(372,143)"/>
<path d="M0 0 C5.125 2.5625 5.125 2.5625 7 5 C7 6.32 7 7.64 7 9 C11.95 7.515 11.95 7.515 17 6 C13.55384615 10.8 13.55384615 10.8 10.75 11.8125 C10.1725 11.874375 9.595 11.93625 9 12 C9.33 13.65 9.66 15.3 10 17 C9.01 17 8.02 17 7 17 C4.78831775 19.94236782 4.78831775 19.94236782 3 23 C2.34 22.67 1.68 22.34 1 22 C1 20.35 1 18.7 1 17 C0.32453125 17.15597656 -0.3509375 17.31195313 -1.046875 17.47265625 C-2.38492187 17.76462891 -2.38492187 17.76462891 -3.75 18.0625 C-5.07257813 18.35833984 -5.07257813 18.35833984 -6.421875 18.66015625 C-8.98679028 18.99825872 -10.57091639 18.81158635 -13 18 C-12.01 17.34 -11.02 16.68 -10 16 C-10.33 15.01 -10.66 14.02 -11 13 C-4.59282511 8.07533632 -4.59282511 8.07533632 -0.6875 7.890625 C1.5 8.1875 1.5 8.1875 5 9 C2.525 4.545 2.525 4.545 0 0 Z " fill="#A8AD89" transform="translate(321,134)"/>
<path d="M0 0 C1.9375 0.25 1.9375 0.25 4 1 C4.66 1.99 5.32 2.98 6 4 C8.75641416 3.50243908 8.75641416 3.50243908 11 2 C13.375 1.75 13.375 1.75 16 2 C17.625 3.5 17.625 3.5 19 5 C19.99 5 20.98 5 22 5 C22.33 4.34 22.66 3.68 23 3 C25.475 3.495 25.475 3.495 28 4 C27.67842796 6.97454134 27.37860258 8.59335278 25.3125 10.8125 C22.34331109 12.33721863 20.29521559 12.35817561 17 12 C16.34 11.34 15.68 10.68 15 10 C13.65835921 10.2981424 12.32676508 10.64141484 11 11 C4.728 11.56 4.728 11.56 1.5625 9.125 C0 7 0 7 0 5 C-0.66 5 -1.32 5 -2 5 C-1.125 1.125 -1.125 1.125 0 0 Z " fill="#0B0A0B" transform="translate(84,133)"/>
<path d="M0 0 C0.53625 0.226875 1.0725 0.45375 1.625 0.6875 C-0.025 2.3375 -1.675 3.9875 -3.375 5.6875 C-2.055 7.0075 -0.735 8.3275 0.625 9.6875 C-0.45326365 10.96263763 -1.53785519 12.23242569 -2.625 13.5 C-3.22828125 14.20769531 -3.8315625 14.91539062 -4.453125 15.64453125 C-6.29870398 17.60639671 -8.17445332 19.14419625 -10.375 20.6875 C-10.705 19.3675 -11.035 18.0475 -11.375 16.6875 C-12.035 17.6775 -12.695 18.6675 -13.375 19.6875 C-15.00151522 16.43446956 -14.48953156 13.29524398 -14.375 9.6875 C-14.045 9.3575 -13.715 9.0275 -13.375 8.6875 C-16.015 8.3575 -18.655 8.0275 -21.375 7.6875 C-20.715 6.6975 -20.055 5.7075 -19.375 4.6875 C-17.37545254 4.64495644 -15.37458364 4.64669217 -13.375 4.6875 C-12.385 4.0275 -11.395 3.3675 -10.375 2.6875 C-9.715 2.6875 -9.055 2.6875 -8.375 2.6875 C-6.951875 1.9140625 -6.951875 1.9140625 -5.5 1.125 C-2.375 -0.3125 -2.375 -0.3125 0 0 Z " fill="#A7AA8B" transform="translate(360.375,240.3125)"/>
<path d="M0 0 C0.99 0 1.98 0 3 0 C3 1.65 3 3.3 3 5 C3.60328125 4.77183594 4.2065625 4.54367188 4.828125 4.30859375 C5.62734375 4.02113281 6.4265625 3.73367187 7.25 3.4375 C8.03890625 3.14746094 8.8278125 2.85742188 9.640625 2.55859375 C12.19103452 1.95477163 13.55322229 2.1526068 16 3 C11.7051592 5.88809394 8.19809459 8.21240991 3 9 C2.67 9.66 2.34 10.32 2 11 C2.75925781 10.62746094 3.51851563 10.25492188 4.30078125 9.87109375 C5.29464844 9.39800781 6.28851563 8.92492187 7.3125 8.4375 C8.29863281 7.96183594 9.28476562 7.48617187 10.30078125 6.99609375 C13 6 13 6 16 7 C8.6302149 13.43181245 8.6302149 13.43181245 4 13.375 C3.01 13.25125 2.02 13.1275 1 13 C2.98 15.97 2.98 15.97 5 19 C4.67 19.66 4.34 20.32 4 21 C-1.875 16.375 -1.875 16.375 -3 13 C-3.94875 13.515625 -4.8975 14.03125 -5.875 14.5625 C-6.90625 15.036875 -7.9375 15.51125 -9 16 C-9.66 15.67 -10.32 15.34 -11 15 C-9.37660195 13.29115995 -7.70680947 11.62553283 -6 10 C-5.34 10 -4.68 10 -4 10 C-4.33 8.68 -4.66 7.36 -5 6 C-4.34 6 -3.68 6 -3 6 C-2.01 4.02 -1.02 2.04 0 0 Z " fill="#A8AD88" transform="translate(374,191)"/>
<path d="M0 0 C6.5386665 6.7721903 8.34928603 15.0812439 8.25 24.1875 C8.18658888 26.45897694 8.11026809 28.73031513 8 31 C7.01 31 6.02 31 5 31 C5 28.03 5 25.06 5 22 C4.34 21.67 3.68 21.34 3 21 C3.66 21 4.32 21 5 21 C5 20.34 5 19.68 5 19 C4.01 18.67 3.02 18.34 2 18 C2 17.01 2 16.02 2 15 C1.67 15.99 1.34 16.98 1 18 C-1.64 18 -4.28 18 -7 18 C-6.02216461 15.37449704 -5.0427937 12.74958495 -4.0625 10.125 C-3.78470703 9.37863281 -3.50691406 8.63226563 -3.22070312 7.86328125 C-1.11328125 2.2265625 -1.11328125 2.2265625 0 0 Z " fill="#9E92A1" transform="translate(193,77)"/>
<path d="M0 0 C3.00086683 1.50043342 3.8093174 3.91678599 5.4375 6.8125 C7.85754215 11.13034023 7.85754215 11.13034023 10.69921875 15.16796875 C12.77383636 18.08987764 12.37150908 20.53258197 12 24 C10.625 26.4375 10.625 26.4375 9 28 C8.34 28 7.68 28 7 28 C6.87625 27.360625 6.7525 26.72125 6.625 26.0625 C6.41875 25.381875 6.2125 24.70125 6 24 C5.34 23.67 4.68 23.34 4 23 C2.86448615 20.25829299 1.84237899 17.5503076 0.875 14.75 C0.59785156 13.98558594 0.32070312 13.22117188 0.03515625 12.43359375 C-1.3384793 8.51568744 -2.38774232 5.21459047 -2 1 C-1.34 0.67 -0.68 0.34 0 0 Z " fill="#A7AD87" transform="translate(231,180)"/>
<path d="M0 0 C2.55751672 2.55751672 3.25090587 4.98568971 4.5 8.375 C6.14088249 12.87363846 6.14088249 12.87363846 8.1484375 17.2109375 C9.38458569 19.80798278 9.12859921 22.17081727 9 25 C8.01 25.33 7.02 25.66 6 26 C0.3152005 21.50885919 0.3152005 21.50885919 -0.49511719 17.62988281 C-0.58940469 14.94015437 -0.52449467 12.31207084 -0.375 9.625 C-0.34792969 8.69816406 -0.32085937 7.77132812 -0.29296875 6.81640625 C-0.22262115 4.5418337 -0.12428347 2.27215681 0 0 Z " fill="#A8AD88" transform="translate(169,154)"/>
<path d="M0 0 C1.8125 0.125 1.8125 0.125 4 1 C5.75 4.0625 5.75 4.0625 7 7 C8.65 6.34 10.3 5.68 12 5 C11.6875 7.875 11.6875 7.875 11 11 C8 13 8 13 5 13 C5.33 14.98 5.66 16.96 6 19 C5.34 19 4.68 19 4 19 C3.34 17.35 2.68 15.7 2 14 C1.01 14.33 0.02 14.66 -1 15 C-1.66 12.69 -2.32 10.38 -3 8 C-2.01 8 -1.02 8 0 8 C0 5.36 0 2.72 0 0 Z " fill="#A8A990" transform="translate(93,94)"/>
<path d="M0 0 C-5.59039191 19.90518331 -5.59039191 19.90518331 -12 25 C-12.99 25.33 -13.98 25.66 -15 26 C-13.44742357 21.21288934 -11.75094066 16.48455189 -10.00390625 11.765625 C-9.37643335 10.03702261 -8.77541652 8.2983163 -8.21484375 6.546875 C-7.5 4.375 -7.5 4.375 -6 1 C-3.88837599 0.23746911 -2.24073779 0 0 0 Z " fill="#9E92A2" transform="translate(85,310)"/>
<path d="M0 0 C0.99 0.33 1.98 0.66 3 1 C2.67 2.32 2.34 3.64 2 5 C3.98 5 5.96 5 8 5 C4.69984002 9.13937592 1.82675589 12.58662205 -3 15 C-5 12 -5 12 -5 9 C-6.98 9 -8.96 9 -11 9 C-11 8.34 -11 7.68 -11 7 C-9.35 6.67 -7.7 6.34 -6 6 C-5.67 4.68 -5.34 3.36 -5 2 C-3.68 2.33 -2.36 2.66 -1 3 C-0.67 2.01 -0.34 1.02 0 0 Z " fill="#A7A990" transform="translate(323,274)"/>
<path d="M0 0 C0 0.66 0 1.32 0 2 C-0.66 2 -1.32 2 -2 2 C-2.0825 2.5775 -2.165 3.155 -2.25 3.75 C-3.20531013 6.6159304 -4.78469173 7.9990764 -7 10 C-6.67 10.99 -6.34 11.98 -6 13 C-9.76687864 13 -10.91190305 12.76462683 -14 11 C-14 10.34 -14 9.68 -14 9 C-15.98 9.66 -17.96 10.32 -20 11 C-19.67 10.01 -19.34 9.02 -19 8 C-18.34 8 -17.68 8 -17 8 C-17 6.35 -17 4.7 -17 3 C-15.02 2.34 -13.04 1.68 -11 1 C-11 1.66 -11 2.32 -11 3 C-1.8 0 -1.8 0 0 0 Z " fill="#A7A98E" transform="translate(303,295)"/>
<path d="M0 0 C0.33 0.66 0.66 1.32 1 2 C1.66 2 2.32 2 3 2 C3 1.34 3 0.68 3 0 C5.64 0.66 8.28 1.32 11 2 C11 2.66 11 3.32 11 4 C10.34 4.66 9.68 5.32 9 6 C9 6.66 9 7.32 9 8 C10.32 8.66 11.64 9.32 13 10 C9.25669574 12.49553618 8.25463897 11.70910649 4 11 C3.01 11.66 2.02 12.32 1 13 C-1 11 -1 11 -1.125 8.375 C-1.08375 7.59125 -1.0425 6.8075 -1 6 C-0.34 6 0.32 6 1 6 C1 5.34 1 4.68 1 4 C-0.32 3.67 -1.64 3.34 -3 3 C-3 2.34 -3 1.68 -3 1 C-2.01 0.67 -1.02 0.34 0 0 Z " fill="#A7A88E" transform="translate(252,312)"/>
<path d="M0 0 C0.66 0 1.32 0 2 0 C1.125 6.75 1.125 6.75 0 9 C-0.66 9 -1.32 9 -2 9 C-2 8.01 -2 7.02 -2 6 C-4.20770805 5.91834504 -6.41630425 5.86051512 -8.625 5.8125 C-9.85476562 5.77769531 -11.08453125 5.74289063 -12.3515625 5.70703125 C-17.5147859 6.12163698 -20.71978626 7.95796556 -24.6875 11.1875 C-27.55884106 14.67967156 -28.61920968 17.7122827 -30 22 C-30.66 22 -31.32 22 -32 22 C-31.48333064 15.54163296 -30.04116683 11.59286734 -25.0390625 7.328125 C-18.62247396 2.85143532 -12.73003445 2.29512138 -5.125 2.203125 C-1.89865014 2.33848519 -1.89865014 2.33848519 0 0 Z " fill="#D2D2D2" transform="translate(151,82)"/>
<path d="M0 0 C1.1171875 1.73828125 1.1171875 1.73828125 2 4 C1.06119427 7.20263475 -0.64371119 9.65444599 -3 12 C-5.85285679 12.9929833 -7.92361781 13 -11 13 C-11.33 11.35 -11.66 9.7 -12 8 C-11.34 8 -10.68 8 -10 8 C-10 6.02 -10 4.04 -10 2 C-9.01 2 -8.02 2 -7 2 C-7 2.99 -7 3.98 -7 5 C-3.32159111 2.72692336 -3.32159111 2.72692336 0 0 Z " fill="#A7AA8C" transform="translate(231,324)"/>
<path d="M0 0 C1.08667969 0.19464844 2.17335938 0.38929688 3.29296875 0.58984375 C4.54013672 0.82380859 4.54013672 0.82380859 5.8125 1.0625 C4.96484375 3.51171875 4.96484375 3.51171875 3.8125 6.0625 C-1.49369725 7.83123242 -7.63400413 7.15143499 -13.1875 7.0625 C-12.5275 6.0725 -11.8675 5.0825 -11.1875 4.0625 C-10.5275 4.0625 -9.8675 4.0625 -9.1875 4.0625 C-9.1875 2.7425 -9.1875 1.4225 -9.1875 0.0625 C-5.61369658 -1.12876781 -3.67866698 -0.6724445 0 0 Z " fill="#A8AB8C" transform="translate(92.1875,303.9375)"/>
<path d="M0 0 C0.66 0 1.32 0 2 0 C2.26554688 0.88042969 2.53109375 1.76085937 2.8046875 2.66796875 C3.15789062 3.82941406 3.51109375 4.99085938 3.875 6.1875 C4.22304687 7.33605469 4.57109375 8.48460937 4.9296875 9.66796875 C5.92070811 12.92394611 5.92070811 12.92394611 7.1328125 15.67578125 C8 18 8 18 8 22 C8.66 22 9.32 22 10 22 C9.67 25.3 9.34 28.6 9 32 C6.08383772 29.66001494 5.08234488 28.39768836 4.3125 24.6796875 C4.209375 23.42414063 4.10625 22.16859375 4 20.875 C3.4331464 15.08112244 2.2388959 10.2136777 -0.29296875 4.953125 C-1 3 -1 3 0 0 Z " fill="#A7A29C" transform="translate(227,181)"/>
<path d="M0 0 C0.99 0 1.98 0 3 0 C0.71903907 7.25760297 -4.44851348 10.49693286 -10.81640625 13.984375 C-15.03792906 15.94787398 -18.60383034 16.11300184 -23.25 16.0625 C-24.32765625 16.05347656 -25.4053125 16.04445313 -26.515625 16.03515625 C-27.33546875 16.02355469 -28.1553125 16.01195313 -29 16 C-29 15.34 -29 14.68 -29 14 C-27.865625 13.84144531 -26.73125 13.68289062 -25.5625 13.51953125 C-12.70401182 11.93492857 -12.70401182 11.93492857 -2.75 4.34375 C-1.82468393 2.90134554 -0.91128682 1.45130864 0 0 Z " fill="#C8C8C8" transform="translate(149,94)"/>
<path d="M0 0 C1.14926266 0.95421808 2.29430541 1.91352045 3.4375 2.875 C4.07558594 3.40867187 4.71367188 3.94234375 5.37109375 4.4921875 C7 6 7 6 8 8 C7.34 8 6.68 8 6 8 C5.67 8.99 5.34 9.98 5 11 C4.34 10.67 3.68 10.34 3 10 C3.33 9.34 3.66 8.68 4 8 C1.03 10.475 1.03 10.475 -2 13 C-3.18771723 9.57056481 -2.80226223 7.62215325 -1.5625 4.25 C-1.27503906 3.45078125 -0.98757812 2.6515625 -0.69140625 1.828125 C-0.46324219 1.22484375 -0.23507813 0.6215625 0 0 Z " fill="#A6AA89" transform="translate(83,291)"/>
<path d="M0 0 C0.66 0 1.32 0 2 0 C1.99214478 1.01368652 1.99214478 1.01368652 1.98413086 2.04785156 C1.96331993 5.11522489 1.95032671 8.18258333 1.9375 11.25 C1.92912109 12.31347656 1.92074219 13.37695312 1.91210938 14.47265625 C1.90888672 15.49746094 1.90566406 16.52226562 1.90234375 17.578125 C1.89448853 18.99206543 1.89448853 18.99206543 1.88647461 20.43457031 C1.99031918 22.78123437 2.33293471 24.75644478 3 27 C-0.37503669 25.8141763 -2.64722731 24.72426311 -5 22 C-4.34 22 -3.68 22 -3 22 C-3.33 21.01 -3.66 20.02 -4 19 C-3.01 18.67 -2.02 18.34 -1 18 C-0.505 9.09 -0.505 9.09 0 0 Z " fill="#A7A0A0" transform="translate(179,161)"/>
<path d="M0 0 C0.56203125 0.14308594 1.1240625 0.28617187 1.703125 0.43359375 C4.04545453 1.01120902 6.39417659 1.54283307 8.75 2.0625 C9.54921875 2.23910156 10.3484375 2.41570312 11.171875 2.59765625 C11.77515625 2.73042969 12.3784375 2.86320312 13 3 C13 3.66 13 4.32 13 5 C9.68629 7.20914 8.6553979 7.22481553 4.8125 7.125 C3.91144531 7.10695313 3.01039063 7.08890625 2.08203125 7.0703125 C1.39496094 7.04710937 0.70789063 7.02390625 0 7 C0.66 5.68 1.32 4.36 2 3 C1.34 2.01 0.68 1.02 0 0 Z " fill="#A8AA8E" transform="translate(177,333)"/>
<path d="M0 0 C0.54140625 0.28617188 1.0828125 0.57234375 1.640625 0.8671875 C4.29319347 2.1407717 6.97931482 3.13546958 9.75 4.125 C10.73484375 4.47820312 11.7196875 4.83140625 12.734375 5.1953125 C13.48203125 5.46085938 14.2296875 5.72640625 15 6 C14.34 7.32 13.68 8.64 13 10 C8.8911959 9.47470631 6.74480159 8.33192009 3.6875 5.5625 C2.99011719 4.94503906 2.29273438 4.32757813 1.57421875 3.69140625 C0 2 0 2 0 0 Z " fill="#A7AC87" transform="translate(206,207)"/>
<path d="M0 0 C2.4375 0.6875 2.4375 0.6875 5 2 C5.8125 4.625 5.8125 4.625 6 7 C3.6875 7.6875 3.6875 7.6875 1 8 C-0.875 6.8125 -0.875 6.8125 -2 5 C-1.74853421 2.86254078 -1.54074221 1.54074221 0 0 Z " fill="#131214" transform="translate(82,117)"/>
<path d="M0 0 C-4.52099819 3.01399879 -7.86032065 3.12108347 -13.25 3.0625 C-14.32765625 3.05347656 -15.4053125 3.04445313 -16.515625 3.03515625 C-17.33546875 3.02355469 -18.1553125 3.01195313 -19 3 C-19 2.34 -19 1.68 -19 1 C-16.96044851 0.63384906 -14.91821752 0.28260721 -12.875 -0.0625 C-11.73804687 -0.25972656 -10.60109375 -0.45695312 -9.4296875 -0.66015625 C-6.0246108 -0.99756134 -3.32821869 -0.72330588 0 0 Z " fill="#B5B5B5" transform="translate(139,107)"/>
<path d="M0 0 C1.98 0 3.96 0 6 0 C6.33 0.99 6.66 1.98 7 3 C9.78043527 4.47301969 9.78043527 4.47301969 13.0625 5.6875 C14.71958984 6.34298828 14.71958984 6.34298828 16.41015625 7.01171875 C17.26480469 7.33785156 18.11945313 7.66398438 19 8 C19 8.33 19 8.66 19 9 C13.01035157 8.5869208 9.95094835 7.60068971 5 4 C4.236875 3.814375 3.47375 3.62875 2.6875 3.4375 C1.8521875 3.2209375 1.8521875 3.2209375 1 3 C0.67 2.01 0.34 1.02 0 0 Z " fill="#A7A39B" transform="translate(203,204)"/>
<path d="M0 0 C0.66 0 1.32 0 2 0 C2 0.99 2 1.98 2 3 C2.66 3 3.32 3 4 3 C3.67 6.3 3.34 9.6 3 13 C0.9375 11.5625 0.9375 11.5625 -1 9 C-1.05823431 5.92416977 -0.59222907 3.01264352 0 0 Z " fill="#A79BA8" transform="translate(233,200)"/>
<path d="M0 0 C0.66 0 1.32 0 2 0 C2.33 3.63 2.66 7.26 3 11 C0.69 10.67 -1.62 10.34 -4 10 C-2.68 6.7 -1.36 3.4 0 0 Z " fill="#9F93A3" transform="translate(345,235)"/>
<path d="M0 0 C0.33 0.99 0.66 1.98 1 3 C-0.1446875 3.99 -0.1446875 3.99 -1.3125 5 C-4.56776694 8.20902735 -5.61456414 11.69785705 -7 16 C-7.66 16 -8.32 16 -9 16 C-8.56438352 10.55479403 -7.40768901 7.2839519 -4 3 C-1.75 1.125 -1.75 1.125 0 0 Z " fill="#C6C6C6" transform="translate(128,88)"/>
<path d="M0 0 C0.99 0 1.98 0 3 0 C3 3.96 3 7.92 3 12 C2.01 12 1.02 12 0 12 C0 9.03 0 6.06 0 3 C-0.66 2.67 -1.32 2.34 -2 2 C-1.34 2 -0.68 2 0 2 C0 1.34 0 0.68 0 0 Z " fill="#A79BA9" transform="translate(198,96)"/>
<path d="M0 0 C0.94875 0.350625 1.8975 0.70125 2.875 1.0625 C1.885 2.5475 1.885 2.5475 0.875 4.0625 C0.215 4.0625 -0.445 4.0625 -1.125 4.0625 C-1.455 5.0525 -1.785 6.0425 -2.125 7.0625 C-2.125 6.4025 -2.125 5.7425 -2.125 5.0625 C-3.445 4.7325 -4.765 4.4025 -6.125 4.0625 C-5.75 2.125 -5.75 2.125 -5.125 0.0625 C-3.125 -0.9375 -3.125 -0.9375 0 0 Z " fill="#A7A29D" transform="translate(149.125,64.9375)"/>
<path d="M0 0 C0.33 0.66 0.66 1.32 1 2 C-0.04800781 2.25523437 -0.04800781 2.25523437 -1.1171875 2.515625 C-2.48230469 2.87914062 -2.48230469 2.87914062 -3.875 3.25 C-5.23238281 3.59804687 -5.23238281 3.59804687 -6.6171875 3.953125 C-9.14957604 4.79914179 -9.14957604 4.79914179 -10.3203125 7.109375 C-10.54460937 7.73328125 -10.76890625 8.3571875 -11 9 C-11.66 9 -12.32 9 -13 9 C-13 6 -13 6 -11.6796875 4.39453125 C-7.76268603 0.9607962 -5.46211684 -0.79933417 0 0 Z " fill="#A7A0A1" transform="translate(250,209)"/>
<path d="M0 0 C2.625 0.9375 2.625 0.9375 5 2 C4.54625 2.391875 4.0925 2.78375 3.625 3.1875 C1.72357081 5.30832487 0.93795972 7.33042235 0 10 C-1.32 9.67 -2.64 9.34 -4 9 C-3.71848913 7.68528432 -3.42446661 6.37324233 -3.125 5.0625 C-2.96257812 4.33160156 -2.80015625 3.60070312 -2.6328125 2.84765625 C-2 1 -2 1 0 0 Z " fill="#A7A695" transform="translate(133,66)"/>
<path d="M0 0 C2.31 0 4.62 0 7 0 C7 2.64 7 5.28 7 8 C6.01 8 5.02 8 4 8 C3.71125 7.236875 3.4225 6.47375 3.125 5.6875 C2.03730987 2.84970692 2.03730987 2.84970692 0 0 Z " fill="#A79FA2" transform="translate(143,54)"/>
<path d="M0 0 C3.96 0 7.92 0 12 0 C12.33 0.66 12.66 1.32 13 2 C12.67 2.66 12.34 3.32 12 4 C10.68 4 9.36 4 8 4 C7.67 4.66 7.34 5.32 7 6 C6.67 4.68 6.34 3.36 6 2 C4.02 2 2.04 2 0 2 C0 1.34 0 0.68 0 0 Z " fill="#A7A794" transform="translate(312,281)"/>
<path d="M0 0 C0.66 0 1.32 0 2 0 C2 0.66 2 1.32 2 2 C5.465 1.505 5.465 1.505 9 1 C8.67 2.65 8.34 4.3 8 6 C7.67 5.34 7.34 4.68 7 4 C6.4225 4.350625 5.845 4.70125 5.25 5.0625 C2.64198224 6.14917407 1.60582371 5.93065133 -1 5 C-0.67 3.35 -0.34 1.7 0 0 Z " fill="#A7A39A" transform="translate(116,65)"/>
<path d="M0 0 C0.66 0.66 1.32 1.32 2 2 C1.01 2.99 0.02 3.98 -1 5 C-0.34 5.66 0.32 6.32 1 7 C0.01 8.485 0.01 8.485 -1 10 C-1.66 10 -2.32 10 -3 10 C-3.33 10.99 -3.66 11.98 -4 13 C-4.49230769 5.73846154 -4.49230769 5.73846154 -2 2 C-1.34 1.34 -0.68 0.68 0 0 Z " fill="#9F9E8B" transform="translate(227,220)"/>
<path d="M0 0 C1.65 0.33 3.3 0.66 5 1 C4.67 2.65 4.34 4.3 4 6 C2.35 5.67 0.7 5.34 -1 5 C-0.67 3.35 -0.34 1.7 0 0 Z " fill="#1C1A1D" transform="translate(94,121)"/>
<path d="M0 0 C-1.65 1.65 -3.3 3.3 -5 5 C-4.67 5.66 -4.34 6.32 -4 7 C-4.99 7 -5.98 7 -7 7 C-7.93423645 3.98968256 -8.04449911 3.13349732 -7 0 C-3.86650268 -1.04449911 -3.01031744 -0.93423645 0 0 Z " fill="#A7A892" transform="translate(362,241)"/>
<path d="M0 0 C0.33 1.32 0.66 2.64 1 4 C1.66 4 2.32 4 3 4 C3.33 4.66 3.66 5.32 4 6 C4.99 5.01 5.98 4.02 7 3 C6.65120368 6.25543229 5.97866739 7.01873107 3.4375 9.25 C2.633125 9.8275 1.82875 10.405 1 11 C1 9.35 1 7.7 1 6 C0.34 6.66 -0.32 7.32 -1 8 C-0.67 5.36 -0.34 2.72 0 0 Z " fill="#A8A793" transform="translate(237,204)"/>
<path d="M0 0 C3.36720387 1.39332574 4.9859524 2.9789286 7 6 C4.69 6 2.38 6 0 6 C0 4.02 0 2.04 0 0 Z " fill="#A397A7" transform="translate(90,299)"/>
<path d="M0 0 C0.185625 0.9590625 0.185625 0.9590625 0.375 1.9375 C0.684375 2.9584375 0.684375 2.9584375 1 4 C1.66 4.33 2.32 4.66 3 5 C2.1875 7.4375 2.1875 7.4375 1 10 C0.01 10.33 -0.98 10.66 -2 11 C-1.125 3.375 -1.125 3.375 0 0 Z " fill="#95997A" transform="translate(82,293)"/>
<path d="M0 0 C3.16115776 1.36983503 3.9927092 1.9890638 6 5 C5.8125 7.125 5.8125 7.125 5 9 C4.01 9.33 3.02 9.66 2 10 C2.226875 9.4225 2.45375 8.845 2.6875 8.25 C3.27095593 5.89006205 3.27095593 5.89006205 1.5625 3.875 C1.046875 3.25625 0.53125 2.6375 0 2 C0 1.34 0 0.68 0 0 Z " fill="#9B988E" transform="translate(154,56)"/>
<path d="M0 0 C-1 2 -1 2 -3.43359375 2.88671875 C-4.42488281 3.15097656 -5.41617187 3.41523438 -6.4375 3.6875 C-7.42621094 3.95949219 -8.41492188 4.23148438 -9.43359375 4.51171875 C-12 5 -12 5 -14 4 C-13.67 3.34 -13.34 2.68 -13 2 C-11.00371336 1.6451046 -9.00309329 1.31421071 -7 1 C-6.278125 0.62875 -5.55625 0.2575 -4.8125 -0.125 C-3 -1 -3 -1 0 0 Z " fill="#A7A499" transform="translate(324,145)"/>
<path d="M0 0 C-2.22825644 2.22825644 -3.65761628 2.69239369 -6.625 3.625 C-7.44226563 3.88539062 -8.25953125 4.14578125 -9.1015625 4.4140625 C-9.72804688 4.60742188 -10.35453125 4.80078125 -11 5 C-11.33 4.01 -11.66 3.02 -12 2 C-7.8803623 0.70756464 -4.33168317 -0.26252625 0 0 Z " fill="#8BBB19" transform="translate(287,118)"/>
<path d="M0 0 C0.33 0.99 0.66 1.98 1 3 C-1.36292656 5.52588702 -2.66462511 6.88820837 -6 8 C-4.55746343 4.63408134 -2.66735273 2.48952921 0 0 Z " fill="#98CB1E" transform="translate(217,121)"/>
<path d="M0 0 C0 1.98 0 3.96 0 6 C-3.10551666 6 -4.35261084 5.4606285 -7 4 C-1.125 0 -1.125 0 0 0 Z " fill="#9B9593" transform="translate(293,292)"/>
<path d="M0 0 C0.33 0.66 0.66 1.32 1 2 C-0.26691507 2.67408308 -1.53870749 3.33900497 -2.8125 4 C-3.52019531 4.37125 -4.22789062 4.7425 -4.95703125 5.125 C-7 6 -7 6 -10 6 C-9.67 5.01 -9.34 4.02 -9 3 C-6.93359375 2.05078125 -6.93359375 2.05078125 -4.4375 1.3125 C-3.61121094 1.06113281 -2.78492188 0.80976563 -1.93359375 0.55078125 C-1.29550781 0.36902344 -0.65742188 0.18726563 0 0 Z " fill="#A7A39A" transform="translate(386,196)"/>
<path d="M0 0 C0.66 0.33 1.32 0.66 2 1 C-0.64 3.64 -3.28 6.28 -6 9 C-6.33 8.34 -6.66 7.68 -7 7 C-4.78071806 4.09197539 -3.07030857 2.04687238 0 0 Z " fill="#1F2905" transform="translate(156,30)"/>
<path d="M0 0 C0.66 0.33 1.32 0.66 2 1 C2 1.99 2 2.98 2 4 C2.66 4.33 3.32 4.66 4 5 C3.01 5 2.02 5 1 5 C0.34 6.32 -0.32 7.64 -1 9 C-1.66 8.34 -2.32 7.68 -3 7 C-2.34 7 -1.68 7 -1 7 C-1.020625 6.030625 -1.04125 5.06125 -1.0625 4.0625 C-1 1 -1 1 0 0 Z " fill="#A7A696" transform="translate(222,325)"/>
<path d="M0 0 C0.33 0.99 0.66 1.98 1 3 C-0.21484375 4.82421875 -0.21484375 4.82421875 -1.9375 6.6875 C-2.50339844 7.31011719 -3.06929687 7.93273437 -3.65234375 8.57421875 C-4.09707031 9.04472656 -4.54179687 9.51523438 -5 10 C-5.66 9.67 -6.32 9.34 -7 9 C-4.69 6.03 -2.38 3.06 0 0 Z " fill="#A7A39A" transform="translate(173,200)"/>
<path d="M0 0 C0.763125 0.20625 1.52625 0.4125 2.3125 0.625 C2.6425 1.615 2.9725 2.605 3.3125 3.625 C-0.0625 3.75 -0.0625 3.75 -3.6875 3.625 C-4.3475 2.965 -5.0075 2.305 -5.6875 1.625 C-2.6875 -0.375 -2.6875 -0.375 0 0 Z " fill="#A7A597" transform="translate(281.6875,173.375)"/>
<path d="M0 0 C6.75 0.75 6.75 0.75 9 3 C6.03 3 3.06 3 0 3 C0 2.01 0 1.02 0 0 Z " fill="#A8AF85" transform="translate(367,162)"/>
<path d="M0 0 C2.31 0 4.62 0 7 0 C7 0.66 7 1.32 7 2 C7.66 2.66 8.32 3.32 9 4 C3.46153846 3.38461538 3.46153846 3.38461538 1.125 1.4375 C0.75375 0.963125 0.3825 0.48875 0 0 Z " fill="#A7A09F" transform="translate(178,332)"/>
<path d="M0 0 C2.475 0.495 2.475 0.495 5 1 C5.66 2.98 6.32 4.96 7 7 C5.83040013 6.02433888 4.66438823 5.044375 3.5 4.0625 C2.8503125 3.51722656 2.200625 2.97195312 1.53125 2.41015625 C1.0259375 1.94480469 0.520625 1.47945312 0 1 C0 0.67 0 0.34 0 0 Z " fill="#A8AD89" transform="translate(377,205)"/>
<path d="M0 0 C1 3 1 3 -0.4375 6.1875 C-1.2109375 7.5796875 -1.2109375 7.5796875 -2 9 C-2.33 9 -2.66 9 -3 9 C-2.25 2.25 -2.25 2.25 0 0 Z " fill="#A8AC8B" transform="translate(294,158)"/>
<path d="M0 0 C0 0.66 0 1.32 0 2 C0.99 2.33 1.98 2.66 3 3 C0.42786866 4.61949011 -0.67669159 5.04408751 -3.75 4.625 C-4.4925 4.41875 -5.235 4.2125 -6 4 C-2.25 0 -2.25 0 0 0 Z " fill="#A7A498" transform="translate(126,76)"/>
<path d="M0 0 C2.4375 0.8125 2.4375 0.8125 5 2 C5.33 2.99 5.66 3.98 6 5 C4.125 5.625 4.125 5.625 2 6 C1.34 5.34 0.68 4.68 0 4 C0 2.68 0 1.36 0 0 Z " fill="#A8A596" transform="translate(152,58)"/>
<path d="M0 0 C0.99 0.33 1.98 0.66 3 1 C0.03 3.475 0.03 3.475 -3 6 C-3.66 5.34 -4.32 4.68 -5 4 C-4.67 3.34 -4.34 2.68 -4 2 C-2.68 2 -1.36 2 0 2 C0 1.34 0 0.68 0 0 Z " fill="#9B9C85" transform="translate(324,283)"/>
<path d="M0 0 C1.65 0 3.3 0 5 0 C5 2.33333333 5 4.66666667 5 7 C2.65941363 4.87219421 1.29299694 2.88437779 0 0 Z " fill="#A7A29C" transform="translate(374,203)"/>
<path d="M0 0 C1.5625 1.25 1.5625 1.25 3 3 C2.6875 5.1875 2.6875 5.1875 2 7 C0.68 6.01 -0.64 5.02 -2 4 C-1.34 4 -0.68 4 0 4 C-0.33 3.01 -0.66 2.02 -1 1 C-0.67 0.67 -0.34 0.34 0 0 Z " fill="#A7A498" transform="translate(176,179)"/>
<path d="M0 0 C5.75 0.75 5.75 0.75 8 3 C5.36 3 2.72 3 0 3 C0 2.01 0 1.02 0 0 Z " fill="#A8AE87" transform="translate(372,159)"/>
<path d="M0 0 C2.04119788 1.61594832 4.04072937 3.2856382 6 5 C6 5.66 6 6.32 6 7 C4.125 6.875 4.125 6.875 2 6 C0.75 2.9375 0.75 2.9375 0 0 Z " fill="#A8AE87" transform="translate(317,134)"/>
<path d="M0 0 C0 0.66 0 1.32 0 2 C-0.66 2 -1.32 2 -2 2 C-2.12375 2.639375 -2.2475 3.27875 -2.375 3.9375 C-2.58125 4.618125 -2.7875 5.29875 -3 6 C-3.99 6.495 -3.99 6.495 -5 7 C-4.814375 6.38125 -4.62875 5.7625 -4.4375 5.125 C-3.76313824 2.95839822 -3.76313824 2.95839822 -5 1 C-3 0 -3 0 0 0 Z " fill="#A7A597" transform="translate(303,295)"/>
<path d="M0 0 C1.32 0.99 2.64 1.98 4 3 C3.67 3.99 3.34 4.98 3 6 C2.01 6 1.02 6 0 6 C0 4.02 0 2.04 0 0 Z " fill="#A69BA7" transform="translate(83,291)"/>
<path d="M0 0 C0.33 0 0.66 0 1 0 C1.33 2.97 1.66 5.94 2 9 C1.34 9 0.68 9 0 9 C-2 6 -2 6 -1.6875 3.375 C-1 1 -1 1 0 0 Z " fill="#A7A29C" transform="translate(377,187)"/>
<path d="M0 0 C1 3 1 3 0.1875 5.625 C-1 8 -1 8 -3 9 C-3.36923077 3.46153846 -3.36923077 3.46153846 -1.5 1.125 C-1.005 0.75375 -0.51 0.3825 0 0 Z " fill="#A7A19E" transform="translate(289,176)"/>
<path d="M0 0 C0.33 0 0.66 0 1 0 C1.05399736 1.45792884 1.09279177 2.91642712 1.125 4.375 C1.14820313 5.18710938 1.17140625 5.99921875 1.1953125 6.8359375 C1 9 1 9 -1 11 C-1.14285714 3.57142857 -1.14285714 3.57142857 0 0 Z " fill="#000000" transform="translate(327,211)"/>
<path d="M0 0 C0 0.99 0 1.98 0 3 C-0.99 3.495 -0.99 3.495 -2 4 C-1.34 2.68 -0.68 1.36 0 0 Z " fill="#000000" transform="translate(312,258)"/>
<path d="M0 0 C0 0.99 0 1.98 0 3 C-0.66 2.67 -1.32 2.34 -2 2 C-1.34 1.34 -0.68 0.68 0 0 Z " fill="#000000" transform="translate(304,263)"/>
<path d="M0 0 C0 0.99 0 1.98 0 3 C-0.66 2.34 -1.32 1.68 -2 1 C-1.34 0.67 -0.68 0.34 0 0 Z " fill="#000000" transform="translate(324,235)"/>
<path d="M0 0 C0.99 1.485 0.99 1.485 2 3 C1.34 3 0.68 3 0 3 C0 2.01 0 1.02 0 0 Z " fill="#000000" transform="translate(310,199)"/>
<path d="" fill="#000000" transform="translate(0,0)"/>
<path d="M0 0 C0.66 0 1.32 0 2 0 C1.67 0.66 1.34 1.32 1 2 C0.67 1.34 0.34 0.68 0 0 Z " fill="#000000" transform="translate(315,204)"/>
<path d="" fill="#000000" transform="translate(0,0)"/>
<path d="" fill="#000000" transform="translate(0,0)"/>
<path d="M0 0 C2 1 2 1 2 1 Z " fill="#000000" transform="translate(310,192)"/>
<path d="" fill="#000000" transform="translate(0,0)"/>
<path d="" fill="#000000" transform="translate(0,0)"/>
<path d="" fill="#000000" transform="translate(0,0)"/>
<path d="" fill="#000000" transform="translate(0,0)"/>
<path d="" fill="#000000" transform="translate(0,0)"/>
<path d="" fill="#000000" transform="translate(0,0)"/>
<path d="" fill="#000000" transform="translate(0,0)"/>
<path d="" fill="#000000" transform="translate(0,0)"/>
<path d="" fill="#000000" transform="translate(0,0)"/>
<path d="" fill="#000000" transform="translate(0,0)"/>
<path d="" fill="#000000" transform="translate(0,0)"/>
<path d="" fill="#000000" transform="translate(0,0)"/>
<path d="" fill="#000000" transform="translate(0,0)"/>
<path d="" fill="#000000" transform="translate(0,0)"/>
<path d="" fill="#000000" transform="translate(0,0)"/>
</svg>
