<?xml version="1.0" encoding="UTF-8"?>
<svg version="1.1" xmlns="http://www.w3.org/2000/svg" width="412" height="350">
<path d="M0 0 C4.7800458 0.1086374 6.74765297 1.64080475 10.2097168 4.73583984 C17.57090322 9.93374292 28.38503215 9.59064948 37 10 C48.29850782 10.53686214 59.50808739 11.2765619 69 18 C70.9375 20.75 70.9375 20.75 72 23 C72.99 21.515 72.99 21.515 74 20 C74.66 20 75.32 20 76 20 C76.33 19.01 76.66 18.02 77 17 C88.360392 8.97389496 101.23412118 9.91702463 114.38671875 10.6953125 C120.00813429 11.01990867 125.6197628 11.19054873 131.25 11.25 C132.09425537 11.2711084 132.93851074 11.2922168 133.80834961 11.31396484 C143.79288123 11.37150114 150.60268477 7.94925504 158.5625 2.125 C161 1 161 1 163.75 1.5 C166 3 166 3 167.0625 5.25 C166.92167439 11.44632683 161.5714319 15.62184551 157.390625 19.6796875 C156.93171875 20.11539062 156.4728125 20.55109375 156 21 C157.175625 21.35964844 157.175625 21.35964844 158.375 21.7265625 C161 23 161 23 162.1875 24.9609375 C162.5896875 26.15589844 162.5896875 26.15589844 163 27.375 C163.47373047 28.70144531 163.47373047 28.70144531 163.95703125 30.0546875 C164.30121094 31.02664062 164.64539063 31.99859375 165 33 C165.8828577 35.17198621 166.77872487 37.33872964 167.6875 39.5 C168.10386719 40.5003125 168.52023438 41.500625 168.94921875 42.53125 C169.59108726 44.03928307 170.26703903 45.53407806 171 47 C173.48045261 40.79886847 175.22140535 34.55497859 176.83984375 28.07421875 C178.09846799 24.7390764 178.78187433 23.50255957 182 22 C185.39538363 22.03188154 186.62975585 22.62904521 189.03515625 25.0390625 C190.03869141 26.31910156 190.03869141 26.31910156 191.0625 27.625 C202.03507956 40.36265455 217.80279841 44.65583389 234 46 C249.36142511 46.84947973 267.20211899 45.09466438 280 36 C282.625 34.5625 282.625 34.5625 285 34 C287.3125 35.0625 287.3125 35.0625 289 37 C289.78046718 41.23682185 288.26830557 43.50302892 286 47 C286 47.66 286 48.32 286 49 C300.31852315 57.13764222 314.14505461 57.10475432 330 54 C331.36104647 53.60638726 332.71723641 53.19457209 334.0625 52.75 C337 52 337 52 339.4375 52.875 C339.953125 53.24625 340.46875 53.6175 341 54 C341.375 56.75 341.375 56.75 341 60 C338.4375 62.125 338.4375 62.125 335 64 C333.7706212 64.72880895 332.5414527 65.45797276 331.3125 66.1875 C328 68 328 68 325 69 C325 69.66 325 70.32 325 71 C303.12636657 88.65107115 275.22417234 101.85121496 250 114 C248.66536713 114.66406123 247.33137449 115.32942996 246 116 C247.50240234 115.58427734 247.50240234 115.58427734 249.03515625 115.16015625 C250.37754409 114.79405048 251.71999543 114.42817749 253.0625 114.0625 C253.71927734 113.88009766 254.37605469 113.69769531 255.05273438 113.50976562 C270.28616897 109.38248039 284.57019457 110.16007121 298.8515625 117.04296875 C301.06183531 118.02754482 303.23370254 118.66472869 305.5625 119.3125 C317.4998504 123.35346836 323.46956015 135.4135975 329 146 C336.50479784 161.60313867 338.55888661 184.66177966 334.0859375 201.42578125 C327.846677 219.14612996 315.86017374 233.86903057 304.20703125 248.30078125 C302.80463464 250.10011928 302.80463464 250.10011928 302 253 C300.40625 254.53515625 300.40625 254.53515625 298.5 256.0625 C295.81893599 258.17721767 295.81893599 258.17721767 294 261 C293.34 261 292.68 261 292 261 C291.690625 261.79664063 291.690625 261.79664063 291.375 262.609375 C289.42038808 266.00773436 286.77876283 268.51055928 284 271.25 C283.4534375 271.80429687 282.906875 272.35859375 282.34375 272.9296875 C278.2533867 277 278.2533867 277 276 277 C276 277.66 276 278.32 276 279 C274.30096977 280.51740976 272.53927277 281.965128 270.75 283.375 C267.94686688 285.59229313 265.26298803 287.7305752 262.765625 290.2890625 C261 292 261 292 259 292 C259 292.66 259 293.32 259 294 C256.99622308 295.75406612 254.98753089 297.38544857 252.875 299 C252.24118408 299.48911865 251.60736816 299.9782373 250.9543457 300.48217773 C248.977253 301.99856015 246.99075454 303.50160924 245 305 C244.41814941 305.43973145 243.83629883 305.87946289 243.23681641 306.33251953 C192.3163632 344.54129284 135.46001735 348.50007597 74 348 C74 347.34 74 346.68 74 346 C73.39704102 345.9582666 72.79408203 345.9165332 72.17285156 345.87353516 C65.7965086 345.34606675 59.88778753 344.15854726 53.75 342.375 C52.38464111 341.98066772 52.38464111 341.98066772 50.99169922 341.57836914 C40.54737888 338.43474491 30.4481513 334.04012608 22 327 C22 326.34 22 325.68 22 325 C21.34 325 20.68 325 20 325 C19.731875 326.0725 19.46375 327.145 19.1875 328.25 C18.13882569 331.56160307 17.37247839 333.52866834 15 336 C14.34 336 13.68 336 13 336 C12.67 336.99 12.34 337.98 12 339 C5.72884589 343.7173637 -1.21561555 345.47995821 -8.875 346.3125 C-11 346 -11 346 -12.8125 344.8125 C-14.43636137 342.33397476 -14.29972308 340.93813046 -14 338 C-12.609375 335.38671875 -12.609375 335.38671875 -10.75 332.6875 C-4.44892481 323.46477243 -1.76130795 314.78789676 0.5625 304 C5.08624749 283.25549403 5.08624749 283.25549403 8.75 278.9375 C12.27802038 277.46749151 14.3464329 277.94727728 18 279 C20.60315876 280.74219185 22.93735135 282.63641781 25 285 C25 285.66 25 286.32 25 287 C25.66 287 26.32 287 27 287 C28.2375 288.5159375 28.2375 288.5159375 29.5 290.0625 C34.96210222 296.60646788 41.76589436 300.50871661 49.5 303.875 C52.59375 305.328125 52.59375 305.328125 55 307 C55.82923127 309.37160143 55.98490406 311.4525579 56.203125 313.9453125 C56.85572975 316.27405516 56.85572975 316.27405516 59.546875 317.4296875 C89.65996213 327.4918654 127.49522649 320.07950933 157 311 C158.11455566 310.66307129 159.22911133 310.32614258 160.37744141 309.97900391 C178.9619852 304.30795305 178.9619852 304.30795305 196.04638672 295.25048828 C198.44797201 293.71325761 200.8947417 292.2625031 203.34765625 290.80859375 C215.27219378 283.71536238 226.87958296 276.30556671 238 268 C238.90105469 267.32710938 239.80210937 266.65421875 240.73046875 265.9609375 C243.11080042 263.90426539 244.84058133 261.79003197 246.6875 259.25 C248.44921875 256.828125 248.44921875 256.828125 250 255 C250.66 255 251.32 255 252 255 C254.05095897 252.63285247 254.05095897 252.63285247 256.125 249.6875 C256.84945313 248.70136719 257.57390625 247.71523437 258.3203125 246.69921875 C260.26417063 244.10534588 260.26417063 244.10534588 260 241 C259.34 240.01 258.68 239.02 258 238 C259.98 237.67 261.96 237.34 264 237 C264 236.01 264 235.02 264 234 C264.96411133 232.28881836 264.96411133 232.28881836 266.26953125 230.40234375 C269.12598794 225.99532545 270.93919883 221.49677141 272.6875 216.5625 C272.98205078 215.76779297 273.27660156 214.97308594 273.58007812 214.15429688 C277.0643481 204.53144788 280.38536535 193.57295601 277.1953125 183.4453125 C274.27847098 177.47081641 269.96448659 173.83871287 264 171 C260.39597741 170.09899435 258.87230669 170.48373686 255.703125 172.359375 C254.09609683 173.43413906 252.51113807 174.54283734 250.953125 175.6875 C249 177 249 177 247 177 C247 177.66 247 178.32 247 179 C246.34 179 245.68 179 245 179 C245 179.66 245 180.32 245 181 C244.34 181 243.68 181 243 181 C242.731875 181.598125 242.46375 182.19625 242.1875 182.8125 C240.99427577 185.01054464 239.75321129 186.24678871 238 188 C236.97862543 189.65365406 235.98387706 191.32376502 235 193 C233.02445291 196.01642674 231.01172995 199.00762175 229 202 C228.34 202.99 227.68 203.98 227 205 C227.65226562 205.51046875 228.30453125 206.0209375 228.9765625 206.546875 C236.63904934 212.9209791 241.88040885 219.35146902 243.5703125 229.38671875 C244.22125935 242.02357818 238.97297484 252.39230417 231.02734375 261.9140625 C228.81233596 264.19308786 226.59644817 266.16450765 224 268 C219.70731707 267.70731707 219.70731707 267.70731707 218 266 C218.0059542 264.33282321 218.05559408 262.66574209 218.125 261 C218.16017835 255.60364114 217.67673447 250.7752943 215 246 C212.74303573 244.41387499 212.74303573 244.41387499 210 244 C208.3603125 243.443125 208.3603125 243.443125 206.6875 242.875 C205.800625 242.58625 204.91375 242.2975 204 242 C203.814375 243.216875 203.62875 244.43375 203.4375 245.6875 C200.23562008 259.82913633 190.52255919 271.62989527 178.6015625 279.47265625 C165.78026704 286.99987325 150.44144207 292.42231198 135.515625 288.859375 C127.61654203 286.16093051 119.60891299 281.98065207 115.625 274.375 C115 272 115 272 116 269 C118.4796978 267.7601511 120.62894736 267.87678175 123.35888672 267.81030273 C130.53093466 267.60830777 135.88599688 266.82414085 142.1796875 263.05859375 C144 262 144 262 146 262 C146 261.34 146 260.68 146 260 C147.65002828 258.64613064 149.3174387 257.31321858 151 256 C151.33 255.34 151.66 254.68 152 254 C151.21496094 254.20496094 150.42992187 254.40992188 149.62109375 254.62109375 C148.57050781 254.89050781 147.51992187 255.15992188 146.4375 255.4375 C145.40496094 255.70433594 144.37242187 255.97117187 143.30859375 256.24609375 C136.27538632 257.84870182 129.55245793 258.15515739 122.375 258.125 C120.9828125 258.13080078 120.9828125 258.13080078 119.5625 258.13671875 C118.21285156 258.13478516 118.21285156 258.13478516 116.8359375 258.1328125 C115.62236572 258.13112061 115.62236572 258.13112061 114.38427734 258.12939453 C111.84443362 257.99155743 109.47946859 257.5547267 107 257 C106.67 257.66 106.34 258.32 106 259 C105.67 258.01 105.34 257.02 105 256 C103.03717186 255.57939397 101.07142018 255.17055594 99.09765625 254.8046875 C92.15267332 253.00056835 85.58080133 249.82574018 79 247 C79.44617676 247.79664063 79.44617676 247.79664063 79.90136719 248.609375 C80.27938477 249.31578125 80.65740234 250.0221875 81.046875 250.75 C81.42682617 251.44609375 81.80677734 252.1421875 82.19824219 252.859375 C83.52996319 256.41495653 82.42257709 258.58581497 81 262 C79 262.8125 79 262.8125 76 263 C73.09986641 261.65982736 70.44713255 260.05850604 68 258 C68 257.34 68 256.68 68 256 C67.12214844 255.66935547 67.12214844 255.66935547 66.2265625 255.33203125 C63.30243313 253.58268368 62.1518667 251.57980064 60.375 248.6875 C59.48941406 247.27017578 59.48941406 247.27017578 58.5859375 245.82421875 C54.55045809 238.63788472 54.85162656 232.92193186 55.078125 224.8359375 C55.17055518 219.44417683 54.79740728 215.0973347 53 210 C43.98356543 219.76055425 43.98356543 219.76055425 38 231.4375 C36.370087 235.82676779 36.370087 235.82676779 33.0625 237.375 C29.12860036 236.893298 27.68119569 235.90462866 25 233 C20.41265212 221.86846355 22.74983558 209.84014061 27 199 C27.27714844 198.26265625 27.55429688 197.5253125 27.83984375 196.765625 C33.05254721 184.75478753 44.50544645 176.54360805 56 171 C57.65977126 170.63387399 59.32465952 170.2865714 61 170 C62.08742694 167.78566059 62.08742694 167.78566059 63 165 C64.57010474 162.58483888 66.27735827 160.31196653 68 158 C67.35160156 158.16008545 66.70320312 158.3201709 66.03515625 158.48510742 C62.16720779 159.14127725 58.34944228 159.20153917 54.4375 159.23828125 C53.60976074 159.246353 52.78202148 159.25442474 51.92919922 159.26274109 C50.17759263 159.27654129 48.42595961 159.28728153 46.67431641 159.29516602 C44.90567997 159.3066297 43.13707658 159.32699148 41.36865234 159.35668945 C28.71795363 159.56875867 16.68971879 159.61004284 6.125 151.625 C-1.0747271 144.58467645 -5.98604867 134.05289582 -6.375 124 C-6.24003433 113.85058143 -1.3957127 106.14267786 4.625 98.3203125 C8.36073019 93.28673811 11.39397732 87.76543328 14.52368164 82.34375 C17.51697899 77.22765762 20.76318299 72.53256844 24.48217773 67.91455078 C26.14744384 65.86791557 26.14744384 65.86791557 28 63 C28.66 63 29.32 63 30 63 C30.33 62.01 30.66 61.02 31 60 C27.75360231 60 25.74934708 60.69558908 22.6875 61.75 C-1.13226107 69.19367533 -27.67232479 71.66504745 -51 61 C-57.79033647 56.72157747 -63.40155568 51.7623019 -66 44 C-66.64611397 37.2955187 -67.04387237 30.69137593 -63 25 C-62.566875 24.38125 -62.13375 23.7625 -61.6875 23.125 C-59.06646306 21.37764204 -57.06222655 21.61722168 -54 22 C-51.8044225 23.54503602 -50.94740822 25.09323089 -49.625 27.4375 C-45.67366701 33.66844817 -38.63357749 36.8223632 -31.6484375 38.59765625 C-15.45895308 41.0571207 0.02537016 36.83756757 15 31 C14.41992188 30.68289062 13.83984375 30.36578125 13.2421875 30.0390625 C4.34854845 24.72636063 -0.16768462 16.82980043 -3 7 C-2.77128348 3.49301338 -2.49159518 2.49159518 0 0 Z M150 25 C147.9600281 26.36323743 147.9600281 26.36323743 146 28 C146 28.66 146 29.32 146 30 C144.67741528 30.68774405 143.34013497 31.34711373 142 32 C140.98478271 32.51344971 139.96956543 33.02689941 138.92358398 33.5559082 C134.54401443 35.41426705 130.48402904 35.38202783 125.78515625 35.29296875 C124.92941513 35.28872391 124.07367401 35.28447906 123.19200134 35.28010559 C120.4818358 35.26342789 117.77243752 35.22579705 115.0625 35.1875 C113.2155056 35.17243902 111.36849944 35.1587531 109.52148438 35.14648438 C105.01403116 35.11356026 100.50714528 35.06185469 96 35 C98.73366635 36.38487659 101.47265158 37.59993705 104.3125 38.75 C112.53823467 42.45225374 116.62254767 47.54692164 121.23828125 55.19140625 C122.91490191 57.86433365 124.71540068 60.29013198 126.6875 62.75 C129.55783037 66.33791296 131.84357291 69.94591708 134 74 C136.6057878 71.3942122 137.23461444 68.95970121 138.4609375 65.48046875 C138.6927774 64.82605301 138.92461731 64.17163727 139.16348267 63.49739075 C139.65531679 62.10541574 140.14436733 60.71245456 140.63085938 59.31860352 C141.35959743 57.23161058 142.096924 55.14782642 142.8359375 53.06445312 C144.25293002 49.05267157 145.6388786 45.03107152 147 41 C147.21499146 40.3633844 147.42998291 39.7267688 147.65148926 39.07086182 C148.25075818 37.27638109 148.83283521 35.47618652 149.4140625 33.67578125 C149.74615723 32.65009033 150.07825195 31.62439941 150.42041016 30.56762695 C151.25478084 27.90208102 151.25478084 27.90208102 150 25 Z M217.80639648 126.27148438 C213.85951199 128.1502317 209.88360843 129.92291409 205.85913086 131.62890625 C190.03567401 138.36373794 174.6865028 146.91771192 166.5625 162.8125 C165.74970181 165.15331448 165.74970181 165.15331448 167 168 C177.0735611 163.67181595 186.18596867 158.51471881 195 152 C194.34 151.34 193.68 150.68 193 150 C192.875 147.375 192.875 147.375 193 145 C193.721875 145.53625 194.44375 146.0725 195.1875 146.625 C197.86913362 148.32528942 197.86913362 148.32528942 200.37890625 147.31640625 C203.17763361 145.9107861 205.34360778 144.31389483 207.75 142.3125 C211.88155125 138.90676181 216.087106 135.64108031 220.3828125 132.4453125 C220.91648437 131.96835938 221.45015625 131.49140625 222 131 C222 130.34 222 129.68 222 129 C222.72316406 128.73058594 223.44632812 128.46117187 224.19140625 128.18359375 C226.96634291 127.01418373 229.38188518 125.64916133 231.9375 124.0625 C235.55911068 121.84839123 239.16544372 119.81636876 243 118 C235.68000857 115.56000286 224.59095084 123.03814452 217.80639648 126.27148438 Z " fill="#030401" transform="translate(69,2)"/>
<path d="M0 0 C3.64935604 3.89264644 3.42837191 8.18378653 3.3046875 13.26171875 C2.8866585 17.01862038 1.77132601 19.67876374 0 23 C-1.134375 22.814375 -2.26875 22.62875 -3.4375 22.4375 C-4.613125 22.293125 -5.78875 22.14875 -7 22 C-7.495 22.495 -7.495 22.495 -8 23 C-10.01836012 23.16004618 -12.0401542 23.2774816 -14.0625 23.375 C-22.79817625 24.00580376 -28.53207567 26.01716999 -35 32 C-34.484375 31.731875 -33.96875 31.46375 -33.4375 31.1875 C-32.2309375 30.5996875 -32.2309375 30.5996875 -31 30 C-30.030625 29.46375 -29.06125 28.9275 -28.0625 28.375 C-23.51186336 26.3853277 -18.90862332 26.95941729 -14.0390625 27.09375 C-10.39527611 26.98134528 -8.0425784 25.97356437 -5 24 C-4.34 24 -3.68 24 -3 24 C-3.62775567 25.35208914 -4.30419733 26.68163705 -5 28 C-5.350625 28.721875 -5.70125 29.44375 -6.0625 30.1875 C-9.16141763 33.08648746 -12.89278258 32.82778963 -17 33 C-16.67257813 33.60328125 -16.34515625 34.2065625 -16.0078125 34.828125 C-14.82576973 37.37547299 -14.84578447 39.22412038 -15 42 C-14.566875 41.505 -14.13375 41.01 -13.6875 40.5 C-12 39 -12 39 -9 39 C-9.53153424 42.95107118 -11.30061905 44.55649937 -14.25 47.125 C-15.40242188 48.14980469 -15.40242188 48.14980469 -16.578125 49.1953125 C-21.00898034 52.49701438 -24.52080625 53.25484622 -30 53 C-30 52.34 -30 51.68 -30 51 C-30.66 51 -31.32 51 -32 51 C-34 48 -34 48 -34 44 C-35.65 44 -37.3 44 -39 44 C-39 42.35 -39 40.7 -39 39 C-39.66 43.95 -40.32 48.9 -41 54 C-29.48983347 55.6443095 -19.08061829 55.69353943 -8 52 C-7.90203125 53.09957031 -7.8040625 54.19914062 -7.703125 55.33203125 C-6.33038812 71.54818315 -6.33038812 71.54818315 2 85 C7.99825922 89.62365815 13.56795278 89.85794147 21 89 C25.39389346 87.43075234 27.79056907 85.29102664 31 82 C30.9685791 82.86782104 30.9685791 82.86782104 30.93652344 83.75317383 C30.22121811 99.36739497 30.22121811 99.36739497 35 114 C35.5775 115.134375 36.155 116.26875 36.75 117.4375 C40.27623031 121.45348451 44.29806088 123.62156802 49.63037109 124.3684082 C52.53458981 124.50106378 55.40602511 124.49673782 58.3125 124.4375 C59.28123047 124.44458984 60.24996094 124.45167969 61.24804688 124.45898438 C80.94043656 124.28820314 97.62092004 114.33975534 113 103 C114.06089844 102.23429687 115.12179687 101.46859375 116.21484375 100.6796875 C121.53606601 96.77792401 126.61970667 92.66754423 131.625 88.375 C149.23846552 73.34635767 168.19614772 64.1221131 191.81054688 65.73681641 C200.65775673 66.80029681 208.00049443 70.71465906 215 76 C216.10988281 76.23332031 217.21976562 76.46664062 218.36328125 76.70703125 C223.17701865 78.41846742 224.63577261 80.77893858 227.25 85 C227.67023438 85.62261719 228.09046875 86.24523437 228.5234375 86.88671875 C237.51396234 100.82485945 240.71110227 124.68215916 238 141 C232.23001413 162.85173092 213.86471151 181.84964469 199.36962891 198.43066406 C198.13897165 199.84076474 196.91843528 201.25968318 195.69921875 202.6796875 C185.59735741 214.24050139 173.75780124 224.1747259 162 234 C161.40461426 234.50031738 160.80922852 235.00063477 160.19580078 235.51611328 C125.38201323 264.62272254 81.28915411 283.01279128 35.51953125 283.203125 C34.43024826 283.20882507 33.34096527 283.21452515 32.21867371 283.22039795 C29.91670691 283.22980618 27.61472691 283.23636523 25.31274414 283.24023438 C21.86774668 283.24984586 18.42337109 283.28087088 14.97851562 283.3125 C-10.90053213 283.43768367 -39.11334988 281.84211393 -59.9375 264.5625 C-62.62186173 261.22738391 -64.84555822 257.69463846 -67 254 C-69.43717258 254.27034634 -69.43717258 254.27034634 -72 255 C-74.10479172 258.15718758 -74.85978609 260.67534934 -75.875 264.3125 C-77.36141706 269.23797055 -78.56475182 273.14835811 -82 277 C-84.75 278.375 -84.75 278.375 -87 279 C-86.10615558 276.2439797 -85.20517974 273.50659423 -84.1171875 270.8203125 C-81.42084787 264.00515485 -79.85063573 257.16675578 -78.48291016 249.98950195 C-77.41166153 244.48456995 -75.89389926 239.27838923 -74 234 C-70.12370846 237.23024295 -66.4549961 240.50584216 -62.9375 244.125 C-59.83163954 247.28534924 -56.7936729 249.72379626 -53 252 C-53.515625 252.391875 -54.03125 252.78375 -54.5625 253.1875 C-56.29857021 254.94444163 -56.29857021 254.94444163 -55.75 257.5 C-54.89596971 261.39044345 -54.89596971 261.39044345 -52.25 264 C-51.5075 264.33 -50.765 264.66 -50 265 C-49.278125 265.4846875 -48.55625 265.969375 -47.8125 266.46875 C-44.45870371 268.29470576 -41.50786343 268.85049274 -37.75 269.5 C-32.65442717 270.42590438 -27.78862864 271.53677726 -22.9296875 273.3515625 C3.12269134 282.10600559 44.66780604 274.21146601 69 264 C71.31002421 263.0978017 73.62228037 262.201281 75.9375 261.3125 C76.95328125 260.91417969 77.9690625 260.51585937 79.015625 260.10546875 C82.04587463 258.98300717 85.08831312 258.03856628 88.1875 257.125 C125.57366846 245.81906231 164.58424442 221.74185253 184 187 C190.0055507 175.1618159 194.3515735 162.7369175 198 150 C198.33 149.01 198.66 148.02 199 147 C200.00222284 136.99172661 200.58550501 126.19600382 194 118 C188.10358988 111.53783624 181.43179585 106.93087509 172.5625 106.375 C163.92110937 106.7216118 158.42361198 112.24062808 152.73828125 118.2265625 C150.95235417 120.04860945 149.07778165 121.67170122 147.125 123.3125 C141.6496607 128.03590683 137.02907897 133.51239073 132.296875 138.9609375 C130.54013809 140.98203773 128.77414378 142.99414543 127 145 C126.56284668 145.49435547 126.12569336 145.98871094 125.67529297 146.49804688 C119.5780878 153.35561899 113.58415148 159.73322814 106 165 C105.73445312 164.35546875 105.46890625 163.7109375 105.1953125 163.046875 C104.80085937 162.37140625 104.40640625 161.6959375 104 161 C100.94091587 160.18415432 100.94091587 160.18415432 98 160 C96.68762295 163.93713115 97.17673027 166.44617433 98.8984375 170.1953125 C100.1164802 172.19082926 101.52936778 173.60758467 103.1875 175.25 C106.46424232 178.96309243 106.93107937 182.01277082 106.6484375 186.8984375 C104.16704116 198.76728505 96.76414076 209.00548009 86.8125 215.6875 C77.29713709 221.42296702 68.15195174 225.12741405 57 225.1875 C55.80375 225.20167969 54.6075 225.21585938 53.375 225.23046875 C50.12304792 225.00840258 47.91729469 224.39787037 45 223 C47.87747826 221.08168116 50.26748751 220.15689921 53.5 219 C61.13523399 215.85498867 67.93966213 210.93545819 72.3515625 203.8203125 C74.12073146 199.57100013 74.62334304 195.51923702 74 191 C72.08869773 186.40848076 69.6426673 182.13020801 67.1875 177.8125 C65.664378 174.20510578 65.445368 171.88242397 66 168 C67.125 166.3984375 67.125 166.3984375 68.5 164.875 C71.22638322 162.27256774 71.22638322 162.27256774 71.375 159.1875 C71.22173484 157.0292466 71.22173484 157.0292466 70 156 C67.59509594 155.59834 67.59509594 155.59834 65 156 C63.14112577 157.61117572 63.14112577 157.61117572 61.75 159.8125 C60.99976563 160.87404297 60.99976563 160.87404297 60.234375 161.95703125 C57.52192659 166.44630505 57.39132361 170.90633969 58 176 C58.85135422 178.46118766 59.86341722 180.72683445 61.02734375 183.0546875 C62 185 62 185 63 188 C61.60721983 188.65239158 60.21060788 189.29660552 58.8125 189.9375 C58.03519531 190.29714844 57.25789062 190.65679687 56.45703125 191.02734375 C43.38314016 196.20285867 22.88572474 194.85690635 9.796875 190.22265625 C5.43297008 188.31497156 1.15334987 186.33506306 -3 184 C-2.62488281 183.5875 -2.24976563 183.175 -1.86328125 182.75 C5.51662199 174.42204873 10.69605283 166.6008805 10 155 C8.93354885 153.70366379 8.93354885 153.70366379 6.4375 153.9375 C5.2309375 153.9684375 5.2309375 153.9684375 4 154 C3.79246094 154.83402344 3.58492188 155.66804687 3.37109375 156.52734375 C0.61979685 166.57706005 -3.21756032 173.02484454 -11.3125 179.5625 C-15.46271918 182.98221639 -16.26176616 185.7400839 -17 191 C-21.30728733 186.98891581 -24.20184386 181.97388317 -24.4375 176 C-23.81132176 165.65795934 -17.62446357 158.23423682 -10.25 151.5 C-6.29230769 148 -6.29230769 148 -4 148 C-3.95745644 146.00045254 -3.95919217 143.99958364 -4 142 C-5.036348 140.75590977 -5.036348 140.75590977 -7.28125 140.7421875 C-12.74099631 141.25992206 -17.05797517 145.88850603 -20.65625 149.80078125 C-21.7916324 151.18370342 -22.8991006 152.58947264 -24 154 C-24.33 154 -24.66 154 -25 154 C-25 148.72 -25 143.44 -25 138 C-26.44375 138.0825 -27.8875 138.165 -29.375 138.25 C-30.18710938 138.29640625 -30.99921875 138.3428125 -31.8359375 138.390625 C-34.15507229 138.77489108 -34.15507229 138.77489108 -35.09765625 140.85546875 C-35.54431641 141.91701172 -35.54431641 141.91701172 -36 143 C-37.41015625 144.53515625 -37.41015625 144.53515625 -39.0625 146.0625 C-43.03969797 149.90657001 -46.44448681 154.12655804 -49.88671875 158.44921875 C-51.81601282 160.77792306 -53.82431521 162.90289525 -56 165 C-56.42256241 155.2437797 -53.00564756 145.303774 -46.7421875 137.7421875 C-43.44856856 134.44856856 -39.77573956 131.7116675 -36 129 C-34.93072266 128.18015625 -34.93072266 128.18015625 -33.83984375 127.34375 C-29.87404851 124.44728808 -25.77796407 124.90811608 -21 125 C-20.62875 124.01 -20.62875 124.01 -20.25 123 C-17.91087053 117.38608926 -15.28939427 112.33349103 -11.75 107.375 C-9.2770088 103.78978412 -8.31400534 101.45896528 -9 97 C-15.10229131 94.86951362 -20.7265632 94.68972065 -27.15625 94.65625 C-28.21734985 94.6416272 -29.27844971 94.62700439 -30.3717041 94.61193848 C-33.74776494 94.56563325 -37.12376891 94.5313194 -40.5 94.5 C-44.94813026 94.4587372 -49.39585562 94.40504553 -53.84375 94.34375 C-54.85747681 94.3384729 -55.87120361 94.3331958 -56.91564941 94.32775879 C-65.54664662 94.20689071 -71.61735999 93.38264001 -78 87 C-80.1171875 83.6953125 -80.1171875 83.6953125 -81.875 80.125 C-82.47054687 78.95195312 -83.06609375 77.77890625 -83.6796875 76.5703125 C-86.13076239 69.94225792 -85.06768111 64.91892386 -82.38671875 58.64453125 C-80.39418818 54.84469126 -77.81864815 51.59822598 -75.21484375 48.19921875 C-72.12166821 43.73129852 -69.71114206 38.97523436 -67.3215332 34.10131836 C-63.69742368 26.88939951 -58.66883141 21.66883141 -53 16 C-52.46117187 15.33097656 -51.92234375 14.66195312 -51.3671875 13.97265625 C-38.78456433 -1.42657922 -18.48434568 -10.4976125 0 0 Z " fill="#AAE224" transform="translate(157,57)"/>
<path d="M0 0 C0.52311768 0.39759521 1.04623535 0.79519043 1.58520508 1.20483398 C23.05567132 17.43305775 46.18559229 21.78523777 72.73046875 18.48828125 C73.80941406 18.32714844 74.88835937 18.16601562 76 18 C72.48470453 21.73091768 68.97744239 24.53769116 64.625 27.3125 C63.54476562 28.00988281 62.46453125 28.70726563 61.3515625 29.42578125 C50.70301502 35.87348879 39.70695487 41.16142475 28.1920166 45.84338379 C-14.6070668 63.14174085 -14.6070668 63.14174085 -43 98 C-43.45375 98.928125 -43.9075 99.85625 -44.375 100.8125 C-48.86564321 111.07682735 -49.80559165 121.95283836 -51 133 C-56.83489888 127.69988727 -58.61816059 122.2959466 -59.1796875 114.5078125 C-59.18622452 112.67090987 -59.10381011 110.83397859 -59 109 C-58.39414063 108.74734375 -57.78828125 108.4946875 -57.1640625 108.234375 C-54.68233908 106.81880713 -53.85736499 105.66907416 -52.375 103.25 C-49.79503768 99.19206931 -47.06853915 95.2692843 -44.25 91.375 C-35.16776564 78.70239396 -26.89974185 66.00773156 -20 52 C-19.64083496 51.27844727 -19.28166992 50.55689453 -18.91162109 49.81347656 C-11.04174274 33.80514745 -5.59205395 16.9005697 0 0 Z " fill="#A497A9" transform="translate(254,38)"/>
<path d="M0 0 C0.54011719 0.2784375 1.08023438 0.556875 1.63671875 0.84375 C13.04781547 6.4266998 23.33471123 9.27626921 36 10 C32.40003864 14.09915601 28.08493982 16.57471542 23.4375 19.3125 C22.57415039 19.82522461 21.71080078 20.33794922 20.82128906 20.86621094 C5.93508867 29.64095894 -9.16454017 38.15303219 -24.5625 46 C-25.20477539 46.33225586 -25.84705078 46.66451172 -26.50878906 47.00683594 C-27.97522215 47.73635973 -29.48438005 48.37909169 -31 49 C-31.66 48.67 -32.32 48.34 -33 48 C-32.27554687 47.49210937 -31.55109375 46.98421875 -30.8046875 46.4609375 C-22.82300458 40.87204179 -22.82300458 40.87204179 -16 34 C-15.41231617 31.28528995 -15.41231617 31.28528995 -16 29 C-16.33 28.67 -16.66 28.34 -17 28 C-21.00133725 28.33344477 -24.2962143 29.07423267 -28.02734375 30.53515625 C-33.55423018 32.41445623 -38.77903258 32.33677547 -44.5625 32.1875 C-45.57119141 32.17396484 -46.57988281 32.16042969 -47.61914062 32.14648438 C-50.08000621 32.11149576 -52.53970335 32.06241158 -55 32 C-52.86259661 29.86259661 -51.61489729 29.35702806 -48.80859375 28.37109375 C-47.95426758 28.06292725 -47.09994141 27.75476074 -46.21972656 27.43725586 C-45.3015918 27.10733643 -44.38345703 26.77741699 -43.4375 26.4375 C-26.9311508 20.31623046 -12.24851217 12.876641 0 0 Z " fill="#A397A8" transform="translate(347,58)"/>
<path d="M0 0 C0.94875 0.886875 1.8975 1.77375 2.875 2.6875 C15.58562669 13.57129572 30.1073495 13.81184 46 13 C53.53096701 12.29228911 60.32187805 10.26506337 67.4296875 7.796875 C68.60120361 7.39202881 69.77271973 6.98718262 70.97973633 6.57006836 C73.30579921 5.7536084 75.62407928 4.91449429 77.93237305 4.04907227 C88.91145978 0.1295262 99.36810209 -0.65354638 110.375 3.5 C111.35339844 3.85771484 111.35339844 3.85771484 112.3515625 4.22265625 C113.90855095 4.79507847 115.45562792 5.39436389 117 6 C117 6.99 117 7.98 117 9 C113.23802398 10.88845225 110.05063923 11.16194159 105.87426758 11.17480469 C97.6139301 11.21897307 90.57456609 12.43118714 82.8125 15.25 C75.10132975 18.04932487 67.46974498 20.24570958 59.4375 21.9375 C58.47497314 22.14858398 57.51244629 22.35966797 56.52075195 22.57714844 C40.85730926 25.75269882 20.58962109 24.60043992 6.84375 15.5859375 C3.40706147 12.83940363 0.99282191 10.41254182 0 6 C-0.125 2.6875 -0.125 2.6875 0 0 Z " fill="#A295A6" transform="translate(12,37)"/>
<path d="M0 0 C7.23249569 0.67804647 13.80934632 5.83642043 18.63671875 11.0078125 C21.28787905 14.8820009 21.51448143 18.40777689 21 23 C18.64173588 32.72624606 13.88879081 41.89725597 9.6550293 50.92089844 C3.2744547 63.45023609 3.2744547 63.45023609 2 77 C4.55190044 81.22045072 7.8881515 83.38336914 12 86 C12 86.33 12 86.66 12 87 C7.21450429 87.41254273 4.92152425 87.5216175 0.6875 85.125 C-3.03366967 81.58584406 -3.94254342 76.86886485 -5 72 C-5.27650391 70.81083984 -5.27650391 70.81083984 -5.55859375 69.59765625 C-7.65201782 57.27794825 -5.28872925 46.03325812 -0.28295898 34.81518555 C3.69180858 25.84471011 6.14599618 17.53003392 3.33984375 7.68359375 C2.52076837 5.61249854 2.52076837 5.61249854 1 3 C0.67 2.01 0.34 1.02 0 0 Z " fill="#A396A8" transform="translate(164,51)"/>
<path d="M0 0 C4.22797927 3.08290155 4.22797927 3.08290155 6 5 C6.375 7.8125 6.375 7.8125 6 10 C6.99 10.33 7.98 10.66 9 11 C9.43352783 11.66354492 9.86705566 12.32708984 10.3137207 13.01074219 C11.87863081 15.25712823 11.87863081 15.25712823 14.72729492 15.63769531 C16.33761597 15.73195801 16.33761597 15.73195801 17.98046875 15.828125 C19.14384766 15.90546875 20.30722656 15.9828125 21.50585938 16.0625 C23.32827148 16.1553125 23.32827148 16.1553125 25.1875 16.25 C27.02731445 16.36601562 27.02731445 16.36601562 28.90429688 16.484375 C31.93559334 16.67309385 34.96686024 16.84424332 38 17 C38.29547729 18.23411621 38.29547729 18.23411621 38.59692383 19.49316406 C38.86013428 20.57307617 39.12334473 21.65298828 39.39453125 22.765625 C39.65339111 23.83586914 39.91225098 24.90611328 40.17895508 26.00878906 C41.09518189 29.34676436 42.26418679 32.02432021 44 35 C42.60721983 35.65239158 41.21060788 36.29660552 39.8125 36.9375 C38.64654297 37.47697266 38.64654297 37.47697266 37.45703125 38.02734375 C32.76655876 39.88414447 28.40366798 40.12056469 23.38671875 40.09765625 C22.13955078 40.09443359 20.89238281 40.09121094 19.60742188 40.08789062 C18.31384766 40.07951172 17.02027344 40.07113281 15.6875 40.0625 C13.71813477 40.05573242 13.71813477 40.05573242 11.70898438 40.04882812 C8.47263672 40.03705959 5.23631255 40.01912463 2 40 C3.32 32.08 4.64 24.16 6 16 C5.34 16 4.68 16 4 16 C1.37124595 10.62819824 0.3916035 5.95507399 0 0 Z " fill="#ABE520" transform="translate(176,210)"/>
<path d="M0 0 C2.45808507 2.91422457 4.44356513 5.44574139 5.6875 9.0625 C5.91824219 9.71347656 6.14898437 10.36445312 6.38671875 11.03515625 C6.58910156 11.68355469 6.79148438 12.33195312 7 13 C7.18691406 13.58652344 7.37382812 14.17304687 7.56640625 14.77734375 C9.95408303 27.01687609 8.1899811 40.42272197 1.4375 50.875 C0.83808594 51.71804687 0.23867187 52.56109375 -0.37890625 53.4296875 C-2.13123675 56.2080814 -3.07928552 58.85766103 -4 62 C-4.33 62 -4.66 62 -5 62 C-5.28875 61.05125 -5.5775 60.1025 -5.875 59.125 C-6.76825109 55.94788422 -6.76825109 55.94788422 -9 54 C-10.134375 53.525625 -11.26875 53.05125 -12.4375 52.5625 C-17.87323944 50.17840376 -17.87323944 50.17840376 -19 48 C-17.76457267 41.67461206 -15.47785253 36.06112555 -12.875 30.1875 C-12.07099992 28.34401795 -11.26762936 26.50026124 -10.46484375 24.65625 C-10.05733887 23.72425781 -9.64983398 22.79226562 -9.22998047 21.83203125 C-7.26152805 17.29966761 -5.34859058 12.74428107 -3.4375 8.1875 C-3.09122559 7.36338623 -2.74495117 6.53927246 -2.38818359 5.69018555 C-1.59145868 3.79373573 -0.79561981 1.89691371 0 0 Z " fill="#A9E21F" transform="translate(193,77)"/>
<path d="M0 0 C0.66 0 1.32 0 2 0 C2.48919922 1.22976562 2.48919922 1.22976562 2.98828125 2.484375 C3.64376953 4.10085937 3.64376953 4.10085937 4.3125 5.75 C4.74175781 6.81734375 5.17101562 7.8846875 5.61328125 8.984375 C6.86165079 11.69913918 7.99692018 13.79609727 10 16 C10.99 16.33 11.98 16.66 13 17 C10.69297111 24.44505595 7.71005078 31.43058432 4.4375 38.5 C3.91027344 39.63969238 3.38304687 40.77938477 2.83984375 41.95361328 C-0.35174922 48.75013354 -3.69641387 55.39970077 -7.5 61.875 C-7.89646729 62.55111328 -8.29293457 63.22722656 -8.70141602 63.92382812 C-10.81545795 67.40461014 -13.08071052 70.1823507 -16 73 C-17.39875296 53.17213877 -15.45755025 39.18346591 -7.265625 20.93701172 C-5.35585966 16.50520674 -3.84588278 11.96769032 -2.375 7.375 C-2.1279834 6.61614502 -1.8809668 5.85729004 -1.62646484 5.07543945 C-1.07837805 3.38553869 -0.53811758 1.69310165 0 0 Z " fill="#A8E11F" transform="translate(225,42)"/>
<path d="M0 0 C7.75 0.875 7.75 0.875 10 2 C10.02689449 4.95839355 10.04678741 7.91654427 10.0625 10.875 C10.07087891 11.71675781 10.07925781 12.55851563 10.08789062 13.42578125 C10.09111328 14.23144531 10.09433594 15.03710938 10.09765625 15.8671875 C10.10289307 16.61081543 10.10812988 17.35444336 10.11352539 18.12060547 C10 20 10 20 9 22 C8.01 22.33 7.02 22.66 6 23 C5.505 24.485 5.505 24.485 5 26 C6.093125 26.2475 7.18625 26.495 8.3125 26.75 C13.68913709 28.08209321 18.82583961 30.04066721 24 32 C23.505 32.99 23.505 32.99 23 34 C17.39 33.67 11.78 33.34 6 33 C6 32.01 6 31.02 6 30 C5.34 30 4.68 30 4 30 C3.731875 30.86625 3.46375 31.7325 3.1875 32.625 C2.02888013 35.91791964 0.61790161 38.91127875 -1 42 C-2.2380014 38.42355152 -1.74926071 35.66305234 -1 32 C-1.6290625 32.33773437 -2.258125 32.67546875 -2.90625 33.0234375 C-8.24533348 35.80555028 -13.09961692 37.79807011 -19 39 C-19.33 38.34 -19.66 37.68 -20 37 C-15.05 34.525 -15.05 34.525 -10 32 C-11.65 32.66 -13.3 33.32 -15 34 C-16.65919896 34.36871088 -18.3247643 34.71281674 -20 35 C-17.14723863 32.06799526 -14.34920216 29.35684596 -11 27 C-11.9075 26.484375 -12.815 25.96875 -13.75 25.4375 C-18.22119535 22.88382948 -22.66338655 20.28081062 -27.109375 17.68359375 C-30.39550004 15.76964795 -33.69359541 13.87863897 -37 12 C-37 11.67 -37 11.34 -37 11 C-26.64413966 11.36722909 -16.74144647 13.11070097 -8 19 C-7.67 19.66 -7.34 20.32 -7 21 C-4.47266765 21.65555119 -4.47266765 21.65555119 -2 22 C-2.66 20.35 -3.32 18.7 -4 17 C-5.0725 16.938125 -6.145 16.87625 -7.25 16.8125 C-14.25182099 15.96075791 -21.16527926 12.88981383 -27 9 C-27 8.34 -27 7.68 -27 7 C-23.99350578 7.30064942 -20.99889386 7.63407606 -18 8 C-16.96746094 8.12246094 -15.93492187 8.24492187 -14.87109375 8.37109375 C-13.29521484 8.58958984 -13.29521484 8.58958984 -11.6875 8.8125 C-10.70136719 8.94269531 -9.71523438 9.07289063 -8.69921875 9.20703125 C-5.42880175 10.16780499 -4.09170864 11.33390913 -2 14 C-1.25 16.25 -1.25 16.25 -1 18 C-1.09539062 17.20335937 -1.19078125 16.40671875 -1.2890625 15.5859375 C-2.39015817 5.06151142 -2.39015817 5.06151142 0 0 Z " fill="#ABD344" transform="translate(350,124)"/>
<path d="M0 0 C1.67540664 0.64438717 3.34183216 1.31246699 5 2 C9.93943984 3.00714216 14.85435147 3.302958 19.875 3.5625 C20.65875 3.60568359 21.4425 3.64886719 22.25 3.69335938 C24.16650649 3.79853351 26.08323333 3.89967925 28 4 C24.46756848 7.0395341 20.50517002 8.59415122 16.1875 10.1875 C15.3836084 10.48575684 14.5797168 10.78401367 13.75146484 11.09130859 C4.42243077 14.40925208 -5.17887319 16.75669646 -14.79614258 19.07104492 C-32.09628319 23.31234832 -47.08903992 29.4476777 -60 42 C-60 35.5206388 -53.63291844 29.44999747 -49.375 24.875 C-38.72753456 14.7911055 -24.48393825 9.20681775 -11.35913086 3.10986328 C-9.8384551 2.39445482 -8.33100292 1.6498721 -6.84204102 0.87060547 C-4.38787012 -0.28931149 -2.69242351 -0.26267546 0 0 Z " fill="#A8E11F" transform="translate(281,95)"/>
<path d="M0 0 C-2.73925807 2.73925807 -6.01401497 3.68585125 -9.5625 5.0625 C-22.60485085 10.2928515 -36.78965777 16.30905237 -46.6015625 26.6953125 C-48 28 -48 28 -50 28 C-50.2578125 28.556875 -50.515625 29.11375 -50.78125 29.6875 C-52.1555995 32.29524008 -53.80599388 34.58819467 -55.5 37 C-59.27132894 42.80988512 -60.41568522 48.16709451 -61 55 C-65.13125892 55.41312589 -68.08253899 55.39864047 -71.5 53 C-74 50 -74 50 -74.3125 46.4375 C-71.45470472 33.26679133 -61.05678873 23.37329398 -50.25 16.25 C-39.06662572 9.20817255 -26.70535427 5.90065956 -14.04418945 2.55273438 C-12.06810029 2.01841384 -10.10703571 1.44522102 -8.14453125 0.86328125 C-5.2456921 0.06745087 -2.98155112 -0.18070007 0 0 Z " fill="#A295A6" transform="translate(287,118)"/>
<path d="M0 0 C1.06589935 3.19769806 0.99167429 5.76993162 0.8840332 9.10644531 C0.54871774 20.32635243 2.95660259 27.99991116 8 38 C7.21496094 38.36351562 6.42992187 38.72703125 5.62109375 39.1015625 C-0.73904702 42.14506545 -5.85008251 45.19341034 -11 50 C-11.33 50 -11.66 50 -12 50 C-12 43.4 -12 36.8 -12 30 C-13.32 33.96 -14.64 37.92 -16 42 C-16.66 42 -17.32 42 -18 42 C-19.75532214 33.88163508 -19.48708273 25.95813438 -17.4453125 17.94921875 C-16.90858079 15.59984049 -16.84512118 13.40062176 -17 11 C-17.66 10.67 -18.32 10.34 -19 10 C-19 9.34 -19 8.68 -19 8 C-18.34773437 7.96261719 -17.69546875 7.92523438 -17.0234375 7.88671875 C-11.73133735 7.48864042 -7.53915983 6.98920281 -3 4 C-1.14684743 1.95053601 -1.14684743 1.95053601 0 0 Z " fill="#AAE320" transform="translate(187,139)"/>
<path d="M0 0 C0.66 0.33 1.32 0.66 2 1 C1.31292969 1.39832031 0.62585938 1.79664063 -0.08203125 2.20703125 C-0.98308594 2.73683594 -1.88414062 3.26664063 -2.8125 3.8125 C-3.70582031 4.33457031 -4.59914063 4.85664063 -5.51953125 5.39453125 C-7.66831987 6.78532199 -9.29361617 8.1122066 -11 10 C-9.02 9.67 -7.04 9.34 -5 9 C-7.16671432 11.27505004 -9.39563231 13.23575092 -12 15 C-12.66 15 -13.32 15 -14 15 C-14 15.66 -14 16.32 -14 17 C-13.21625 16.87625 -12.4325 16.7525 -11.625 16.625 C-6.28339622 17.1775797 -2.27805059 19.83762807 2 23 C2.66 23.99 3.32 24.98 4 26 C1.03 25.01 -1.94 24.02 -5 23 C-3.68 23.66 -2.36 24.32 -1 25 C0.32 25.99 1.64 26.98 3 28 C-1.29 27.67 -5.58 27.34 -10 27 C-9.5359375 28.4540625 -9.5359375 28.4540625 -9.0625 29.9375 C-8.69675184 31.28858463 -8.34357984 32.6431086 -8 34 C-7.70222656 35.10021484 -7.70222656 35.10021484 -7.3984375 36.22265625 C-6.9038466 38.66627059 -6.65192612 40.52432454 -7 43 C-8.97704575 45.80596337 -11.29629685 47.90311302 -14 50 C-19.1332664 45.14201918 -24.53202504 39.22382749 -25.5625 32.125 C-25.376875 31.09375 -25.19125 30.0625 -25 29 C-24.896875 28.13375 -24.79375 27.2675 -24.6875 26.375 C-23.8786347 23.58073805 -22.59196092 21.42254922 -21 19 C-21.556875 19.38671875 -22.11375 19.7734375 -22.6875 20.171875 C-27.63726342 23.54975409 -32.48815479 26.62420465 -38 29 C-38.99 28.67 -39.98 28.34 -41 28 C-32.67102012 18.11083657 -32.67102012 18.11083657 -29 16 C-25.1875 16.25 -25.1875 16.25 -22 17 C-22.30035156 16.46890625 -22.60070312 15.9378125 -22.91015625 15.390625 C-23.29042969 14.68421875 -23.67070312 13.9778125 -24.0625 13.25 C-24.44535156 12.55390625 -24.82820313 11.8578125 -25.22265625 11.140625 C-26.1312406 8.63859372 -25.88336837 7.4667645 -25 5 C-22.68001641 5.39999717 -21.13676576 5.90567879 -19.1875 7.25 C-18 9 -18 9 -18.3125 11.6875 C-18.539375 12.450625 -18.76625 13.21375 -19 14 C-15.59448718 12.86482906 -15.02000217 12.0063796 -12.875 9.25 C-9.27278475 4.98725061 -5.26277109 1.96148087 0 0 Z " fill="#ABD344" transform="translate(295,155)"/>
<path d="M0 0 C4.29 0.66 8.58 1.32 13 2 C11 8 11 8 8.43359375 9.4921875 C5.70502194 10.79288196 5.70502194 10.79288196 5.28515625 13.8203125 C5.21167969 14.91085938 5.13820312 16.00140625 5.0625 17.125 C3.89071539 26.6470695 -0.06316004 31.46614876 -7.25 37.5625 C-11.85801322 41.49245722 -13.34643608 44.00899737 -14 50 C-18.30728733 45.98891581 -21.20184386 40.97388317 -21.4375 35 C-20.81132176 24.65795934 -14.62446357 17.23423682 -7.25 10.5 C-3.29230769 7 -3.29230769 7 -1 7 C-0.67 4.69 -0.34 2.38 0 0 Z " fill="#AAE41F" transform="translate(154,198)"/>
<path d="M0 0 C6.34061289 4.2724833 10.91562513 9.48517921 12.41015625 17.0859375 C12.88960075 23.89650809 10.16995903 30.08274315 7 36 C6.01 36.495 6.01 36.495 5 37 C4.63648438 36.32453125 4.27296875 35.6490625 3.8984375 34.953125 C-0.12515352 27.81383016 -3.99451673 23.53832396 -12 21 C-13.19625 20.87625 -14.3925 20.7525 -15.625 20.625 C-19 20 -19 20 -21 18.1875 C-22 16 -22 16 -21.8515625 14.14453125 C-19.25197993 7.59787606 -7.35199475 -2.78145809 0 0 Z " fill="#A8E120" transform="translate(291,215)"/>
<path d="M0 0 C-0.62775567 1.35208914 -1.30419733 2.68163705 -2 4 C-2.5259375 5.0828125 -2.5259375 5.0828125 -3.0625 6.1875 C-6.16141763 9.08648746 -9.89278258 8.82778963 -14 9 C-13.67257813 9.60328125 -13.34515625 10.2065625 -13.0078125 10.828125 C-11.82576973 13.37547299 -11.84578447 15.22412038 -12 18 C-11.566875 17.505 -11.13375 17.01 -10.6875 16.5 C-9 15 -9 15 -6 15 C-6.53153424 18.95107118 -8.30061905 20.55649937 -11.25 23.125 C-12.01828125 23.80820313 -12.7865625 24.49140625 -13.578125 25.1953125 C-18.00898034 28.49701438 -21.52080625 29.25484622 -27 29 C-27 28.34 -27 27.68 -27 27 C-27.66 27 -28.32 27 -29 27 C-31 24 -31 24 -31 20 C-32.65 20 -34.3 20 -36 20 C-35.71359979 15.22666312 -34.98106669 11.91175533 -31.625 8.35546875 C-25.21970995 3.0125946 -19.04778081 2.76601203 -10.96875 3.05859375 C-6.73222035 2.97497803 -3.89666403 0 0 0 Z " fill="#F5F5F5" transform="translate(154,81)"/>
<path d="M0 0 C0.66 0.33 1.32 0.66 2 1 C2.484375 3.6171875 2.484375 3.6171875 2.75 6.875 C2.84796875 7.94492188 2.9459375 9.01484375 3.046875 10.1171875 C3 13 3 13 1 16 C2.155 15.67 3.31 15.34 4.5 15 C8.77500587 13.91598066 12.60361453 13.84298623 17 14 C13.11582557 22.6646968 5.21964482 29.961769 -0.9375 37.125 C-1.50509033 37.78862549 -2.07268066 38.45225098 -2.6574707 39.13598633 C-3.19202881 39.75368896 -3.72658691 40.3713916 -4.27734375 41.0078125 C-4.75421631 41.56098145 -5.23108887 42.11415039 -5.72241211 42.68408203 C-7 44 -7 44 -9 45 C-9.33 43.68 -9.66 42.36 -10 41 C-10.33 41.66 -10.66 42.32 -11 43 C-11.66 43 -12.32 43 -13 43 C-13.08089542 40.22858283 -13.14044062 37.45952181 -13.1875 34.6875 C-13.22520508 33.50897461 -13.22520508 33.50897461 -13.26367188 32.30664062 C-13.27333984 31.54931641 -13.28300781 30.79199219 -13.29296875 30.01171875 C-13.3086792 29.31522217 -13.32438965 28.61872559 -13.34057617 27.90112305 C-12.89567045 25.41762422 -11.96642914 24.52898008 -10 23 C-9.34 23 -8.68 23 -8 23 C-7.67 24.98 -7.34 26.96 -7 29 C-5.0549 26.08235 -4.54723683 24.37462715 -4 21 C-4.66 21 -5.32 21 -6 21 C-6 20.34 -6 19.68 -6 19 C-5.34 19 -4.68 19 -4 19 C-4 18.34 -4 17.68 -4 17 C-6.31 17.33 -8.62 17.66 -11 18 C-11 19.32 -11 20.64 -11 22 C-11.99 22.33 -12.98 22.66 -14 23 C-12.8905928 19.51329166 -11.73662334 16.22515763 -10 13 C-8.35 13.33 -6.7 13.66 -5 14 C-5 14.66 -5 15.32 -5 16 C-4.01 16 -3.02 16 -2 16 C-2.04125 14.845 -2.0825 13.69 -2.125 12.5 C-2.14087433 8.05518699 -1.21793105 4.26275869 0 0 Z " fill="#AAD243" transform="translate(356,220)"/>
<path d="M0 0 C0.66 0 1.32 0 2 0 C2 4.29 2 8.58 2 13 C3.98 12.34 5.96 11.68 8 11 C11.20751087 10.23630694 13.65279105 10 17 10 C17.93166813 16.63813539 17.93166813 16.63813539 15.5703125 20.08984375 C11.74722241 23.84384185 8.9161821 25.42978464 3.5 25.4375 C1.99701442 25.32658691 0.49466855 25.19295926 -1 25 C-1 27.23776295 1.35413558 29.78231778 2.5 31.5625 C3.1496875 32.57441406 3.799375 33.58632812 4.46875 34.62890625 C5.22671875 35.80259766 5.22671875 35.80259766 6 37 C1.65646408 37 -0.84563853 34.86618523 -4 32 C-5.375 29.3125 -5.375 29.3125 -6 27 C-6.33 26.34 -6.66 25.68 -7 25 C-7.84304688 25.51691406 -8.68609375 26.03382813 -9.5546875 26.56640625 C-10.65039062 27.22511719 -11.74609375 27.88382813 -12.875 28.5625 C-13.96554687 29.22378906 -15.05609375 29.88507813 -16.1796875 30.56640625 C-17.11039062 31.03949219 -18.04109375 31.51257813 -19 32 C-19.66 31.67 -20.32 31.34 -21 31 C-19.8758824 29.70756532 -18.75067408 28.41607925 -17.625 27.125 C-16.99851562 26.40570313 -16.37203125 25.68640625 -15.7265625 24.9453125 C-14.52573166 23.5923402 -13.2791655 22.2791655 -12 21 C-11.01 21 -10.02 21 -9 21 C-10.65 19.02 -12.3 17.04 -14 15 C-13.34 15 -12.68 15 -12 15 C-12.33 13.68 -12.66 12.36 -13 11 C-10.69 12.98 -8.38 14.96 -6 17 C-5.938125 15.68 -5.87625 14.36 -5.8125 13 C-5.26205036 7.89215112 -3.38989156 3.87567042 0 0 Z " fill="#ABD344" transform="translate(378,177)"/>
<path d="M0 0 C0.99 0.00193359 1.98 0.00386719 3 0.00585938 C4.02351563 0.01810547 5.04703125 0.03035156 6.1015625 0.04296875 C7.11734375 0.04361328 8.133125 0.04425781 9.1796875 0.04492188 C14.46962785 0.07583711 19.49271607 0.40827013 24.7265625 1.23046875 C27.70277882 1.47620825 30.68194508 1.63709115 33.6640625 1.79296875 C34.44330078 1.83615234 35.22253906 1.87933594 36.02539062 1.92382812 C37.92563367 2.02874952 39.82607919 2.12999325 41.7265625 2.23046875 C37.9765625 6.10546875 37.9765625 6.10546875 35.7265625 7.23046875 C32.84180209 7.26890722 29.98061418 7.24854262 27.09765625 7.1875 C25.32227706 7.16509026 23.54688559 7.14363724 21.77148438 7.12304688 C18.97581645 7.08612342 16.18077831 7.04332566 13.38549805 6.98364258 C10.68529508 6.92868333 7.98578283 6.89992059 5.28515625 6.875 C4.46293076 6.8512178 3.64070526 6.82743561 2.79356384 6.80293274 C-3.20535365 6.77625363 -8.13410239 8.04974757 -13.2734375 11.23046875 C-15.7377209 14.24921591 -17.04894597 16.55699415 -18.2734375 20.23046875 C-18.9334375 20.23046875 -19.5934375 20.23046875 -20.2734375 20.23046875 C-19.78245499 13.1112224 -18.24239528 8.97104516 -12.8359375 3.98046875 C-8.61165758 1.09559466 -5.10744664 -0.02350476 0 0 Z " fill="#9F93A4" transform="translate(166.2734375,21.76953125)"/>
<path d="M0 0 C0.495 6.93 0.495 6.93 1 14 C-2.69335981 15.13062035 -5.95881288 15.99527361 -9.8125 16.4375 C-10.864375 16.623125 -11.91625 16.80875 -13 17 C-13.66 17.99 -14.32 18.98 -15 20 C-17.09375 20.546875 -17.09375 20.546875 -19.5 20.75 C-20.69109375 20.86601562 -20.69109375 20.86601562 -21.90625 20.984375 C-24 21 -24 21 -26 20 C-26.99 20.99 -27.98 21.98 -29 23 C-28.979375 22.236875 -28.95875 21.47375 -28.9375 20.6875 C-28.87057159 17.89814214 -28.87057159 17.89814214 -30 15 C-29.5625 12.3125 -29.5625 12.3125 -29 10 C-27.35 10.33 -25.7 10.66 -24 11 C-23.65324219 10.18144531 -23.30648437 9.36289063 -22.94921875 8.51953125 C-21 6 -21 6 -17.64453125 5.51171875 C-16.37996094 5.56972656 -15.11539063 5.62773438 -13.8125 5.6875 C-12.54019531 5.73261719 -11.26789063 5.77773437 -9.95703125 5.82421875 C-8.98121094 5.88222656 -8.00539062 5.94023438 -7 6 C-6.81244141 5.04867187 -6.81244141 5.04867187 -6.62109375 4.078125 C-6 2 -6 2 -4.0625 0.75 C-2 0 -2 0 0 0 Z " fill="#ABD541" transform="translate(149,109)"/>
<path d="M0 0 C5.39077672 0.50120937 10.77996975 1.01643786 16.16821289 1.54418945 C17.99792921 1.72146691 19.82800876 1.89503886 21.65844727 2.06469727 C24.30331032 2.3105131 26.94654064 2.57003084 29.58984375 2.83203125 C30.39646957 2.90404251 31.2030954 2.97605377 32.03416443 3.05024719 C38.2338396 3.68486465 45.25016509 4.58347841 50.0625 8.8125 C51.26624116 11.62122936 51.06196388 13.97203186 51 17 C49.68902344 16.49339844 49.68902344 16.49339844 48.3515625 15.9765625 C40.2877322 13.0519448 32.83023033 11.30895485 24.25634766 10.72119141 C19.21391346 10.33296154 15.57144945 9.18082431 11 7 C8.94031193 6.2224332 6.87211887 5.48073008 4.796875 4.74609375 C3 4 3 4 0 2 C0 1.34 0 0.68 0 0 Z " fill="#9E91A2" transform="translate(82,19)"/>
<path d="M0 0 C2.45808507 2.91422457 4.44356513 5.44574139 5.6875 9.0625 C5.91824219 9.71347656 6.14898437 10.36445312 6.38671875 11.03515625 C7.59537215 14.90746619 8.11620086 18.16873467 8.0625 22.25 C8.05347656 23.14203125 8.04445312 24.0340625 8.03515625 24.953125 C8.02355469 25.62859375 8.01195312 26.3040625 8 27 C7.01 27.33 6.02 27.66 5 28 C5 29.65 5 31.3 5 33 C4.34 32.01 3.68 31.02 3 30 C0.69 30.33 -1.62 30.66 -4 31 C-4 30.34 -4 29.68 -4 29 C-3.34 29 -2.68 29 -2 29 C-2 28.01 -2 27.02 -2 26 C-4.31 25.34 -6.62 24.68 -9 24 C-8.40227336 20.56506424 -7.52472216 17.55768504 -6.15234375 14.35546875 C-5.79462891 13.51435547 -5.43691406 12.67324219 -5.06835938 11.80664062 C-4.50858398 10.51016602 -4.50858398 10.51016602 -3.9375 9.1875 C-3.37192383 7.86202148 -3.37192383 7.86202148 -2.79492188 6.50976562 C-1.86751446 4.33798876 -0.93576366 2.16818633 0 0 Z " fill="#A6DE20" transform="translate(193,77)"/>
<path d="M0 0 C0.33 0.99 0.66 1.98 1 3 C-0.00390625 4.69921875 -0.00390625 4.69921875 -1.5625 6.6875 C-10.56313306 19.74888378 -12.42539761 34.56975006 -14 50 C-19.83489888 44.69988727 -21.61816059 39.2959466 -22.1796875 31.5078125 C-22.18622452 29.67090987 -22.10381011 27.83397859 -22 26 C-21.39414063 25.74734375 -20.78828125 25.4946875 -20.1640625 25.234375 C-17.68233908 23.81880713 -16.85736499 22.66907416 -15.375 20.25 C-12.61177534 15.91386285 -9.72545289 11.69195413 -6.75 7.5 C-6.09523682 6.56462402 -6.09523682 6.56462402 -5.42724609 5.61035156 C-2.23432476 1.11716238 -2.23432476 1.11716238 0 0 Z " fill="#9F92A3" transform="translate(217,121)"/>
<path d="M0 0 C1.953125 0.5546875 1.953125 0.5546875 4 2 C4.609375 5.2578125 4.609375 5.2578125 4.75 9.125 C4.80671875 10.40632812 4.8634375 11.68765625 4.921875 13.0078125 C4.94765625 13.99523437 4.9734375 14.98265625 5 16 C4.01 16 3.02 16 2 16 C2.30835759 19.87534124 2.6224211 23.7501999 2.9375 27.625 C3.02451172 28.71941406 3.11152344 29.81382812 3.20117188 30.94140625 C3.28818359 32.00488281 3.37519531 33.06835938 3.46484375 34.1640625 C3.58267212 35.62513428 3.58267212 35.62513428 3.70288086 37.11572266 C4.01087938 40.10561134 4.47612313 43.04095922 5 46 C-2.5708819 44.22962267 -9.18268212 41.74139138 -16 38 C-15.02433888 36.83040013 -14.044375 35.66438823 -13.0625 34.5 C-12.24458984 33.52546875 -12.24458984 33.52546875 -11.41015625 32.53125 C-10.94480469 32.0259375 -10.47945312 31.520625 -10 31 C-9.67 31 -9.34 31 -9 31 C-8.34 33.31 -7.68 35.62 -7 38 C-6.01 37.505 -6.01 37.505 -5 37 C-4.41256709 34.59524499 -4.41256709 34.59524499 -4.0625 31.6875 C-3.42356603 27.36319486 -2.56878637 23.26597312 -1.375 19.0625 C0.30705434 12.68083656 0.28565611 6.55951071 0 0 Z " fill="#A9E121" transform="translate(170,203)"/>
<path d="M0 0 C0.33 1.32 0.66 2.64 1 4 C3.64 4 6.28 4 9 4 C8.6875 5.875 8.6875 5.875 8 8 C7.01 8.66 6.02 9.32 5 10 C4.26656572 13.06556598 4.26656572 13.06556598 4 16 C2 15 2 15 1 14 C0.4225 14.33 -0.155 14.66 -0.75 15 C-3 16 -3 16 -7 16 C-7 17.65 -7 19.3 -7 21 C-9.5 19.875 -9.5 19.875 -12 18 C-12.3125 14.8125 -12.3125 14.8125 -12 12 C-13.98 12 -15.96 12 -18 12 C-15.88795796 9.88795796 -14.09211899 8.23241375 -11.109375 7.59765625 C-8.2775208 6.79529756 -6.52910082 5.28089037 -4.25 3.4375 C-3.45078125 2.79683594 -2.6515625 2.15617187 -1.828125 1.49609375 C-1.22484375 1.00238281 -0.6215625 0.50867187 0 0 Z " fill="#ABD73E" transform="translate(134,63)"/>
<path d="M0 0 C1.875 0.3125 1.875 0.3125 4 1 C4.66 1.99 5.32 2.98 6 4 C8.75641416 3.50243908 8.75641416 3.50243908 11 2 C13.375 1.75 13.375 1.75 16 2 C17.625 3.5 17.625 3.5 19 5 C19.99 5 20.98 5 22 5 C22.33 4.34 22.66 3.68 23 3 C25.475 3.495 25.475 3.495 28 4 C27.67842796 6.97454134 27.37860258 8.59335278 25.3125 10.8125 C22.34331109 12.33721863 20.29521559 12.35817561 17 12 C16.34 11.34 15.68 10.68 15 10 C13.65835921 10.2981424 12.32676508 10.64141484 11 11 C5.04092869 11.75842726 5.04092869 11.75842726 2.40234375 9.8359375 C1 8.3125 1 8.3125 -1 5 C-0.8125 2.125 -0.8125 2.125 0 0 Z " fill="#0A0D01" transform="translate(84,133)"/>
<path d="M0 0 C1.76949095 -0.10815225 3.54087487 -0.18566083 5.3125 -0.25 C6.29863281 -0.29640625 7.28476563 -0.3428125 8.30078125 -0.390625 C11 0 11 0 12.85546875 1.890625 C14 4 14 4 14 6 C15.04027344 6.18755859 15.04027344 6.18755859 16.1015625 6.37890625 C19.26485335 7.05675429 22.28933828 7.96635944 25.375 8.9375 C29.90265372 10.35078578 34.43164685 11.72511075 39 13 C39 13.66 39 14.32 39 15 C31.56805581 13.86177431 24.2835793 12.42541369 16.98046875 10.63671875 C14.43559472 10.09305628 12.14916626 9.85346665 9.5625 9.75 C5.12696314 8.81620277 3.75418561 7.16025242 1.03125 3.69140625 C0 2 0 2 0 0 Z " fill="#ACE623" transform="translate(178,205)"/>
<path d="M0 0 C7.75 0.75 7.75 0.75 10 3 C9.34 3 8.68 3 8 3 C7.8453125 4.2375 7.8453125 4.2375 7.6875 5.5 C7.14702856 8.25149095 6.5242262 10.37443638 5.5 12.9375 C4.03553747 16.6450905 3.41232788 20.04165236 3 24 C2.34 23.67 1.68 23.34 1 23 C1 22.01 1 21.02 1 20 C0.34 19.67 -0.32 19.34 -1 19 C-1.484375 16.26953125 -1.484375 16.26953125 -1.75 12.8125 C-1.84796875 11.68457031 -1.9459375 10.55664062 -2.046875 9.39453125 C-1.99794318 5.85105198 -1.29362891 3.27885175 0 0 Z " fill="#ACDE30" transform="translate(350,124)"/>
<path d="M0 0 C1.36420006 4.09260018 -0.2335485 6.47012659 -1.9375 10.1875 C-2.22818359 10.84169922 -2.51886719 11.49589844 -2.81835938 12.16992188 C-3.53695343 13.78381344 -4.2673588 15.39243655 -5 17 C-8 17 -8 17 -9.9375 15.125 C-10.618125 14.42375 -11.29875 13.7225 -12 13 C-12.99 12.566875 -12.99 12.566875 -14 12.125 C-16.98714107 10.44473315 -18.24896801 7.87669541 -20 5 C-18.783125 5.165 -17.56625 5.33 -16.3125 5.5 C-15.57773437 5.58378906 -14.84296875 5.66757813 -14.0859375 5.75390625 C-12.53058007 5.93740347 -10.98130548 6.17392345 -9.4375 6.4375 C-5.40745218 5.71415808 -2.87524303 2.784097 0 0 Z " fill="#A8DF21" transform="translate(394,195)"/>
<path d="M0 0 C7.48291572 6.15034169 7.48291572 6.15034169 10 10 C9.34 10.45375 8.68 10.9075 8 11.375 C7.34 11.91125 6.68 12.4475 6 13 C6 13.66 6 14.32 6 15 C5.01 15 4.02 15 3 15 C2.67 16.65 2.34 18.3 2 20 C1.34 20 0.68 20 0 20 C0 18.35 0 16.7 0 15 C-0.99 15 -1.98 15 -3 15 C-3.42589023 9.46342706 -1.905247 5.10334017 0 0 Z " fill="#A7D337" transform="translate(83,291)"/>
<path d="M0 0 C0 0.99 0 1.98 0 3 C2.97 2.34 5.94 1.68 9 1 C8.01 2.98 7.02 4.96 6 7 C5.34 7 4.68 7 4 7 C3.7525 7.598125 3.505 8.19625 3.25 8.8125 C1.83629988 11.28647521 0.34944617 12.43370255 -2 14 C-2.66 12.35 -3.32 10.7 -4 9 C-5.98 9.99 -7.96 10.98 -10 12 C-10.2421875 9.73828125 -10.2421875 9.73828125 -10 7 C-8.3203125 4.98046875 -8.3203125 4.98046875 -6.125 3.1875 C-5.04605469 2.28064453 -5.04605469 2.28064453 -3.9453125 1.35546875 C-2 0 -2 0 0 0 Z " fill="#A9D43C" transform="translate(119,189)"/>
<path d="M0 0 C0.66 0 1.32 0 2 0 C2.66 0.99 3.32 1.98 4 3 C4.33 3.33 4.66 3.66 5 4 C5.04063832 5.66617115 5.042721 7.33388095 5 9 C6.98 9.66 8.96 10.32 11 11 C10.67 11.66 10.34 12.32 10 13 C9.21625 12.95875 8.4325 12.9175 7.625 12.875 C4.83883881 12.71271266 4.83883881 12.71271266 3 15 C0.67724823 15.40047444 -1.65739357 15.7397104 -4 16 C-4 14.02 -4 12.04 -4 10 C-6.97 9.505 -6.97 9.505 -10 9 C-9.34 8.01 -8.68 7.02 -8 6 C-6.0546875 5.70703125 -6.0546875 5.70703125 -3.875 5.8125 C-2.59625 5.874375 -1.3175 5.93625 0 6 C0 4.02 0 2.04 0 0 Z " fill="#ABD83B" transform="translate(100,87)"/>
<path d="M0 0 C1.2684375 0.12375 1.2684375 0.12375 2.5625 0.25 C3.2225 1.24 3.8825 2.23 4.5625 3.25 C3.9025 3.25 3.2425 3.25 2.5625 3.25 C2.2325 3.91 1.9025 4.57 1.5625 5.25 C1.5625 4.59 1.5625 3.93 1.5625 3.25 C0.510625 3.91 -0.54125 4.57 -1.625 5.25 C-5.53520785 7.25008862 -8.45154474 7.38877486 -12.8125 7.1875 C-19.54041091 6.9368677 -23.79656289 8.76017075 -29.4375 12.25 C-30.4275 12.745 -30.4275 12.745 -31.4375 13.25 C-29.99517936 9.67521604 -28.27629097 8.13918552 -25.0625 6.0625 C-24.29164063 5.55332031 -23.52078125 5.04414062 -22.7265625 4.51953125 C-17.57250982 1.66105494 -12.01787074 1.89126892 -6.23828125 1.53125 C-3.24922487 1.23109371 -2.88234538 0.29562517 0 0 Z " fill="#0C0F06" transform="translate(152.4375,77.75)"/>
<path d="M0 0 C1.32 0.66 2.64 1.32 4 2 C4 3.98 4 5.96 4 8 C4.99 8 5.98 8 7 8 C6.67 8.99 6.34 9.98 6 11 C5.34 11 4.68 11 4 11 C4 12.65 4 14.3 4 16 C3.34 15.01 2.68 14.02 2 13 C-0.31 13.33 -2.62 13.66 -5 14 C-5 13.34 -5 12.68 -5 12 C-4.34 12 -3.68 12 -3 12 C-3 11.01 -3 10.02 -3 9 C-5.31 8.34 -7.62 7.68 -10 7 C-10 6.34 -10 5.68 -10 5 C-6.78548731 3.39274365 -3.56387464 3.94251815 0 4 C0 2.68 0 1.36 0 0 Z " fill="#ABD83B" transform="translate(194,94)"/>
<path d="M0 0 C0.33 0 0.66 0 1 0 C1 1.65 1 3.3 1 5 C3.97 4.01 6.94 3.02 10 2 C9.67 2.99 9.34 3.98 9 5 C8.34 5 7.68 5 7 5 C6.938125 5.7425 6.87625 6.485 6.8125 7.25 C5.75814862 10.8185739 4.00090227 11.92245228 1 14 C0.1646875 13.505 0.1646875 13.505 -0.6875 13 C-3.30284522 11.8690399 -5.1806646 11.84337026 -8 12 C-8 11.34 -8 10.68 -8 10 C-7.34 10 -6.68 10 -6 10 C-6 8.35 -6 6.7 -6 5 C-5.38125 4.731875 -4.7625 4.46375 -4.125 4.1875 C-1.7004767 3.04443152 -1.7004767 3.04443152 0 0 Z " fill="#ABD83B" transform="translate(303,289)"/>
<path d="M0 0 C2.58858285 3.88287427 1.64054323 5.51619742 1 10 C1.99 11.485 1.99 11.485 3 13 C1.96875 12.835 0.9375 12.67 -0.125 12.5 C-3.48244326 12.06678152 -6.62336157 11.91764297 -10 12 C-10 11.34 -10 10.68 -10 10 C-9.34 9.67 -8.68 9.34 -8 9 C-9.20381448 6.50638429 -10.45428722 4.31856917 -12 2 C-7.94568308 0.84162374 -5.78187881 1.16308743 -2 3 C-1.34 2.01 -0.68 1.02 0 0 Z " fill="#ABD83C" transform="translate(294,221)"/>
<path d="M0 0 C0.66 0 1.32 0 2 0 C2 0.66 2 1.32 2 2 C3.98 2 5.96 2 8 2 C7.731875 2.556875 7.46375 3.11375 7.1875 3.6875 C7.125625 4.450625 7.06375 5.21375 7 6 C9.35426499 8.77122275 9.35426499 8.77122275 12 11 C6.58461538 12.23076923 6.58461538 12.23076923 3.625 11.0625 C3.08875 10.711875 2.5525 10.36125 2 10 C1.01 10.99 0.02 11.98 -1 13 C-3 11 -3 11 -3.125 8.375 C-3.08375 7.59125 -3.0425 6.8075 -3 6 C-2.34 6 -1.68 6 -1 6 C-1 5.34 -1 4.68 -1 4 C-2.32 3.67 -3.64 3.34 -5 3 C-4.360625 2.87625 -3.72125 2.7525 -3.0625 2.625 C-2.0415625 2.315625 -2.0415625 2.315625 -1 2 C-0.67 1.34 -0.34 0.68 0 0 Z " fill="#ABD73D" transform="translate(243,245)"/>
<path d="M0 0 C1.21333397 2.42666795 1 4.33499722 1 7 C0.34 7 -0.32 7 -1 7 C-1 8.32 -1 9.64 -1 11 C-4.3 12.32 -7.6 13.64 -11 15 C-10.54177532 11.53058454 -10.10868317 8.32604951 -9 5 C-9.66 4.01 -10.32 3.02 -11 2 C-5.375 0.875 -5.375 0.875 -2 2 C-1.34 1.34 -0.68 0.68 0 0 Z " fill="#A9D53B" transform="translate(279,308)"/>
<path d="M0 0 C0.66 0 1.32 0 2 0 C2 1.32 2 2.64 2 4 C2.7425 3.649375 3.485 3.29875 4.25 2.9375 C7.1322726 1.95490707 8.21176345 1.9673198 11 3 C8.67878299 7.51347752 6.09287857 10.10087768 2 13 C1.01 12.67 0.02 12.34 -1 12 C-1 11.01 -1 10.02 -1 9 C-2.98 9.66 -4.96 10.32 -7 11 C-6.34 10.01 -5.68 9.02 -5 8 C-4.34 8 -3.68 8 -3 8 C-3.33 6.68 -3.66 5.36 -4 4 C-3.01 4.33 -2.02 4.66 -1 5 C-0.67 3.35 -0.34 1.7 0 0 Z " fill="#A9D53B" transform="translate(328,268)"/>
<path d="M0 0 C0.33 4.62 0.66 9.24 1 14 C-1.31 14.66 -3.62 15.32 -6 16 C-6.66 15.34 -7.32 14.68 -8 14 C-7.01 13.67 -6.02 13.34 -5 13 C-5 12.34 -5 11.68 -5 11 C-5.99 11 -6.98 11 -8 11 C-8 10.34 -8 9.68 -8 9 C-8.66 8.67 -9.32 8.34 -10 8 C-9.34 7.34 -8.68 6.68 -8 6 C-7.71125 5.34 -7.4225 4.68 -7.125 4 C-5.46671572 1.05193906 -3.36052046 0 0 0 Z " fill="#ABD939" transform="translate(149,109)"/>
<path d="M0 0 C0 0.99 0 1.98 0 3 C1.32 2.01 2.64 1.02 4 0 C4.66 0.33 5.32 0.66 6 1 C5.505 1.598125 5.01 2.19625 4.5 2.8125 C2.71723582 4.97029994 2.71723582 4.97029994 3 8 C0.5 10.1875 0.5 10.1875 -2 12 C-2.66 11.01 -3.32 10.02 -4 9 C-5.98 9.33 -7.96 9.66 -10 10 C-10.33 9.01 -10.66 8.02 -11 7 C-10.236875 6.401875 -9.47375 5.80375 -8.6875 5.1875 C-6.08429709 3.1719574 -6.08429709 3.1719574 -4.375 1.25 C-3 0 -3 0 0 0 Z " fill="#AAD63C" transform="translate(239,317)"/>
<path d="M0 0 C0.99 0.33 1.98 0.66 3 1 C2 8 2 8 1.46875 11.1875 C0.94157154 15.47521817 0.88946271 19.62522921 0.9375 23.9375 C0.94201172 24.71673828 0.94652344 25.49597656 0.95117188 26.29882812 C0.96283092 28.19925268 0.98076123 30.09963706 1 32 C1.66 32.33 2.32 32.66 3 33 C1.68 33.66 0.36 34.32 -1 35 C-1.39379935 32.02227106 -1.76530876 29.04438476 -2.125 26.0625 C-2.23714844 25.23169922 -2.34929687 24.40089844 -2.46484375 23.54492188 C-3.07146562 18.34819455 -2.88166534 14.0749114 -1.52929688 9.01171875 C-0.74638043 6.03605848 -0.38927745 3.04933999 0 0 Z " fill="#ABD939" transform="translate(168,149)"/>
<path d="M0 0 C0.763125 0.33 1.52625 0.66 2.3125 1 C4.99069135 2.17436686 4.99069135 2.17436686 8 2 C8.99 2 9.98 2 11 2 C9.68 3.65 8.36 5.3 7 7 C7.66 7 8.32 7 9 7 C9 7.66 9 8.32 9 9 C4.23692563 9.95261487 -0.1666528 10.08333357 -5 10 C-4.34 9.071875 -3.68 8.14375 -3 7.1875 C-0.73425446 4.20363444 -0.73425446 4.20363444 -1 1 C-0.67 0.67 -0.34 0.34 0 0 Z " fill="#ABD63D" transform="translate(201,330)"/>
<path d="M0 0 C0.99 0.33 1.98 0.66 3 1 C3 3.1875 3 3.1875 2 6 C-0.47212754 8.02372255 -3.18805368 9.49892445 -6 11 C-7.11375 11.61875 -8.2275 12.2375 -9.375 12.875 C-10.674375 13.431875 -10.674375 13.431875 -12 14 C-12.66 13.67 -13.32 13.34 -14 13 C-12.41984377 11.39270369 -10.83574348 9.78928424 -9.25 8.1875 C-8.36828125 7.29417969 -7.4865625 6.40085938 -6.578125 5.48046875 C-2.33496847 1.39803784 -2.33496847 1.39803784 0 0 Z " fill="#ABD344" transform="translate(265,181)"/>
<path d="M0 0 C1.953125 0.5546875 1.953125 0.5546875 4 2 C4.609375 5.2578125 4.609375 5.2578125 4.75 9.125 C4.80671875 10.40632812 4.8634375 11.68765625 4.921875 13.0078125 C4.94765625 13.99523437 4.9734375 14.98265625 5 16 C4.01 16 3.02 16 2 16 C2 18.64 2 21.28 2 24 C-0.29984389 21.57008782 -0.98975294 20.41257886 -1.07421875 17.01171875 C-0.94660156 15.91472656 -0.81898438 14.81773437 -0.6875 13.6875 C-0.20957864 9.07451994 0.10773669 4.63267753 0 0 Z " fill="#ACE328" transform="translate(170,203)"/>
<path d="M0 0 C0.99 0 1.98 0 3 0 C3 4.95 3 9.9 3 15 C2.34 15 1.68 15 1 15 C0.67 15.66 0.34 16.32 0 17 C-2.50898186 10.94892611 -1.7270894 6.16817642 0 0 Z " fill="#ABD245" transform="translate(350,124)"/>
<path d="M0 0 C-0.93441535 1.27310312 -1.87267111 2.543388 -2.8125 3.8125 C-3.59560547 4.87404297 -3.59560547 4.87404297 -4.39453125 5.95703125 C-6 8 -6 8 -9 11 C-10.65 8.69 -12.3 6.38 -14 4 C-10.535 3.505 -10.535 3.505 -7 3 C-8.32 2.34 -9.64 1.68 -11 1 C-7.26562152 0.12132271 -3.83225427 -0.08912219 0 0 Z " fill="#A6DE20" transform="translate(373,235)"/>
<path d="M0 0 C0.99 0.33 1.98 0.66 3 1 C3.81163654 3.41998982 4.44538433 5.70817997 5 8.1875 C5.90374641 12.11266981 6.83915722 15.68538855 8.6875 19.30078125 C10 22 10 22 9 25 C6.84688663 21.77032995 5.41730311 18.43948924 3.9375 14.875 C2.43773955 10.63291748 2.43773955 10.63291748 0 7 C-0.04092937 4.66702567 -0.04241723 2.33294775 0 0 Z " fill="#ACE229" transform="translate(274,178)"/>
<path d="M0 0 C0.13277344 0.62648437 0.26554688 1.25296875 0.40234375 1.8984375 C0.57894531 2.71570313 0.75554687 3.53296875 0.9375 4.375 C1.11152344 5.18710938 1.28554687 5.99921875 1.46484375 6.8359375 C1.92330693 9.029463 1.92330693 9.029463 3 11 C0.03 10.01 -2.94 9.02 -6 8 C-6 5 -6 5 -3.5625 2.3125 C-1 0 -1 0 0 0 Z " fill="#9FD51E" transform="translate(161,234)"/>
<path d="M0 0 C0.69013184 0.16419434 1.38026367 0.32838867 2.09130859 0.49755859 C2.84412109 0.67416016 3.59693359 0.85076172 4.37255859 1.03271484 C5.54431641 1.33628906 5.54431641 1.33628906 6.73974609 1.64599609 C7.52865234 1.82517578 8.31755859 2.00435547 9.13037109 2.18896484 C11.40380859 2.74755859 11.40380859 2.74755859 15.11474609 4.02099609 C15.44474609 5.01099609 15.77474609 6.00099609 16.11474609 7.02099609 C9.05565531 5.89823039 2.07631462 4.64536208 -4.88525391 3.02099609 C-2.43607508 0.0271306 -2.43607508 0.0271306 0 0 Z " fill="#ABDF2C" transform="translate(200.88525390625,212.97900390625)"/>
<path d="M0 0 C0.99 0.33 1.98 0.66 3 1 C2.01 1.680625 2.01 1.680625 1 2.375 C0.01 3.179375 0.01 3.179375 -1 4 C-1 4.66 -1 5.32 -1 6 C-1.99 6 -2.98 6 -4 6 C-4.33 7.65 -4.66 9.3 -5 11 C-5.66 11 -6.32 11 -7 11 C-7 9.35 -7 7.7 -7 6 C-7.99 6 -8.98 6 -10 6 C-10 5.34 -10 4.68 -10 4 C-9.36191406 3.79503906 -8.72382812 3.59007812 -8.06640625 3.37890625 C-7.24011719 3.10949219 -6.41382812 2.84007812 -5.5625 2.5625 C-4.73878906 2.29566406 -3.91507812 2.02882813 -3.06640625 1.75390625 C-1.03780412 1.17844506 -1.03780412 1.17844506 0 0 Z " fill="#AAD53E" transform="translate(90,300)"/>
<path d="M0 0 C2.97 0.495 2.97 0.495 6 1 C6.33 2.65 6.66 4.3 7 6 C4.6875 6.6875 4.6875 6.6875 2 7 C0.125 5.8125 0.125 5.8125 -1 4 C-0.6875 1.8125 -0.6875 1.8125 0 0 Z " fill="#111703" transform="translate(81,118)"/>
<path d="M0 0 C0.66 0 1.32 0 2 0 C2 3.96 2 7.92 2 12 C1.67 12 1.34 12 1 12 C0.67 10.02 0.34 8.04 0 6 C-0.66 8.64 -1.32 11.28 -2 14 C-3.625 12.3125 -3.625 12.3125 -5 10 C-4.375 7.5625 -4.375 7.5625 -3 5 C-2.505 4.071875 -2.01 3.14375 -1.5 2.1875 C-1.005 1.465625 -0.51 0.74375 0 0 Z " fill="#ABD83B" transform="translate(378,177)"/>
<path d="M0 0 C3.65589852 0.89366408 5.55866062 1.44476659 7.9375 4.4375 C9 7 9 7 8 10 C6.84481082 9.09515208 5.70114594 8.1755794 4.5625 7.25 C3.60537109 6.48429688 3.60537109 6.48429688 2.62890625 5.703125 C0.81189446 3.80332371 0.39576803 2.56413092 0 0 Z " fill="#A9D045" transform="translate(380,203)"/>
<path d="M0 0 C1.12894876 0.93274109 2.25300876 1.87140122 3.375 2.8125 C4.00148438 3.33457031 4.62796875 3.85664063 5.2734375 4.39453125 C7 6 7 6 9 9 C7.68 9.33 6.36 9.66 5 10 C4.566875 9.34 4.13375 8.68 3.6875 8 C2.8521875 7.01 2.8521875 7.01 2 6 C1.01 6 0.02 6 -1 6 C-0.67 4.02 -0.34 2.04 0 0 Z " fill="#A8E021" transform="translate(83,291)"/>
<path d="M0 0 C1.65 0.33 3.3 0.66 5 1 C5 1.66 5 2.32 5 3 C5.66 3 6.32 3 7 3 C6.67 3.66 6.34 4.32 6 5 C3.69 5 1.38 5 -1 5 C-1 6.32 -1 7.64 -1 9 C-1.99 9.33 -2.98 9.66 -4 10 C-2.8905928 6.51329166 -1.73662334 3.22515763 0 0 Z " fill="#9EC340" transform="translate(346,233)"/>
<path d="M0 0 C1.98 0.66 3.96 1.32 6 2 C5.01 2.495 5.01 2.495 4 3 C3.855625 3.928125 3.71125 4.85625 3.5625 5.8125 C3 9 3 9 0 13 C0 8.71 0 4.42 0 0 Z " fill="#AAE322" transform="translate(354,124)"/>
<path d="M0 0 C0.99 0.66 1.98 1.32 3 2 C1.21326795 3.5058745 -0.57953508 5.0045485 -2.375 6.5 C-3.37273437 7.3353125 -4.37046875 8.170625 -5.3984375 9.03125 C-8 11 -8 11 -10 11 C-8.65427408 6.96282223 -5.96886397 5.37468459 -2.55859375 3.1484375 C-0.84427485 2.06753066 -0.84427485 2.06753066 0 0 Z " fill="#AADE2B" transform="translate(198,179)"/>
<path d="M0 0 C0.66 0 1.32 0 2 0 C0.33333333 3.33333333 -1.33333333 6.66666667 -3 10 C-5.46800047 8.84826645 -7.04783565 7.95216435 -9 6 C-8.43410156 5.65066406 -7.86820312 5.30132812 -7.28515625 4.94140625 C-6.55167969 4.48636719 -5.81820313 4.03132812 -5.0625 3.5625 C-4.33160156 3.11003906 -3.60070312 2.65757812 -2.84765625 2.19140625 C-1.06100191 1.13135967 -1.06100191 1.13135967 0 0 Z " fill="#ACDF2F" transform="translate(272,174)"/>
<path d="M0 0 C0.66 0 1.32 0 2 0 C2.33 3.96 2.66 7.92 3 12 C1.35 12 -0.3 12 -2 12 C-2 11.34 -2 10.68 -2 10 C-1.34 10 -0.68 10 0 10 C0 8.02 0 6.04 0 4 C-0.66 4 -1.32 4 -2 4 C-1.34 2.68 -0.68 1.36 0 0 Z " fill="#A8E021" transform="translate(147,109)"/>
<path d="M0 0 C1.65 0.33 3.3 0.66 5 1 C4.67 2.65 4.34 4.3 4 6 C2.35 5.67 0.7 5.34 -1 5 C-0.67 3.35 -0.34 1.7 0 0 Z " fill="#1D2705" transform="translate(94,121)"/>
<path d="M0 0 C0.33 0.66 0.66 1.32 1 2 C-0.90881434 3.03544174 -2.82739204 4.05290085 -4.75 5.0625 C-5.81734375 5.63097656 -6.8846875 6.19945312 -7.984375 6.78515625 C-11.02593537 8.01044806 -12.04893565 8.25348607 -15 7 C-11.99162576 4.43731083 -9.83061349 3.72964066 -6 3 C-3.97762948 2.04605164 -1.9717304 1.05464649 0 0 Z " fill="#ACDE32" transform="translate(341,154)"/>
<path d="M0 0 C2.97 1.98 2.97 1.98 6 4 C4.75 5.5625 4.75 5.5625 3 7 C0.8125 6.6875 0.8125 6.6875 -1 6 C-1.042721 4.33388095 -1.04063832 2.66617115 -1 1 C-0.67 0.67 -0.34 0.34 0 0 Z " fill="#EAE8EA" transform="translate(262,146)"/>
<path d="M0 0 C1.32 1.32 2.64 2.64 4 4 C2.02 6.31 0.04 8.62 -2 11 C-3 9 -3 9 -2.44140625 6.8359375 C-2.15136719 6.02382812 -1.86132812 5.21171875 -1.5625 4.375 C-1.27503906 3.55773437 -0.98757813 2.74046875 -0.69140625 1.8984375 C-0.46324219 1.27195313 -0.23507812 0.64546875 0 0 Z " fill="#A9E123" transform="translate(356,247)"/>
<path d="M0 0 C0.33 0 0.66 0 1 0 C1.05449838 1.72880982 1.09301688 3.45812712 1.125 5.1875 C1.14820313 6.15042969 1.17140625 7.11335937 1.1953125 8.10546875 C0.9913544 11.12812778 0.26874632 13.26769985 -1 16 C-1.66 15.67 -2.32 15.34 -3 15 C-2.67 14.01 -2.34 13.02 -2 12 C-1.97072083 9.41924999 -2.065481 6.8562976 -2.16015625 4.27734375 C-2 2 -2 2 0 0 Z " fill="#ACDD33" transform="translate(353,158)"/>
<path d="M0 0 C4.23429756 1.31061591 8.07407404 2.94356259 12 5 C8.66947495 6.11017502 7.25587782 5.87254667 3.875 5.1875 C2.98554688 5.01605469 2.09609375 4.84460938 1.1796875 4.66796875 C0.10074219 4.33732422 0.10074219 4.33732422 -1 4 C-1.33 3.34 -1.66 2.68 -2 2 C-1.34 1.34 -0.68 0.68 0 0 Z " fill="#ACDC34" transform="translate(211,203)"/>
<path d="M0 0 C6.41923331 0.29112169 10.62100206 1.45215029 16 5 C15.67 5.66 15.34 6.32 15 7 C12 6 12 6 9.75 4.5625 C6.58898506 2.76646878 3.51166492 1.89513027 0 1 C0 0.67 0 0.34 0 0 Z " fill="#AADB30" transform="translate(285,177)"/>
<path d="M0 0 C-1.32 1.32 -2.64 2.64 -4 4 C-6.46800047 2.84826645 -8.04783565 1.95216435 -10 0 C-6.7169902 -1.6415049 -3.57454967 -0.51888624 0 0 Z " fill="#A4D135" transform="translate(308,299)"/>
<path d="M0 0 C1.32 0 2.64 0 4 0 C4 1.66666667 4 3.33333333 4 5 C1.36 5 -1.28 5 -4 5 C-2.25 2.5 -2.25 2.5 0 0 Z " fill="#A0C83B" transform="translate(200,335)"/>
<path d="M0 0 C1.32 0.33 2.64 0.66 4 1 C4 2.65 4 4.3 4 6 C2.02 6 0.04 6 -2 6 C-1.34 4.02 -0.68 2.04 0 0 Z " fill="#A7D23D" transform="translate(145,333)"/>
<path d="M0 0 C0.99 0.33 1.98 0.66 3 1 C3.80078125 2.77734375 3.80078125 2.77734375 4.3125 4.9375 C4.49425781 5.64777344 4.67601563 6.35804687 4.86328125 7.08984375 C4.93095703 8.03537109 4.93095703 8.03537109 5 9 C4.34 9.66 3.68 10.32 3 11 C0 4.5 0 4.5 0 0 Z " fill="#DCDCDC" transform="translate(122,97)"/>
<path d="M0 0 C-4.18586481 3.18923033 -6.70558305 4.50423019 -12 4 C-9.83602181 0.75403272 -9.54508198 0.55807016 -6 -0.25 C-4.948125 -0.50523437 -4.948125 -0.50523437 -3.875 -0.765625 C-2 -1 -2 -1 0 0 Z " fill="#ACE426" transform="translate(389,195)"/>
<path d="M0 0 C0.39253254 4.44870215 -0.84694043 7.14243493 -3 11 C-3.33 11 -3.66 11 -4 11 C-4.3682455 3.51234156 -4.3682455 3.51234156 -2.5625 1 C-1 0 -1 0 0 0 Z " fill="#ACE525" transform="translate(352,241)"/>
<path d="M0 0 C0.66 0.33 1.32 0.66 2 1 C2 3.97 2 6.94 2 10 C0.35 10.33 -1.3 10.66 -3 11 C-2.01 10.67 -1.02 10.34 0 10 C-0.2784375 8.63875 -0.2784375 8.63875 -0.5625 7.25 C-0.95734621 4.31685676 -0.94691572 2.7355343 0 0 Z " fill="#ABD93A" transform="translate(175,209)"/>
<path d="M0 0 C0.33 1.98 0.66 3.96 1 6 C0.67 5.34 0.34 4.68 0 4 C-1.98 4.99 -3.96 5.98 -6 7 C-5.37162381 3.35541809 -4.14650034 0 0 0 Z " fill="#ACDC34" transform="translate(115,194)"/>
<path d="M0 0 C-2.22825644 2.22825644 -3.65761628 2.69239369 -6.625 3.625 C-7.44226563 3.88539062 -8.25953125 4.14578125 -9.1015625 4.4140625 C-9.72804688 4.60742188 -10.35453125 4.80078125 -11 5 C-11.33 4.01 -11.66 3.02 -12 2 C-7.8803623 0.70756464 -4.33168317 -0.26252625 0 0 Z " fill="#867C8A" transform="translate(287,118)"/>
<path d="M0 0 C1.32 0.33 2.64 0.66 4 1 C3.67 1.33 3.34 1.66 3 2 C3.66 2.33 4.32 2.66 5 3 C4.67 4.32 4.34 5.64 4 7 C4 6.01 4 5.02 4 4 C1.36 4 -1.28 4 -4 4 C-4 3.34 -4 2.68 -4 2 C-2.68 2 -1.36 2 0 2 C0 1.34 0 0.68 0 0 Z " fill="#ACDD33" transform="translate(133,70)"/>
<path d="M0 0 C1.98 0.495 1.98 0.495 4 1 C4 2.32 4 3.64 4 5 C2.35 5 0.7 5 -1 5 C-0.67 3.35 -0.34 1.7 0 0 Z " fill="#A5CE3E" transform="translate(224,224)"/>
<path d="M0 0 C2.97 0.495 2.97 0.495 6 1 C4.35 2.65 2.7 4.3 1 6 C0.67 4.02 0.34 2.04 0 0 Z " fill="#9AC333" transform="translate(116,197)"/>
<path d="M0 0 C0.33 0.99 0.66 1.98 1 3 C-1.36292656 5.52588702 -2.66462511 6.88820837 -6 8 C-4.55746343 4.63408134 -2.66735273 2.48952921 0 0 Z " fill="#928797" transform="translate(217,121)"/>
<path d="M0 0 C1.32 0.66 2.64 1.32 4 2 C4 2.66 4 3.32 4 4 C3.01 4.495 3.01 4.495 2 5 C1.34786708 7.02463255 1.34786708 7.02463255 1 9 C-0.61949011 6.42786866 -1.04408751 5.32330841 -0.625 2.25 C-0.41875 1.5075 -0.2125 0.765 0 0 Z " fill="#ACDA39" transform="translate(120,119)"/>
<path d="M0 0 C0.33 0.99 0.66 1.98 1 3 C0.38125 3.0825 -0.2375 3.165 -0.875 3.25 C-3.15042479 3.79923543 -3.15042479 3.79923543 -4.125 5.875 C-4.41375 6.57625 -4.7025 7.2775 -5 8 C-5.66 8.99 -6.32 9.98 -7 11 C-6.49697411 6.59852343 -4.97554199 4.24604581 -2 1 C-1.34 0.67 -0.68 0.34 0 0 Z " fill="#DEDEDE" transform="translate(126,87)"/>
<path d="M0 0 C0.66 0.33 1.32 0.66 2 1 C2 2.98 2 4.96 2 7 C0.02 7.99 0.02 7.99 -2 9 C-1.34 6.03 -0.68 3.06 0 0 Z " fill="#95B83D" transform="translate(167,219)"/>
<path d="M0 0 C0.66 0 1.32 0 2 0 C2 3.96 2 7.92 2 12 C1.67 12 1.34 12 1 12 C0.7834375 10.63875 0.7834375 10.63875 0.5625 9.25 C0.08075461 6.14616764 0.08075461 6.14616764 -0.625 3.75 C-1 2 -1 2 0 0 Z " fill="#ACDE30" transform="translate(378,177)"/>
<path d="M0 0 C0.66 0.33 1.32 0.66 2 1 C2 1.66 2 2.32 2 3 C-0.97 4.65 -3.94 6.3 -7 8 C-4.9957983 3.9915966 -3.50944037 2.58590343 0 0 Z " fill="#2F391A" transform="translate(128,83)"/>
<path d="M0 0 C1.98 0.66 3.96 1.32 6 2 C6.33 3.65 6.66 5.3 7 7 C3.00003714 5.66667905 2.16217663 3.5042173 0 0 Z " fill="#ACE02D" transform="translate(374,200)"/>
<path d="M0 0 C0.33 1.32 0.66 2.64 1 4 C-3.75 6.875 -3.75 6.875 -6 8 C-4.55746343 4.63408134 -2.66735273 2.48952921 0 0 Z " fill="#95C423" transform="translate(115,190)"/>
<path d="M0 0 C2.31 0 4.62 0 7 0 C6.67 0.66 6.34 1.32 6 2 C5.01 2 4.02 2 3 2 C3 2.66 3 3.32 3 4 C2.01 4 1.02 4 0 4 C0 2.68 0 1.36 0 0 Z " fill="#ACDC35" transform="translate(130,119)"/>
<path d="M0 0 C0.33 0 0.66 0 1 0 C1.05399736 1.45792884 1.09279177 2.91642712 1.125 4.375 C1.14820313 5.18710938 1.17140625 5.99921875 1.1953125 6.8359375 C1 9 1 9 -1 11 C-1.14285714 3.57142857 -1.14285714 3.57142857 0 0 Z " fill="#000000" transform="translate(327,211)"/>
<path d="M0 0 C0 0.99 0 1.98 0 3 C-0.99 3.495 -0.99 3.495 -2 4 C-1.34 2.68 -0.68 1.36 0 0 Z " fill="#000000" transform="translate(312,258)"/>
<path d="M0 0 C0 0.99 0 1.98 0 3 C-0.66 2.67 -1.32 2.34 -2 2 C-1.34 1.34 -0.68 0.68 0 0 Z " fill="#000000" transform="translate(304,263)"/>
<path d="M0 0 C0 0.99 0 1.98 0 3 C-0.66 2.34 -1.32 1.68 -2 1 C-1.34 0.67 -0.68 0.34 0 0 Z " fill="#000000" transform="translate(324,235)"/>
<path d="M0 0 C0.99 1.485 0.99 1.485 2 3 C1.34 3 0.68 3 0 3 C0 2.01 0 1.02 0 0 Z " fill="#000000" transform="translate(310,199)"/>
<path d="" fill="#000000" transform="translate(0,0)"/>
<path d="M0 0 C0.66 0 1.32 0 2 0 C1.67 0.66 1.34 1.32 1 2 C0.67 1.34 0.34 0.68 0 0 Z " fill="#000000" transform="translate(315,204)"/>
<path d="" fill="#000000" transform="translate(0,0)"/>
<path d="" fill="#000000" transform="translate(0,0)"/>
<path d="M0 0 C2 1 2 1 2 1 Z " fill="#000000" transform="translate(310,192)"/>
<path d="" fill="#000000" transform="translate(0,0)"/>
<path d="" fill="#000000" transform="translate(0,0)"/>
<path d="" fill="#000000" transform="translate(0,0)"/>
<path d="" fill="#000000" transform="translate(0,0)"/>
<path d="" fill="#000000" transform="translate(0,0)"/>
<path d="" fill="#000000" transform="translate(0,0)"/>
<path d="" fill="#000000" transform="translate(0,0)"/>
<path d="" fill="#000000" transform="translate(0,0)"/>
<path d="" fill="#000000" transform="translate(0,0)"/>
<path d="" fill="#000000" transform="translate(0,0)"/>
<path d="" fill="#000000" transform="translate(0,0)"/>
<path d="" fill="#000000" transform="translate(0,0)"/>
<path d="" fill="#000000" transform="translate(0,0)"/>
<path d="" fill="#000000" transform="translate(0,0)"/>
</svg>
